<svg width="84" height="84" viewBox="0 0 84 84" fill="none" xmlns="http://www.w3.org/2000/svg">
<path d="M20.8253 63.4214V83.4019C31.8686 83.4019 40.9631 74.3784 40.9631 63.4214V43.4408C29.9198 43.4408 20.8253 52.2494 20.8253 63.4214Z" fill="white"/>
<path d="M43.1284 20.8825V40.8631C54.1717 40.8631 63.2662 31.8396 63.2662 20.8825V0.901917C52.2229 0.901917 43.1284 9.9254 43.1284 20.8825Z" fill="white"/>
<path d="M21.0418 21.7423H0.904053C0.904053 32.6994 9.99854 41.7229 21.0418 41.7229H41.1796C41.1796 30.7658 32.0852 21.7423 21.0418 21.7423Z" fill="white"/>
<path d="M63.2662 62.9923H83.404C83.404 52.0352 74.3095 43.0117 63.2662 43.0117H43.1284C43.1284 54.1836 52.2229 62.9923 63.2662 62.9923Z" fill="white"/>
</svg>
