<svg width="88" height="78" viewBox="0 0 88 78" fill="none" xmlns="http://www.w3.org/2000/svg">
<path d="M87.1293 3.87451C87.2731 3.87451 87.4169 3.87451 87.4888 3.87451V75.9066H14.7378C14.9535 36.0805 47.3032 3.87451 87.1293 3.87451Z" fill="#008249"/>
<path d="M12.4373 30.6889C12.4373 32.8455 10.712 34.5708 8.55531 34.5708C6.39866 34.5708 4.67334 32.8455 4.67334 30.6889C4.67334 28.5322 6.39866 26.8069 8.55531 26.8069C10.712 26.8069 12.4373 28.5322 12.4373 30.6889Z" fill="#004C29"/>
<path d="M12.4373 30.6889C12.4373 32.8455 10.712 34.5708 8.55531 34.5708C6.39866 34.5708 4.67334 32.8455 4.67334 30.6889C4.67334 28.5322 6.39866 26.8069 8.55531 26.8069C10.712 26.8069 12.4373 28.5322 12.4373 30.6889Z" stroke="#004C29" stroke-width="0.539163" stroke-miterlimit="10"/>
<path d="M26.0965 30.6889C26.0965 32.8455 24.3711 34.5708 22.2145 34.5708C20.0578 34.5708 18.3325 32.8455 18.3325 30.6889C18.3325 28.5322 20.0578 26.8069 22.2145 26.8069C24.3711 26.8069 26.0965 28.5322 26.0965 30.6889Z" fill="#004C29"/>
<path d="M26.0965 30.6889C26.0965 32.8455 24.3711 34.5708 22.2145 34.5708C20.0578 34.5708 18.3325 32.8455 18.3325 30.6889C18.3325 28.5322 20.0578 26.8069 22.2145 26.8069C24.3711 26.8069 26.0965 28.5322 26.0965 30.6889Z" stroke="#004C29" stroke-width="0.539163" stroke-miterlimit="10"/>
<path d="M25.7369 24.2189H5.03309C2.44511 24.2189 0.360352 22.1341 0.360352 19.5461V16.3112C0.360352 13.7232 2.44511 11.6384 5.03309 11.6384H25.7369C28.3249 11.6384 30.4097 13.7232 30.4097 16.3112V19.5461C30.4097 22.1341 28.3249 24.2189 25.7369 24.2189ZM5.03309 13.7951C3.66722 13.7951 2.517 14.9453 2.517 16.3112V19.5461C2.517 20.912 3.66722 22.0622 5.03309 22.0622H25.7369C27.1028 22.0622 28.253 20.912 28.253 19.5461V16.3112C28.253 14.9453 27.1028 13.7951 25.7369 13.7951H5.03309Z" fill="#004B2A"/>
<path d="M46.2249 30.6889C46.2249 32.8455 44.4996 34.5708 42.3429 34.5708C40.1863 34.5708 38.4609 32.8455 38.4609 30.6889C38.4609 28.5322 40.1863 26.8069 42.3429 26.8069C44.4996 26.8069 46.2249 28.5322 46.2249 30.6889Z" fill="#004C29"/>
<path d="M46.2249 30.6889C46.2249 32.8455 44.4996 34.5708 42.3429 34.5708C40.1863 34.5708 38.4609 32.8455 38.4609 30.6889C38.4609 28.5322 40.1863 26.8069 42.3429 26.8069C44.4996 26.8069 46.2249 28.5322 46.2249 30.6889Z" stroke="#004C29" stroke-width="0.539163" stroke-miterlimit="10"/>
<path d="M59.8118 30.6889C59.8118 32.8455 58.0865 34.5708 55.9298 34.5708C53.7732 34.5708 52.0479 32.8455 52.0479 30.6889C52.0479 28.5322 53.7732 26.8069 55.9298 26.8069C58.0865 26.8069 59.8118 28.5322 59.8118 30.6889Z" fill="#004C29"/>
<path d="M59.8118 30.6889C59.8118 32.8455 58.0865 34.5708 55.9298 34.5708C53.7732 34.5708 52.0479 32.8455 52.0479 30.6889C52.0479 28.5322 53.7732 26.8069 55.9298 26.8069C58.0865 26.8069 59.8118 28.5322 59.8118 30.6889Z" stroke="#004C29" stroke-width="0.539163" stroke-miterlimit="10"/>
<path d="M12.4373 48.8047C12.4373 50.9614 10.712 52.6867 8.55531 52.6867C6.39866 52.6867 4.67334 50.9614 4.67334 48.8047C4.67334 46.6481 6.39866 44.9227 8.55531 44.9227C10.712 44.9227 12.4373 46.6481 12.4373 48.8047Z" fill="#004C29"/>
<path d="M12.4373 48.8047C12.4373 50.9614 10.712 52.6867 8.55531 52.6867C6.39866 52.6867 4.67334 50.9614 4.67334 48.8047C4.67334 46.6481 6.39866 44.9227 8.55531 44.9227C10.712 44.9227 12.4373 46.6481 12.4373 48.8047Z" stroke="#004C29" stroke-width="0.539163" stroke-miterlimit="10"/>
<path d="M26.0965 48.8047C26.0965 50.9614 24.3711 52.6867 22.2145 52.6867C20.0578 52.6867 18.3325 50.9614 18.3325 48.8047C18.3325 46.6481 20.0578 44.9227 22.2145 44.9227C24.3711 44.9227 26.0965 46.6481 26.0965 48.8047Z" fill="#004C29"/>
<path d="M26.0965 48.8047C26.0965 50.9614 24.3711 52.6867 22.2145 52.6867C20.0578 52.6867 18.3325 50.9614 18.3325 48.8047C18.3325 46.6481 20.0578 44.9227 22.2145 44.9227C24.3711 44.9227 26.0965 46.6481 26.0965 48.8047Z" stroke="#004C29" stroke-width="0.539163" stroke-miterlimit="10"/>
<path d="M46.2249 48.8047C46.2249 50.9614 44.4996 52.6867 42.3429 52.6867C40.1863 52.6867 38.4609 50.9614 38.4609 48.8047C38.4609 46.6481 40.1863 44.9227 42.3429 44.9227C44.4996 44.9227 46.2249 46.6481 46.2249 48.8047Z" fill="#004C29"/>
<path d="M46.2249 48.8047C46.2249 50.9614 44.4996 52.6867 42.3429 52.6867C40.1863 52.6867 38.4609 50.9614 38.4609 48.8047C38.4609 46.6481 40.1863 44.9227 42.3429 44.9227C44.4996 44.9227 46.2249 46.6481 46.2249 48.8047Z" stroke="#004C29" stroke-width="0.539163" stroke-miterlimit="10"/>
<path d="M59.8118 48.8047C59.8118 50.9614 58.0865 52.6867 55.9298 52.6867C53.7732 52.6867 52.0479 50.9614 52.0479 48.8047C52.0479 46.6481 53.7732 44.9227 55.9298 44.9227C58.0865 44.9227 59.8118 46.6481 59.8118 48.8047Z" fill="#004C29"/>
<path d="M59.8118 48.8047C59.8118 50.9614 58.0865 52.6867 55.9298 52.6867C53.7732 52.6867 52.0479 50.9614 52.0479 48.8047C52.0479 46.6481 53.7732 44.9227 55.9298 44.9227C58.0865 44.9227 59.8118 46.6481 59.8118 48.8047Z" stroke="#004C29" stroke-width="0.539163" stroke-miterlimit="10"/>
<path d="M12.4373 4.95277C12.4373 7.10942 10.712 8.83474 8.55531 8.83474C6.39866 8.83474 4.67334 7.10942 4.67334 4.95277C4.67334 2.79612 6.39866 1.0708 8.55531 1.0708C10.712 1.0708 12.4373 2.79612 12.4373 4.95277Z" fill="#004C29"/>
<path d="M12.4373 4.95277C12.4373 7.10942 10.712 8.83474 8.55531 8.83474C6.39866 8.83474 4.67334 7.10942 4.67334 4.95277C4.67334 2.79612 6.39866 1.0708 8.55531 1.0708C10.712 1.0708 12.4373 2.79612 12.4373 4.95277Z" stroke="#004C29" stroke-width="0.539163" stroke-miterlimit="10"/>
<path d="M26.0965 4.95277C26.0965 7.10942 24.3711 8.83474 22.2145 8.83474C20.0578 8.83474 18.3325 7.10942 18.3325 4.95277C18.3325 2.79612 20.0578 1.0708 22.2145 1.0708C24.3711 1.0708 26.0965 2.79612 26.0965 4.95277Z" fill="#004C29"/>
<path d="M26.0965 4.95277C26.0965 7.10942 24.3711 8.83474 22.2145 8.83474C20.0578 8.83474 18.3325 7.10942 18.3325 4.95277C18.3325 2.79612 20.0578 1.0708 22.2145 1.0708C24.3711 1.0708 26.0965 2.79612 26.0965 4.95277Z" stroke="#004C29" stroke-width="0.539163" stroke-miterlimit="10"/>
<path d="M46.2249 4.95277C46.2249 7.10942 44.4996 8.83474 42.3429 8.83474C40.1863 8.83474 38.4609 7.10942 38.4609 4.95277C38.4609 2.79612 40.1863 1.0708 42.3429 1.0708C44.4996 1.0708 46.2249 2.79612 46.2249 4.95277Z" fill="#004C29"/>
<path d="M46.2249 4.95277C46.2249 7.10942 44.4996 8.83474 42.3429 8.83474C40.1863 8.83474 38.4609 7.10942 38.4609 4.95277C38.4609 2.79612 40.1863 1.0708 42.3429 1.0708C44.4996 1.0708 46.2249 2.79612 46.2249 4.95277Z" stroke="#004C29" stroke-width="0.539163" stroke-miterlimit="10"/>
<path d="M59.8118 4.95277C59.8118 7.10942 58.0865 8.83474 55.9298 8.83474C53.7732 8.83474 52.0479 7.10942 52.0479 4.95277C52.0479 2.79612 53.7732 1.0708 55.9298 1.0708C58.0865 1.0708 59.8118 2.79612 59.8118 4.95277Z" fill="#004C29"/>
<path d="M59.8118 4.95277C59.8118 7.10942 58.0865 8.83474 55.9298 8.83474C53.7732 8.83474 52.0479 7.10942 52.0479 4.95277C52.0479 2.79612 53.7732 1.0708 55.9298 1.0708C58.0865 1.0708 59.8118 2.79612 59.8118 4.95277Z" stroke="#004C29" stroke-width="0.539163" stroke-miterlimit="10"/>
<path d="M59.5242 24.2189H38.7484C36.1604 24.2189 34.0757 22.1341 34.0757 19.5461V16.3112C34.0757 13.7232 36.1604 11.6384 38.7484 11.6384H59.4523C62.0402 11.6384 64.125 13.7232 64.125 16.3112V19.5461C64.125 22.1341 62.0402 24.2189 59.5242 24.2189ZM38.7484 13.7951C37.3825 13.7951 36.2323 14.9453 36.2323 16.3112V19.5461C36.2323 20.912 37.3825 22.0622 38.7484 22.0622H59.4523C60.8181 22.0622 61.9684 20.912 61.9684 19.5461V16.3112C61.9684 14.9453 60.8181 13.7951 59.4523 13.7951H38.7484Z" fill="#004B2A"/>
<path d="M12.4373 73.3186C12.4373 75.4753 10.712 77.2006 8.55531 77.2006C6.39866 77.2006 4.67334 75.4753 4.67334 73.3186C4.67334 71.162 6.39866 69.4366 8.55531 69.4366C10.712 69.4366 12.4373 71.162 12.4373 73.3186Z" fill="#004C29"/>
<path d="M12.4373 73.3186C12.4373 75.4753 10.712 77.2006 8.55531 77.2006C6.39866 77.2006 4.67334 75.4753 4.67334 73.3186C4.67334 71.162 6.39866 69.4366 8.55531 69.4366C10.712 69.4366 12.4373 71.162 12.4373 73.3186Z" stroke="#004C29" stroke-width="0.539163" stroke-miterlimit="10"/>
<path d="M26.0965 73.3186C26.0965 75.4753 24.3711 77.2006 22.2145 77.2006C20.0578 77.2006 18.3325 75.4753 18.3325 73.3186C18.3325 71.162 20.0578 69.4366 22.2145 69.4366C24.3711 69.4366 26.0965 71.162 26.0965 73.3186Z" fill="#004C29"/>
<path d="M26.0965 73.3186C26.0965 75.4753 24.3711 77.2006 22.2145 77.2006C20.0578 77.2006 18.3325 75.4753 18.3325 73.3186C18.3325 71.162 20.0578 69.4366 22.2145 69.4366C24.3711 69.4366 26.0965 71.162 26.0965 73.3186Z" stroke="#004C29" stroke-width="0.539163" stroke-miterlimit="10"/>
<path d="M25.7369 67.208H5.03309C2.44511 67.208 0.360352 65.1233 0.360352 62.5353V59.3003C0.360352 56.7842 2.44511 54.6995 5.03309 54.6995H25.7369C28.3249 54.6995 30.4097 56.7842 30.4097 59.3722V62.6072C30.4097 65.1233 28.3249 67.208 25.7369 67.208ZM5.03309 56.8561C3.66722 56.8561 2.517 58.0063 2.517 59.3722V62.6072C2.517 63.9731 3.66722 65.1233 5.03309 65.1233H25.7369C27.1028 65.1233 28.253 63.9731 28.253 62.6072V59.3722C28.253 58.0063 27.1028 56.8561 25.7369 56.8561H5.03309Z" fill="#004B2A"/>
<path d="M46.2249 73.3186C46.2249 75.4753 44.4996 77.2006 42.3429 77.2006C40.1863 77.2006 38.4609 75.4753 38.4609 73.3186C38.4609 71.162 40.1863 69.4366 42.3429 69.4366C44.4996 69.4366 46.2249 71.162 46.2249 73.3186Z" fill="#004C29"/>
<path d="M46.2249 73.3186C46.2249 75.4753 44.4996 77.2006 42.3429 77.2006C40.1863 77.2006 38.4609 75.4753 38.4609 73.3186C38.4609 71.162 40.1863 69.4366 42.3429 69.4366C44.4996 69.4366 46.2249 71.162 46.2249 73.3186Z" stroke="#004C29" stroke-width="0.539163" stroke-miterlimit="10"/>
<path d="M59.8118 73.3186C59.8118 75.4753 58.0865 77.2006 55.9298 77.2006C53.7732 77.2006 52.0479 75.4753 52.0479 73.3186C52.0479 71.162 53.7732 69.4366 55.9298 69.4366C58.0865 69.4366 59.8118 71.162 59.8118 73.3186Z" fill="#004C29"/>
<path d="M59.8118 73.3186C59.8118 75.4753 58.0865 77.2006 55.9298 77.2006C53.7732 77.2006 52.0479 75.4753 52.0479 73.3186C52.0479 71.162 53.7732 69.4366 55.9298 69.4366C58.0865 69.4366 59.8118 71.162 59.8118 73.3186Z" stroke="#004C29" stroke-width="0.539163" stroke-miterlimit="10"/>
<path d="M59.5242 67.2081H38.7484C36.1604 67.2081 34.0757 65.1234 34.0757 62.5354V59.3004C34.0757 56.7124 36.1604 54.6277 38.7484 54.6277H59.4523C62.0402 54.6277 64.125 56.7124 64.125 59.3004V62.5354C64.125 65.1234 62.0402 67.2081 59.5242 67.2081ZM38.7484 56.8562C37.3825 56.8562 36.2323 58.0064 36.2323 59.3723V62.6073C36.2323 63.9732 37.3825 65.1234 38.7484 65.1234H59.4523C60.8181 65.1234 61.9684 63.9732 61.9684 62.6073V59.3723C61.9684 58.0064 60.8181 56.8562 59.4523 56.8562H38.7484Z" fill="#004B2A"/>
</svg>
