<svg width="29" height="29" viewBox="0 0 29 29" fill="none" xmlns="http://www.w3.org/2000/svg">
<path d="M14.1667 0C21.9583 0 28.3333 6.375 28.3333 14.1667C28.3333 21.9583 21.9583 28.3333 14.1667 28.3333C6.375 28.3333 0 21.9583 0 14.1667C0 6.375 6.375 0 14.1667 0ZM14.1667 2.83333C11.475 2.83333 9.06667 3.68333 7.225 5.24167L23.0917 21.1083C24.5083 19.125 25.5 16.7167 25.5 14.1667C25.5 7.93333 20.4 2.83333 14.1667 2.83333ZM21.1083 23.0917L5.24167 7.225C3.68333 9.06667 2.83333 11.475 2.83333 14.1667C2.83333 20.4 7.93333 25.5 14.1667 25.5C16.8583 25.5 19.2667 24.65 21.1083 23.0917Z" fill="white"/>
</svg>
