<svg width="30" height="30" viewBox="0 0 30 30" fill="none" xmlns="http://www.w3.org/2000/svg">
<path d="M15 0C6.72 0 0 6.72 0 15C0 23.28 6.72 30 15 30C23.28 30 30 23.28 30 15C30 6.72 23.28 0 15 0ZM15 27C8.37 27 3 21.63 3 15C3 8.37 8.37 3 15 3C21.63 3 27 8.37 27 15C27 21.63 21.63 27 15 27Z" fill="white"/>
<path d="M7.5 17.25C8.74264 17.25 9.75 16.2426 9.75 15C9.75 13.7574 8.74264 12.75 7.5 12.75C6.25736 12.75 5.25 13.7574 5.25 15C5.25 16.2426 6.25736 17.25 7.5 17.25Z" fill="white"/>
<path d="M15 17.25C16.2426 17.25 17.25 16.2426 17.25 15C17.25 13.7574 16.2426 12.75 15 12.75C13.7574 12.75 12.75 13.7574 12.75 15C12.75 16.2426 13.7574 17.25 15 17.25Z" fill="white"/>
<path d="M22.5 17.25C23.7426 17.25 24.75 16.2426 24.75 15C24.75 13.7574 23.7426 12.75 22.5 12.75C21.2574 12.75 20.25 13.7574 20.25 15C20.25 16.2426 21.2574 17.25 22.5 17.25Z" fill="white"/>
</svg>
