<svg width="29" height="29" viewBox="0 0 29 29" fill="none" xmlns="http://www.w3.org/2000/svg">
<path d="M11.6816 21.1845V11.5166H10.5342C9.71254 11.9546 8.91839 12.4425 8.15625 12.9775V14.2372C8.83594 13.7714 9.91256 13.1134 10.4364 12.8289H10.4581V21.1845H11.6816ZM13.8348 18.8192C13.92 19.9792 14.9114 21.3676 16.9215 21.3676C19.2016 21.3676 20.5465 19.4354 20.5465 16.1639C20.5465 12.6585 19.1309 11.3281 17.0067 11.3281C15.3283 11.3281 13.7496 12.5461 13.7496 14.6069C13.7496 16.7094 15.2431 17.8151 16.7874 17.8151C18.1395 17.8151 19.0168 17.1336 19.2941 16.3832H19.343C19.3357 18.7684 18.5074 20.3054 16.9777 20.3054C15.7742 20.3054 15.1507 19.4898 15.0746 18.8192H13.8348ZM19.1871 14.6196C19.1871 15.8811 18.1739 16.7584 17.0411 16.7584C15.9518 16.7584 14.9676 16.0642 14.9676 14.5834C14.9676 13.0917 16.0225 12.3902 17.0846 12.3902C18.2319 12.3902 19.1871 13.1116 19.1871 14.6196Z" fill="white"/>
<path d="M6.34375 0C6.5841 0 6.81461 0.0954797 6.98457 0.265435C7.15452 0.435389 7.25 0.665898 7.25 0.90625V1.8125H21.75V0.90625C21.75 0.665898 21.8455 0.435389 22.0154 0.265435C22.1854 0.0954797 22.4159 0 22.6562 0C22.8966 0 23.1271 0.0954797 23.2971 0.265435C23.467 0.435389 23.5625 0.665898 23.5625 0.90625V1.8125H25.375C26.3364 1.8125 27.2584 2.19442 27.9383 2.87424C28.6181 3.55406 29 4.47609 29 5.4375V25.375C29 26.3364 28.6181 27.2584 27.9383 27.9383C27.2584 28.6181 26.3364 29 25.375 29H3.625C2.66359 29 1.74156 28.6181 1.06174 27.9383C0.381919 27.2584 0 26.3364 0 25.375V5.4375C0 4.47609 0.381919 3.55406 1.06174 2.87424C1.74156 2.19442 2.66359 1.8125 3.625 1.8125H5.4375V0.90625C5.4375 0.665898 5.53298 0.435389 5.70293 0.265435C5.87289 0.0954797 6.1034 0 6.34375 0V0ZM1.8125 7.25V25.375C1.8125 25.8557 2.00346 26.3167 2.34337 26.6566C2.68328 26.9965 3.14429 27.1875 3.625 27.1875H25.375C25.8557 27.1875 26.3167 26.9965 26.6566 26.6566C26.9965 26.3167 27.1875 25.8557 27.1875 25.375V7.25H1.8125Z" fill="white"/>
</svg>
