<svg width="24" height="25" viewBox="0 0 24 25" fill="none" xmlns="http://www.w3.org/2000/svg">
<path d="M21.9583 0H1.29167C0.949095 0 0.620555 0.136086 0.37832 0.37832C0.136086 0.620555 0 0.949095 0 1.29167V4.63708C0 5.31263 0.275125 5.97654 0.753042 6.45446L7.75 13.4514V23.25C7.75025 23.4701 7.80667 23.6864 7.91391 23.8786C8.02115 24.0708 8.17566 24.2324 8.36282 24.3481C8.54998 24.4639 8.76359 24.53 8.98342 24.5401C9.20325 24.5502 9.42203 24.5041 9.61904 24.406L14.7857 21.8227C15.2236 21.6031 15.5 21.1562 15.5 20.6667V13.4514L22.497 6.45446C22.9749 5.97654 23.25 5.31263 23.25 4.63708V1.29167C23.25 0.949095 23.1139 0.620555 22.8717 0.37832C22.6294 0.136086 22.3009 0 21.9583 0ZM13.2951 12.0035C13.1749 12.1232 13.0796 12.2655 13.0147 12.4223C12.9497 12.579 12.9164 12.747 12.9167 12.9167V19.8684L10.3333 21.1601V12.9167C10.3336 12.747 10.3003 12.579 10.2353 12.4223C10.1704 12.2655 10.0751 12.1232 9.95487 12.0035L2.58333 4.63708V2.58333H20.668L20.6705 4.62804L13.2951 12.0035Z" fill="#7D7C7A"/>
</svg>
