<svg width="30" height="44" viewBox="0 0 30 44" fill="none" xmlns="http://www.w3.org/2000/svg">
<path d="M21.029 37.9833C21.029 41.3202 18.2937 43.9898 14.9825 43.9898C11.6234 43.9898 8.93604 41.2726 8.93604 37.9833C8.93604 34.6464 11.6713 31.9768 14.9825 31.9768C18.3417 31.9768 21.029 34.6464 21.029 37.9833Z" fill="#FF972F"/>
<path d="M29.7626 12.3842C28.6589 5.99632 23.6682 1.22926 17.0459 0.180506C10.9994 -0.820577 4.61699 2.42103 1.73772 7.95082C0.346067 10.6204 -0.325763 13.4329 0.154116 16.3885C0.490031 18.486 1.44979 20.3929 2.45753 22.252C4.85693 26.59 7.88017 30.4514 11.0954 34.2173C12.343 35.6475 13.6387 37.0776 14.9344 38.5077C15.2223 38.2217 15.4623 37.9833 15.6542 37.745C17.7177 35.3138 19.8771 32.9302 21.8926 30.4514C24.436 27.3051 26.7394 23.9682 28.467 20.2975C29.7147 17.771 30.2425 15.1968 29.7626 12.3842Z" fill="white"/>
<path d="M6.63244 15.1966C6.63244 13.8618 5.52872 12.7654 4.18506 12.7654V15.1966C4.18506 16.5314 5.28878 17.6278 6.63244 17.6278C7.9761 17.6278 9.07982 16.5314 9.07982 15.1966V12.7654C7.68817 12.7654 6.63244 13.8618 6.63244 15.1966Z" fill="#FF972F"/>
<path d="M22.6124 12.7654C21.2688 12.7654 20.165 13.8618 20.165 15.1966V17.6278C21.5087 17.6278 22.6124 16.5314 22.6124 15.1966C22.6124 16.5314 23.7161 17.6278 25.0598 17.6278V15.1966C25.0598 13.8618 23.9561 12.7654 22.6124 12.7654Z" fill="#FF972F"/>
<path d="M16.6139 12.7654H14.1665V17.6278H16.6139C17.9575 17.6278 19.0613 16.5314 19.0613 15.1966C19.0133 13.8618 17.9575 12.7654 16.6139 12.7654Z" fill="#FF972F"/>
<path d="M10.3755 12.7654V15.1966C10.3755 16.5314 11.4792 17.6278 12.8229 17.6278V15.1966C12.8229 13.8618 11.7191 12.7654 10.3755 12.7654Z" fill="#FF972F"/>
</svg>
