<svg width="36" height="24" viewBox="0 0 36 24" fill="none" xmlns="http://www.w3.org/2000/svg">
<rect x="1.35157" y="1.35157" width="33.2969" height="21.2969" rx="1.64843" stroke="white" stroke-width="2.70314"/>
<rect x="21" y="6.59991" width="10.2" height="1.8" rx="0.9" fill="white"/>
<rect x="21" y="10.2" width="10.2" height="1.8" rx="0.9" fill="white"/>
<g clip-path="url(#clip0_97:3444)">
<path d="M14.1378 13.7398C14.0424 13.7086 13.4394 13.4368 13.8162 12.2914H13.8108C14.793 11.2798 15.5436 9.652 15.5436 8.0494C15.5436 5.5852 13.905 4.2934 12.0006 4.2934C10.095 4.2934 8.46537 5.5846 8.46537 8.0494C8.46537 9.6586 9.21177 11.293 10.2 12.3022C10.5852 13.3126 9.89637 13.6876 9.75237 13.7404C7.75797 14.4616 5.41797 15.7762 5.41797 17.074V17.5606C5.41797 19.3288 8.84637 19.7308 12.0192 19.7308C15.1968 19.7308 18.582 19.3288 18.582 17.5606V17.074C18.582 15.7372 16.2306 14.4328 14.1378 13.7398Z" fill="white"/>
</g>
<defs>
<clipPath id="clip0_97:3444">
<rect width="15.6" height="15.6" fill="white" transform="translate(4.19971 4.19995)"/>
</clipPath>
</defs>
</svg>
