<svg width="201" height="64" viewBox="0 0 201 64" fill="none" xmlns="http://www.w3.org/2000/svg">
<path d="M23.0578 23.0756C23.0578 10.3319 12.7339 0 0 0V23.0756C0 35.8193 10.3239 46.1511 23.0578 46.1511C35.7917 46.1511 46.1156 35.8193 46.1156 23.0756V0C33.3753 0 23.0578 10.3319 23.0578 23.0756Z" fill="#004B2A"/>
<path d="M174.266 0C161.532 0 151.208 10.3319 151.208 23.0756V46.1511C163.942 46.1511 174.266 35.8193 174.266 23.0756C174.266 35.8193 184.59 46.1511 197.324 46.1511V23.0756C197.318 10.3319 187 0 174.266 0Z" fill="#004B2A"/>
<path d="M117.277 0H94.2256V46.1511H117.283C130.017 46.1511 140.341 35.8193 140.341 23.0756C140.335 10.3319 130.011 0 117.277 0Z" fill="#004B2A"/>
<path d="M58.6064 0V23.0756C58.6064 35.8193 68.9304 46.1511 81.6643 46.1511V23.0756C81.6643 10.3319 71.3403 0 58.6064 0Z" fill="#004B2A"/>
<path d="M157.026 58.6327C156.981 58.7159 156.956 58.7287 156.828 58.7287H156.579C156.38 58.7287 156.342 58.6135 156.24 58.3064C156.195 58.1657 155.863 57.8842 155.23 57.8842C153.964 57.8842 153.21 59.0357 153.21 60.2896C153.21 61.6971 154.092 62.7207 155.37 62.7207C156.201 62.7207 156.79 62.356 157.039 62.2025C157.109 62.1577 157.307 62.0041 157.365 62.0041C157.422 62.0041 157.422 62.0873 157.422 62.1577C157.422 62.2409 157.256 63.4116 157.186 63.4948C157.058 63.6611 155.939 64.0002 155.083 64.0002C153.427 64.0002 151.573 62.9062 151.573 60.6159C151.573 59.2277 152.487 56.7966 155.338 56.7966C156.278 56.7966 156.885 57.0333 157.007 57.0909C157.275 57.2189 157.231 57.4684 157.218 57.5387L157.026 58.6327Z" fill="#004B2A"/>
<path d="M164.397 58.012C164.857 58.6581 165.055 59.4578 165.055 60.2191C165.055 61.6969 164.243 64 161.373 64C158.918 64 158.017 62.2151 158.017 60.5581C158.017 58.6197 159.264 56.79 161.482 56.79C162.92 56.79 163.86 57.2379 164.397 58.012ZM159.679 60.2894C159.679 61.7225 160.421 62.9188 161.616 62.9188C162.658 62.9188 163.387 61.7928 163.387 60.5325C163.387 59.5601 162.952 57.82 161.507 57.82C160.325 57.8136 159.679 59.01 159.679 60.2894Z" fill="#004B2A"/>
<path d="M176.357 57.1995C176.357 57.4107 176.332 57.4234 176.159 57.481C175.89 57.5514 175.865 57.6346 175.584 58.4342C175.232 59.4322 174.644 61.0316 174.28 62.0296L173.691 63.661C173.647 63.7441 173.608 63.7441 173.212 63.8017C173.129 63.8145 172.611 63.8977 172.522 63.8977C172.355 63.8977 172.343 63.8145 172.24 63.501C171.902 62.4199 171.301 60.7053 171.007 59.6114C170.994 59.541 170.936 59.3043 170.891 59.3043C170.847 59.3043 170.444 60.539 170.342 60.7821C169.824 62.1704 169.709 62.4838 169.402 63.3667C169.274 63.7441 169.261 63.7569 168.871 63.8017C168.616 63.8273 168.226 63.8721 168.111 63.8721C167.945 63.8721 167.945 63.8145 167.829 63.4626C167.714 63.098 166.231 58.0696 165.918 57.5898C165.835 57.4618 165.72 57.4618 165.579 57.3915C165.496 57.3467 165.483 57.3211 165.483 57.1931V56.9692C165.483 56.8605 165.509 56.7837 165.637 56.7837C165.873 56.7837 166.96 56.8285 167.184 56.8285C168.239 56.8285 168.571 56.7837 168.756 56.7837C168.852 56.7837 168.967 56.8093 168.967 56.9692V57.1931C168.967 57.3787 168.942 57.4043 168.686 57.4746C168.558 57.5002 168.028 57.6282 168.028 57.9672C168.028 58.0824 168.072 58.2039 168.155 58.5558C168.411 59.4962 168.942 61.8569 169.038 62.1512C169.178 61.8697 169.658 60.3087 170.201 58.5238C170.438 57.7497 170.495 57.5386 170.636 57.0076C170.693 56.8221 170.719 56.8093 171.07 56.7709C171.211 56.7581 171.761 56.6877 171.812 56.6877C171.965 56.6877 171.985 56.7453 172.08 57.2059C172.106 57.3019 173.206 61.7609 173.397 62.1512C173.493 61.8953 174.618 58.1464 174.618 57.9225C174.618 57.6154 174.395 57.5834 174.03 57.4874C173.864 57.4426 173.832 57.3595 173.832 57.2507V56.9692C173.832 56.8605 173.858 56.7837 174.043 56.7837C174.35 56.7837 174.816 56.8285 175.111 56.8285C175.347 56.8285 175.884 56.7837 176.146 56.7837C176.344 56.7837 176.344 56.8989 176.344 56.9692V57.1995H176.357Z" fill="#004B2A"/>
<path d="M183.082 58.012C183.542 58.6581 183.74 59.4578 183.74 60.2191C183.74 61.6969 182.928 64 180.058 64C177.603 64 176.702 62.2151 176.702 60.5581C176.702 58.6197 177.949 56.79 180.167 56.79C181.605 56.79 182.551 57.2379 183.082 58.012ZM178.364 60.2894C178.364 61.7225 179.106 62.9188 180.301 62.9188C181.343 62.9188 182.072 61.7928 182.072 60.5325C182.072 59.5601 181.637 57.82 180.192 57.82C179.01 57.8136 178.364 59.01 178.364 60.2894Z" fill="#004B2A"/>
<path d="M184.36 57.4042C184.36 57.1803 184.405 57.1355 184.629 57.11C185.3 57.0268 186.706 56.7837 186.86 56.7837C187.058 56.7837 187.058 56.95 187.058 57.0524L187.045 57.7433C187.058 58.1911 187.058 58.3511 187.173 58.3511C187.243 58.3511 187.352 58.2103 187.985 57.5066C188.324 57.1292 188.631 56.7901 189.615 56.7901C190.024 56.7901 190.12 56.9052 190.107 57.1164L190.05 58.1016C190.05 58.2295 190.037 58.4662 189.864 58.4662C189.781 58.4662 189.474 58.3511 188.925 58.3511C188.113 58.3511 187.716 58.6773 187.576 58.9396C187.352 59.3491 187.339 59.7009 187.339 60.7245V61.3579C187.339 62.3111 187.384 62.4262 187.397 62.5926C187.422 62.9316 187.55 62.9444 188.279 63.1108C188.746 63.2259 188.784 63.2259 188.784 63.4178V63.6162C188.784 63.6865 188.771 63.8401 188.599 63.8401C188.317 63.8401 188.049 63.7953 186.464 63.7953C185.511 63.7953 185.14 63.8401 184.891 63.8401C184.75 63.8401 184.738 63.7249 184.738 63.6545V63.4306C184.738 63.2323 184.782 63.2195 185.172 63.0916C185.569 62.9764 185.677 62.8932 185.703 62.5862C185.748 62.0808 185.728 61.0124 185.728 60.6605V60.1935C185.728 59.6433 185.671 58.1272 185.166 57.916C185.012 57.8585 184.942 57.8457 184.559 57.8201C184.392 57.8073 184.348 57.7625 184.348 57.6345V57.4042H184.36Z" fill="#004B2A"/>
<path d="M197.401 57.4043C197.401 57.641 197.356 57.6602 196.896 57.7114C196.64 57.7562 196.602 57.7817 196.276 58.0504C195.854 58.3767 194.997 59.0612 194.818 59.2276C194.748 59.3107 194.665 59.4003 194.665 59.4963C194.665 59.5922 194.697 59.637 194.946 60.0144C196.883 62.8549 197.12 62.9253 197.516 63.0468C197.797 63.1172 197.823 63.13 197.823 63.2963V63.4947C197.823 63.6802 197.823 63.6802 197.516 63.7314C196.8 63.8593 196.097 63.9425 195.918 63.9425C195.694 63.9425 195.624 63.8977 195.26 63.3411C194.978 62.9061 193.629 60.6734 193.508 60.571C193.482 60.5454 193.45 60.5454 193.425 60.5454C193.425 60.5454 193.259 60.5582 193.131 60.7693C193.086 60.8269 193.086 60.8525 193.086 61.1212C193.086 62.8613 193.144 62.8933 193.367 62.9893C193.463 63.034 193.955 63.1876 193.968 63.2004C194.083 63.258 194.083 63.3283 194.083 63.4243V63.6482C194.083 63.7761 194.058 63.8337 193.917 63.8337C193.706 63.8337 193.527 63.7889 192.274 63.7889C191.092 63.7889 190.868 63.8337 190.644 63.8337C190.503 63.8337 190.491 63.7186 190.491 63.6482V63.4243C190.491 63.226 190.535 63.2132 190.925 63.0852C191.29 62.9701 191.43 62.8997 191.456 62.5798C191.469 62.2855 191.482 61.3835 191.482 60.6542V57.5898C191.482 57.1676 191.482 54.7941 191.398 54.5382C191.328 54.3143 191.213 54.3015 190.682 54.212C190.459 54.1864 190.427 54.084 190.427 53.9881V53.7322C190.427 53.5786 190.542 53.5658 190.663 53.5338L192.837 53.2076C193.176 53.15 193.176 53.2332 193.176 53.6298L193.105 56.5406C193.08 58.1848 193.08 58.4663 193.08 58.7733V59.6178C193.08 59.701 193.08 59.8161 193.163 59.8161C193.303 59.8161 194.972 58.076 194.972 57.8329C194.972 57.7178 194.889 57.6922 194.595 57.6218C194.397 57.5642 194.345 57.5514 194.345 57.3851V57.0908C194.345 56.9629 194.416 56.9245 194.544 56.9245C194.729 56.9245 195.528 56.9693 195.905 56.9693C196.103 56.9693 197.017 56.9245 197.171 56.9245C197.324 56.9245 197.407 56.9501 197.407 57.11V57.4043H197.401Z" fill="#004B2A"/>
<path d="M201 62.9318C201 63.5203 200.521 64.0001 199.894 64.0001C199.261 64.0001 198.814 63.5075 198.814 62.919C198.814 62.26 199.377 61.8506 199.869 61.8506C200.578 61.8506 201 62.3368 201 62.9318Z" fill="#004B2A"/>
</svg>
