<svg width="25" height="27" viewBox="0 0 25 27" fill="none" xmlns="http://www.w3.org/2000/svg">
<path d="M2.22706 10.0229C2.22706 7.36469 3.28305 4.81532 5.16271 2.93565C7.04238 1.05598 9.59175 0 12.25 0C14.9082 0 17.4576 1.05598 19.3373 2.93565C21.217 4.81532 22.2729 7.36469 22.2729 10.0229V14.2638L24.4201 19.6316C24.4878 19.8006 24.5131 19.9836 24.4937 20.1646C24.4743 20.3456 24.4108 20.519 24.3088 20.6698C24.2068 20.8206 24.0694 20.9441 23.9087 21.0295C23.7479 21.1148 23.5686 21.1595 23.3866 21.1595H1.1134C0.931367 21.1595 0.752119 21.1148 0.591348 21.0295C0.430576 20.9441 0.293184 20.8206 0.191198 20.6698C0.0892113 20.519 0.0257405 20.3456 0.00634187 20.1646C-0.0130568 19.9836 0.0122081 19.8006 0.0799247 19.6316L2.22706 14.2638V10.0229Z" fill="#004B2A"/>
<path d="M7.93408 23.3867C8.42632 25.3134 10.1659 26.7277 12.2506 26.7277C14.3354 26.7277 16.0749 25.3134 16.5672 23.3867H7.93408Z" fill="#004B2A"/>
</svg>
