<svg width="18" height="25" viewBox="0 0 18 25" fill="none" xmlns="http://www.w3.org/2000/svg">
<path d="M2.93429 0.544854L4.27032 0.117722C5.5244 -0.282094 6.86167 0.364813 7.39931 1.62883L8.4659 4.14692C8.93029 5.24331 8.67326 6.53339 7.82769 7.33551L5.47598 9.56802C5.62001 10.904 6.06949 12.219 6.82194 13.5128C7.53687 14.7646 8.49574 15.8603 9.64176 16.7349L12.4665 15.7912C13.5381 15.4349 14.704 15.8459 15.3596 16.8106L16.8906 19.0581C17.6542 20.1805 17.5176 21.7276 16.5702 22.6787L15.5546 23.6981C14.5438 24.7126 13.0998 25.0814 11.765 24.6642C8.61242 23.6808 5.71438 20.7616 3.06963 15.9067C0.421167 11.0444 -0.513806 6.91707 0.265959 3.52981C0.593758 2.10438 1.6082 0.968261 2.93429 0.544854Z" fill="white"/>
</svg>
