<svg width="35" height="29" viewBox="0 0 35 29" fill="none" xmlns="http://www.w3.org/2000/svg">
<path d="M28.4922 0C12.819 0 0.0500908 12.8569 0.0500908 28.7509H28.4922V0Z" fill="#FF972F"/>
<path d="M30.2948 23.8914H31.7469C32.3478 23.6889 32.1475 23.1321 32.1976 22.7272C32.5481 22.6766 32.8485 22.7272 33.149 22.626C33.5496 22.5753 33.9001 22.3729 34.1004 22.0186C34.2506 21.7655 34.4008 21.5124 34.501 21.2593V7.69373L34.4509 7.64311C34.2506 6.52952 33.5996 5.82087 32.5982 5.41593C31.797 5.11222 30.8956 5.11222 30.0444 5.01098C29.3934 4.96037 28.7925 4.96037 28.1416 4.90975C28.0915 4.90975 28.0915 4.85913 28.0915 4.85913H24.5863C24.5362 4.85913 24.4862 4.90975 24.4361 4.90975C23.9353 4.96037 23.3845 4.96037 22.8838 5.01098C22.1327 5.0616 21.3816 5.16284 20.6304 5.26407C19.5288 5.41593 18.4773 6.27643 18.2269 7.39002C18.1768 7.59249 18.1267 7.79496 18.0767 8.04805V21.0568L18.1267 21.1074C18.1768 21.8667 18.8278 22.5753 19.5789 22.6766C19.8793 22.7272 20.1297 22.7272 20.4301 22.7778C20.4301 23.2334 20.33 23.7396 20.9309 23.942H22.383C22.9839 23.7396 22.7836 23.1828 22.8337 22.7778H29.794C29.8441 23.1828 29.6939 23.6889 30.2948 23.8914ZM19.2784 13.8185C19.2784 12.7555 19.2784 11.7938 19.2784 10.7814C19.2784 9.87029 19.2784 8.90855 19.3285 7.99743C19.3786 7.28878 20.0296 6.63075 20.7306 6.52952C21.2814 6.42828 21.8322 6.37766 22.383 6.32705C23.2343 6.22581 24.0355 6.17519 24.8867 6.12458C25.9884 6.12458 27.0399 6.12457 28.1416 6.17519C28.6423 6.17519 29.1931 6.22581 29.6939 6.27643C30.445 6.32705 31.1961 6.42828 31.8971 6.52952C32.6482 6.63075 33.2992 7.3394 33.2992 8.14929C33.2992 9.87029 33.2992 11.6419 33.2992 13.3629C33.2992 13.8185 33.2992 13.8185 32.8485 13.8691C32.1475 13.9703 31.4965 14.0209 30.7955 14.1222C30.2447 14.1728 29.6438 14.2234 29.0429 14.274C28.2918 14.3247 27.5907 14.3753 26.8396 14.3753C26.2888 14.3753 25.6879 14.3753 25.1371 14.3247C24.386 14.274 23.5848 14.274 22.8337 14.2234C22.6334 14.2234 22.383 14.1728 22.1827 14.1728C21.5819 14.1222 20.981 14.0209 20.4301 13.9703C20.0796 13.9197 19.7291 13.8691 19.2784 13.8185ZM33.3493 15.0839V15.3876C33.3493 17.1592 33.3493 18.9815 33.3493 20.7531C33.3493 21.2593 33.0488 21.4618 32.5982 21.4618C28.442 21.4618 24.2358 21.4618 20.0796 21.4618C19.5288 21.4618 19.2784 21.2087 19.2784 20.6519V15.3876V15.1345C19.3786 15.1345 19.4787 15.1345 19.5789 15.1345C20.0796 15.1852 20.6304 15.2864 21.1312 15.337C21.9324 15.4382 22.6835 15.4889 23.4847 15.5395C24.1857 15.5901 24.8367 15.6407 25.5377 15.6407C26.1887 15.6407 26.7896 15.6407 27.4405 15.5901C28.5422 15.5395 29.6438 15.4889 30.7454 15.3876C31.3463 15.337 31.9973 15.2358 32.5982 15.1852C32.8485 15.1345 33.0989 15.1345 33.3493 15.0839Z" fill="white"/>
<path d="M22.3827 20.8038C23.0337 20.8544 23.5845 20.247 23.5845 19.589C23.5845 18.9816 23.0337 18.3741 22.3827 18.3741C21.7818 18.3741 21.1809 18.9816 21.1809 19.589C21.1809 20.1964 21.7818 20.8544 22.3827 20.8038Z" fill="white"/>
<path d="M29.6942 20.8038C30.3953 20.8544 30.896 20.247 30.896 19.589C30.896 18.9309 30.245 18.3741 29.6942 18.3741C29.0433 18.3741 28.4924 18.9309 28.4924 19.589C28.4924 20.2976 29.0933 20.8038 29.6942 20.8038Z" fill="white"/>
</svg>
