<svg width="36" height="29" viewBox="0 0 36 29" fill="none" xmlns="http://www.w3.org/2000/svg">
<path d="M35.1895 28.7509C35.1895 12.8917 22.3274 0 6.50475 0V28.7509H35.1895Z" fill="#FF972F"/>
<path d="M0.0493755 6.71293C0.243519 7.394 0.534733 8.02643 1.02009 8.51291C1.50545 9.04803 2.03935 9.58316 2.57324 10.1183C2.91299 10.4588 3.30128 10.7507 3.64103 11.0426C4.36907 11.6264 5.09711 12.2101 5.87368 12.7939C6.65025 13.3777 7.42683 13.9128 8.2034 14.3993C9.65948 15.3723 11.2612 16.1993 12.8628 16.8803C14.0277 17.4155 15.2411 17.9019 16.406 18.3884C16.9399 18.583 17.4738 18.7776 18.0076 18.9722C18.2989 19.0695 18.5415 19.0208 18.7842 18.7776C19.3667 18.2425 19.9491 17.6587 20.483 17.1236C21.1139 16.5398 21.7934 15.9074 22.4244 15.3236C22.57 15.1777 22.6671 14.9831 22.7642 14.8371V14.5452C22.7156 14.4479 22.6671 14.302 22.57 14.2047C22.3273 13.9128 22.0847 13.6696 21.842 13.4263C21.6964 13.2804 21.4537 13.1831 21.3081 13.2317C20.7257 13.2804 20.1432 13.4263 19.6093 13.475C19.1725 13.5236 18.7842 13.7669 18.3474 13.5723C18.1047 13.475 17.8135 13.329 17.5708 13.2317C16.9884 12.9399 16.406 12.6966 15.775 12.4047C15.9691 12.3561 16.0662 12.3074 16.1633 12.2588C16.9884 11.9183 17.8135 11.5777 18.6386 11.1885C19.2696 10.8967 19.9005 10.6534 20.5315 10.3615C21.0654 10.1183 21.1625 9.53451 20.7742 9.14533C20.2403 8.6102 19.7549 8.07507 19.221 7.5886C19.0754 7.44265 18.7842 7.34536 18.5901 7.34536C17.9591 7.34536 17.3281 7.44265 16.6972 7.4913C15.8721 7.53995 15.047 7.63724 14.2218 7.68589C13.5423 7.73454 12.8143 7.78319 12.1348 7.83184C11.7951 7.88048 11.4068 7.92913 11.067 7.92913C10.7758 7.92913 10.4361 7.97778 10.1934 7.83184C9.80509 7.63724 9.46533 7.29671 9.07705 7.05347C7.86365 6.12916 6.50465 5.49674 5.04857 5.1562C4.66028 5.05891 4.272 5.01026 3.88371 4.91296H2.23349C2.03934 4.96161 1.79667 4.96161 1.60253 5.01026C1.02009 5.1562 0.437664 5.30215 0.146448 5.93457V6.71293H0.0493755ZM20.8227 14.7398C20.8227 14.7885 20.8227 14.7885 20.8227 14.7885C20.6286 14.9344 20.483 15.0804 20.2888 15.2263C19.5608 15.9074 18.8813 16.5884 18.1533 17.3182C18.1047 17.3668 17.9106 17.4155 17.862 17.3668C17.2796 17.1236 16.6972 16.929 16.1147 16.6857C15.1926 16.2966 14.2704 15.9074 13.3967 15.5182C12.2319 14.9831 11.1156 14.4479 9.99923 13.7669C8.93144 13.1345 7.91219 12.4047 6.89293 11.675C5.87368 10.9453 4.9515 10.1183 3.98078 9.33992C3.64103 9.09668 3.34982 8.80479 3.0586 8.51291C2.42764 7.92913 1.79667 7.29671 1.55399 6.42105C2.18495 6.32375 2.76739 6.22646 3.34982 6.2751C4.36907 6.3724 5.29125 6.61564 6.21343 7.05347C7.32976 7.53995 8.25194 8.26967 9.22265 8.99938C9.4168 9.14533 9.70801 9.33992 9.95069 9.33992C10.4846 9.38857 11.0185 9.29127 11.5038 9.24262C11.7951 9.24262 12.0863 9.19397 12.329 9.19397C13.2511 9.09668 14.2218 9.04803 15.144 8.95074C15.8235 8.90209 16.503 8.85344 17.1825 8.80479C17.4738 8.80479 17.7164 8.75614 18.0076 8.75614C18.1047 8.75614 18.2503 8.65885 18.2989 8.7075C18.493 8.90209 18.6871 9.09668 18.9298 9.33992C18.7842 9.38857 18.7842 9.38857 18.7357 9.38857C17.134 10.0696 15.4838 10.7994 13.8821 11.4804C13.5423 11.6264 13.2511 12.1128 13.5909 12.5507C13.7365 12.7453 13.9792 12.9399 14.1733 13.0858C15.2411 13.6209 16.3089 14.1561 17.3281 14.6912C18.0076 15.0804 18.7357 15.129 19.5123 14.9344C19.9491 14.8858 20.3859 14.7885 20.8227 14.7398Z" fill="white"/>
<path d="M2.86527 23.2534H19.9014V24.7129H2.86527V23.2534Z" fill="white"/>
<path d="M9.4165 16.881C8.97968 16.6378 8.59139 16.3945 8.10604 16.1513C7.86336 16.6378 7.66921 17.0756 7.42653 17.6107C7.23239 17.4161 7.03825 17.2702 6.94117 17.027C6.8441 16.8324 6.8441 16.5891 6.8441 16.3459C6.8441 16.054 6.94117 15.8108 6.94117 15.5189C6.94117 15.4216 6.89264 15.2756 6.8441 15.227C6.45582 14.9351 6.01899 14.6432 5.58217 14.3513C5.53363 14.5946 5.53363 14.8378 5.4851 15.081C5.43656 15.7621 5.38803 16.4432 5.29096 17.1242C5.24242 17.4161 5.38803 17.6594 5.58217 17.854C6.11606 18.3404 6.60142 18.8269 7.08678 19.362C7.42653 19.7999 8.15457 19.6539 8.34871 19.1188C8.68847 18.3891 9.07675 17.6594 9.4165 16.881Z" fill="white"/>
</svg>
