<svg width="34" height="33" viewBox="0 0 34 33" fill="none" xmlns="http://www.w3.org/2000/svg">
<path d="M33.0498 0C15.0585 0 0.465466 14.593 0.465466 32.5843H33.0498V0Z" fill="#FF972F"/>
<path d="M14.8576 9.84529C17.3065 9.84529 19.3555 7.84625 19.3555 5.34745C19.3555 2.89862 17.3564 0.849609 14.8576 0.849609C12.4088 0.849609 10.3598 2.84865 10.3598 5.34745C10.4098 7.79627 12.4088 9.84529 14.8576 9.84529ZM14.8576 2.19896C16.6068 2.19896 18.0061 3.59829 18.0061 5.34745C18.0061 7.09661 16.6068 8.49593 14.8576 8.49593C13.1085 8.49593 11.7091 7.09661 11.7091 5.34745C11.7091 3.59829 13.1584 2.19896 14.8576 2.19896Z" fill="white"/>
<path d="M15.3589 4.04796C15.3589 4.49774 15.7088 4.89755 16.2085 4.89755C16.6583 4.89755 17.0581 4.54772 17.0581 4.04796C17.0581 3.59817 16.7083 3.19836 16.2085 3.19836C15.7088 3.19836 15.3589 3.59817 15.3589 4.04796Z" fill="white"/>
<path d="M14.8576 19.2404C15.2075 19.2404 15.5073 18.9406 15.5073 18.5908V9.14529C15.5073 8.79546 15.2075 8.49561 14.8576 8.49561C14.5078 8.49561 14.2079 8.79546 14.2079 9.14529V18.5908C14.2079 18.9406 14.5078 19.2404 14.8576 19.2404Z" fill="white"/>
<path d="M14.8589 22.4387C19.4067 22.4387 24.2544 21.0894 24.2544 18.5906C24.2544 16.0918 19.4067 14.7424 14.8589 14.7424C10.3111 14.7424 5.46343 16.0918 5.46343 18.5906C5.46343 21.0894 10.3111 22.4387 14.8589 22.4387ZM14.8589 16.0418C19.7566 16.0418 22.905 17.5411 22.905 18.5906C22.905 19.6401 19.7566 21.1394 14.8589 21.1394C9.96126 21.1394 6.81278 19.6401 6.81278 18.5906C6.81278 17.5411 9.96126 16.0418 14.8589 16.0418Z" fill="white"/>
</svg>
