<svg width="43" height="34" viewBox="0 0 43 34" fill="none" xmlns="http://www.w3.org/2000/svg">
<path d="M10.8192 33.7508C28.0631 33.7508 42.0498 19.6707 42.0498 2.31165H10.8192V33.7508Z" fill="#FF972F"/>
<path d="M6.7951 15.0894C6.7951 15.0894 9.42958 17.1147 12.4473 15.0894C15.4649 13.0642 18.0994 15.0894 18.0994 15.0894C18.0994 15.0894 21.4524 17.838 23.7516 15.0894C23.7516 15.0894 26.2424 12.2445 29.4517 15.4752" stroke="white" stroke-width="1.27782" stroke-miterlimit="10" stroke-linecap="round" stroke-linejoin="round"/>
<path d="M3.29865 21.2135C3.29865 21.2135 6.31633 23.2387 9.76511 21.2135C13.2139 19.1882 16.2316 21.2135 16.2316 21.2135C16.2316 21.2135 20.1115 23.962 22.698 21.2135C22.698 21.2135 25.572 18.3685 29.2124 21.5992" stroke="white" stroke-width="1.27782" stroke-miterlimit="10" stroke-linecap="round" stroke-linejoin="round"/>
<path d="M27.5833 7.23014C27.4875 7.23014 27.3917 7.32658 27.3917 7.42302C27.3917 7.51946 27.4875 7.61589 27.5833 7.61589C27.6791 7.61589 27.7749 7.51946 27.7749 7.42302C27.7749 7.32658 27.6791 7.23014 27.5833 7.23014ZM27.5833 6.26575C28.206 6.26575 28.7329 6.79616 28.7329 7.42302C28.7329 8.04987 28.206 8.58028 27.5833 8.58028C26.9606 8.58028 26.4337 8.04987 26.4337 7.42302C26.4337 6.79616 26.9606 6.26575 27.5833 6.26575Z" fill="white"/>
<path d="M14.6992 9.83372L10.6277 3.32408C7.13106 -2.17294 5.07137 3.80628 5.07137 3.80628C5.07137 3.80628 2.29319 11.7625 0.999895 14.7039" stroke="white" stroke-width="1.27782" stroke-miterlimit="10" stroke-linecap="round" stroke-linejoin="round"/>
<path d="M11.9682 5.10806C12.5909 3.17928 14.3153 1.05762 15.5128 1.05762C17.4288 1.05762 20.8776 6.84396 22.2188 8.62808" stroke="white" stroke-width="1.27782" stroke-miterlimit="10" stroke-linecap="round" stroke-linejoin="round"/>
</svg>
