<svg width="36" height="34" viewBox="0 0 36 34" fill="none" xmlns="http://www.w3.org/2000/svg">
<path d="M9.16408 33.8617C23.4568 33.8617 35.0498 22.2016 35.0498 7.82617H9.16408V33.8617Z" fill="#FF972F"/>
<path d="M8.09244 12.6986C8.09244 15.4938 10.3555 17.7699 13.1346 17.7699C15.9137 17.7699 18.1768 15.4938 18.1768 12.6986C18.1768 9.90334 15.9137 7.62723 13.1346 7.62723C10.3555 7.58729 8.09244 9.86341 8.09244 12.6986Z" fill="white"/>
<path d="M10.5538 12.6979C10.5538 14.1753 11.7448 15.3334 13.1741 15.3334C14.6431 15.3334 15.7944 14.1354 15.7944 12.6979C15.7944 11.2204 14.6034 10.0624 13.1741 10.0624C11.7051 10.0224 10.5538 11.2204 10.5538 12.6979Z" fill="white"/>
<path d="M11.5864 25.3569V20.1658C8.60877 19.5668 6.26636 17.2507 5.63112 14.2559H0.549264" fill="white"/>
<path d="M25.7588 14.2559H20.5975C19.9623 17.2108 17.6596 19.5269 14.7216 20.1658V20.4054V25.3569" fill="white"/>
<path d="M14.7216 0V4.95154C17.6596 5.59045 20.002 8.14608 20.5975 11.141L25.7588 11.101" fill="white"/>
<path d="M0.548136 11.101H5.6697C6.26523 8.14608 8.64735 5.59045 11.625 4.95154V0" fill="white"/>
</svg>
