<svg width="40" height="34" viewBox="0 0 40 34" fill="none" xmlns="http://www.w3.org/2000/svg">
<path d="M10.3372 33.2234C26.1908 33.2234 39.0498 20.3571 39.0498 4.49451H10.3372V33.2234Z" fill="#FF972F"/>
<path d="M13.3755 0C13.3315 0 13.2875 0.0440627 13.2434 0.0440627C11.8783 0.0440627 10.6452 0.440627 9.45619 1.0575C8.31121 1.67438 7.34237 2.46751 6.54969 3.48095C5.88913 4.3622 5.36068 5.28752 5.05241 6.34502C4.87626 6.91784 4.78819 7.53471 4.70011 8.15159C4.65607 8.68034 4.61204 9.2091 4.65607 9.69378C4.70011 10.7072 4.96434 11.7207 5.36068 12.646C5.88913 13.8797 6.68181 14.9372 7.69468 15.8626C8.44332 16.5235 9.28004 17.0522 10.2048 17.4488C10.8654 17.7572 11.57 17.9335 12.3186 18.0657C12.5388 18.1098 12.759 18.1098 12.9792 18.1098C13.0673 18.1098 13.1554 18.1538 13.1994 18.1538H14.2563C14.3444 18.1538 14.4325 18.1098 14.4765 18.1098C14.6967 18.0657 14.9169 18.0657 15.1371 18.0657C15.8417 17.9335 16.5463 17.7572 17.2509 17.4488C18.1757 17.0522 19.0124 16.5235 19.761 15.8626C20.7739 14.9372 21.5225 13.8797 22.095 12.646C22.4914 11.6766 22.7116 10.7072 22.7996 9.69378C22.8437 9.16503 22.7996 8.63628 22.7556 8.15159C22.6675 7.53471 22.5794 6.91784 22.4033 6.34502C22.095 5.28752 21.5666 4.3622 20.906 3.48095C20.1133 2.46751 19.1445 1.63032 17.9995 1.0575C16.8105 0.440627 15.5334 0.0440627 14.2123 0.0440627C13.9921 0.0440627 13.948 0 13.904 0H13.3755ZM13.6398 16.9641C9.28004 17.0082 5.80105 13.395 5.75702 9.29722C5.66894 4.7147 9.28004 1.41 13.1994 1.23375C18.0436 1.01344 21.4345 4.84689 21.5225 8.90066C21.6106 13.395 17.9114 17.0082 13.6398 16.9641Z" fill="white"/>
<path d="M23.1072 0C22.7549 0.132188 22.6228 0.440627 22.6228 0.793128C22.6228 2.42345 22.6228 4.05376 22.6228 5.68408C22.6228 6.34502 22.843 6.91784 23.3274 7.3144C23.5476 7.53471 23.8118 7.6669 24.076 7.79909C24.2962 7.88722 24.2962 7.97534 24.2962 8.15159C24.2962 11.1919 24.2962 14.2763 24.2962 17.3166C24.2962 17.6691 24.3843 17.9776 24.7366 18.1538H25.0449C25.3531 18.0216 25.4853 17.8013 25.4853 17.4488C25.4853 14.3644 25.4853 11.3241 25.4853 8.23972V7.93128C25.9697 7.75503 26.4541 7.53471 26.7183 7.09409C26.8945 6.82971 27.0266 6.52127 27.1587 6.21283V0.352501C27.0266 0.264376 26.8945 0.132188 26.7183 0H26.4981C26.1458 0.132188 26.0137 0.440627 26.0137 0.793128C26.0137 2.37938 26.0137 4.0097 26.0137 5.59596C26.0137 6.03658 25.8376 6.30096 25.4853 6.6094V6.30096C25.4853 4.45033 25.4853 2.64376 25.4853 0.793128C25.4853 0.396564 25.3972 0.132188 25.0008 0H24.7807C24.4283 0.132188 24.2962 0.440627 24.2962 0.793128C24.2962 2.5997 24.2962 4.45033 24.2962 6.2569V6.56534C23.988 6.34502 23.8118 6.08065 23.8118 5.72815C23.8118 4.09783 23.8118 2.51157 23.8118 0.881253C23.8118 0.440627 23.6797 0.132188 23.2834 0H23.1072Z" fill="white"/>
<path d="M0.823776 18.1979C1.17608 18.0216 1.26415 17.7573 1.26415 17.3607C1.26415 15.2897 1.26415 13.2188 1.26415 11.1479V10.8835C1.61645 10.8394 1.92472 10.8394 2.23298 10.7954C2.89355 10.6632 3.51007 9.95816 3.46604 9.25316C3.46604 7.09409 3.422 4.93502 3.46604 2.77595C3.46604 1.54219 2.49721 0.396564 1.35223 0.132188C1.17608 0.0440627 0.999927 0.0440627 0.823776 0H0.559551C0.3834 0.132188 0.251288 0.264376 0.0751371 0.352501V18.1538H0.823776V18.1979ZM1.26415 1.36594C1.88068 1.54219 2.32106 2.2472 2.32106 2.73189C2.32106 4.84689 2.32106 6.9619 2.32106 9.07691C2.32106 9.34128 2.18894 9.51754 1.92472 9.5616C1.70453 9.60566 1.48434 9.60566 1.26415 9.64972V1.36594Z" fill="white"/>
<path d="M13.0675 2.86383C13.0675 3.21633 13.2436 3.43664 13.64 3.43664C14.9171 3.4807 16.1501 3.87727 17.163 4.67039C18.308 5.59571 18.9685 6.74134 19.2328 8.19541C19.2328 8.50385 19.2328 8.81228 19.2328 9.12072C19.2328 9.3851 19.453 9.64947 19.7172 9.69354C19.9374 9.7376 20.2456 9.60541 20.3777 9.3851C20.4218 9.29697 20.4658 9.16479 20.4658 9.07666C20.3777 8.50385 20.3337 7.88697 20.2016 7.31415C19.9814 6.38884 19.541 5.55165 18.9685 4.80258C18.4401 4.09758 17.7795 3.56883 16.9868 3.1282C16.2382 2.68757 15.4455 2.4232 14.5648 2.29101C14.2565 2.24695 13.9042 2.24695 13.5959 2.24695C13.2877 2.29101 13.0675 2.55539 13.0675 2.86383Z" fill="white"/>
<path d="M6.85858 9.42934C6.90262 10.8393 7.343 12.0731 8.17972 13.1747C8.88432 14.1 9.72104 14.805 10.7779 15.2897C11.4385 15.5981 12.0991 15.8184 12.8037 15.8625C13.0679 15.8625 13.3762 15.9066 13.6404 15.9066C13.9927 15.9066 14.2129 15.6422 14.2129 15.3337C14.2129 14.9812 13.9927 14.7609 13.6404 14.7609C12.2752 14.7169 11.0862 14.3203 10.0293 13.439C9.01643 12.6019 8.35587 11.5003 8.09164 10.1784C8.00356 9.82591 8.00356 9.47341 8.00356 9.12091C8.00356 8.76841 7.6953 8.50403 7.38703 8.50403C7.12281 8.54809 6.77051 8.72434 6.81455 9.12091C6.85858 9.20903 6.85858 9.29716 6.85858 9.42934Z" fill="white"/>
</svg>
