<svg width="97" height="75" viewBox="0 0 97 75" fill="none" xmlns="http://www.w3.org/2000/svg">
<path d="M0.323242 2.15558C0.323242 2.01181 0.323242 1.93992 0.323242 1.79614H72.0678V74.3315C32.3854 74.1158 0.323242 41.9098 0.323242 2.15558Z" fill="#008249"/>
<path d="M51.6518 31.1984C51.6518 24.8723 48.0574 19.4088 42.7376 16.8208C44.2473 15.0955 45.1818 12.8669 45.1818 10.4227C45.1818 5.10297 40.8685 0.789673 35.5488 0.789673C30.2291 0.789673 25.9158 5.10297 25.9158 10.4227C25.9158 12.8669 26.8503 15.0955 28.36 16.8208C23.1121 19.4806 19.4458 24.9442 19.4458 31.1984C19.4458 39.6813 26.0595 46.6544 34.3986 47.3014V36.3744L27.066 29.1137C26.6346 28.6823 26.6346 27.8916 27.066 27.4602C27.4973 27.0289 28.2881 27.0289 28.7194 27.4602L34.3267 33.0675V10.7822C34.3267 10.1352 34.8299 9.56005 35.5488 9.56005C36.1958 9.56005 36.7709 10.0633 36.7709 10.7822V33.3551L40.2934 30.4077C40.7966 29.9763 41.5155 30.0482 41.9469 30.5514C42.3782 31.0547 42.3063 31.7735 41.8031 32.2049L36.7709 36.4463V47.2295C45.038 46.6544 51.6518 39.6813 51.6518 31.1984Z" fill="#004C29"/>
<path d="M51.6518 31.1984C51.6518 24.8723 48.0574 19.4088 42.7376 16.8208C44.2473 15.0955 45.1818 12.8669 45.1818 10.4227C45.1818 5.10297 40.8685 0.789673 35.5488 0.789673C30.2291 0.789673 25.9157 5.10297 25.9157 10.4227C25.9157 12.8669 26.8503 15.0955 28.36 16.8208C23.1121 19.4806 19.4458 24.9442 19.4458 31.1984C19.4458 39.6813 26.0595 46.6544 34.3986 47.3014V36.3744L27.066 29.1137C26.6346 28.6823 26.6346 27.8916 27.066 27.4602C27.4973 27.0289 28.2881 27.0289 28.7194 27.4602L34.3267 33.0675V10.7822C34.3267 10.1352 34.8299 9.56005 35.5488 9.56005C36.1958 9.56005 36.7709 10.0633 36.7709 10.7822V33.3551L40.2934 30.4077C40.7966 29.9763 41.5155 30.0482 41.9469 30.5514C42.3782 31.0547 42.3063 31.7735 41.8031 32.2049L36.7709 36.4463V47.2295C45.038 46.6544 51.6518 39.6813 51.6518 31.1984Z" stroke="#004C29" stroke-width="0.539163" stroke-miterlimit="10"/>
<path d="M34.3262 47.3014V58.4441C34.3262 59.0911 34.8294 59.6662 35.5483 59.6662C36.1953 59.6662 36.7704 59.163 36.7704 58.4441V47.3014C36.4109 47.3014 35.9796 47.3733 35.5483 47.3733C35.1169 47.3014 34.7575 47.3014 34.3262 47.3014Z" fill="#004C29"/>
<path d="M34.3262 47.3014V58.4441C34.3262 59.0911 34.8294 59.6662 35.5483 59.6662C36.1953 59.6662 36.7704 59.163 36.7704 58.4441V47.3014C36.4109 47.3014 35.9796 47.3733 35.5483 47.3733C35.1169 47.3014 34.7575 47.3014 34.3262 47.3014Z" stroke="#004C29" stroke-width="0.539163" stroke-miterlimit="10"/>
<path d="M86.0862 54.7059H49.1356C43.8159 54.7059 39.4307 50.3207 39.4307 45.001V44.1383C39.4307 39.7531 42.45 35.943 46.5476 34.7928C45.685 32.9956 45.2536 31.1265 45.2536 29.1136C45.2536 22.7875 49.7107 17.4677 55.7493 16.1737C56.2525 10.0632 61.3566 5.2467 67.6109 5.2467C73.8652 5.2467 78.9692 10.0632 79.4725 16.1737C85.5111 17.4677 89.9682 22.8593 89.9682 29.1136C89.9682 31.0546 89.5368 32.9956 88.6742 34.7928C92.7718 35.943 95.7911 39.7531 95.7911 44.1383V45.001C95.7911 50.3926 91.4059 54.7059 86.0862 54.7059ZM67.6109 7.7628C62.4349 7.7628 58.1935 12.0042 58.1935 17.1802C58.1935 17.8272 57.7622 18.4742 57.1152 18.546C51.7955 19.193 47.7697 23.7939 47.7697 29.1855C47.7697 31.2703 48.4167 33.355 49.5669 35.0804C49.7826 35.4398 49.8545 35.943 49.6388 36.3025C49.4231 36.7338 49.0637 36.9495 48.6324 37.0214C44.8942 37.3089 42.0186 40.472 42.0186 44.2102V45.0728C42.0186 49.0267 45.2536 52.2617 49.2075 52.2617H86.1581C90.1119 52.2617 93.3469 49.0267 93.3469 45.0728V44.2102C93.3469 40.472 90.3995 37.3089 86.7332 37.0214C86.3019 37.0214 85.8705 36.7338 85.7268 36.3025C85.5111 35.8711 85.583 35.4398 85.7986 35.0804C86.9489 33.355 87.5959 31.2703 87.5959 29.1855C87.5959 23.7939 83.5701 19.193 78.2504 18.546C77.6034 18.4742 77.172 17.8991 77.172 17.2521C77.172 17.2521 77.172 17.1802 77.172 17.1083C77.0283 11.9323 72.7868 7.7628 67.6109 7.7628Z" fill="#004C29"/>
<path d="M86.0862 54.7059H49.1356C43.8159 54.7059 39.4307 50.3207 39.4307 45.001V44.1383C39.4307 39.7531 42.45 35.943 46.5476 34.7928C45.685 32.9956 45.2536 31.1265 45.2536 29.1136C45.2536 22.7875 49.7107 17.4677 55.7493 16.1737C56.2525 10.0632 61.3566 5.2467 67.6109 5.2467C73.8652 5.2467 78.9692 10.0632 79.4725 16.1737C85.5111 17.4677 89.9682 22.8593 89.9682 29.1136C89.9682 31.0546 89.5368 32.9956 88.6742 34.7928C92.7718 35.943 95.7911 39.7531 95.7911 44.1383V45.001C95.7911 50.3926 91.4059 54.7059 86.0862 54.7059ZM67.6109 7.7628C62.4349 7.7628 58.1935 12.0042 58.1935 17.1802C58.1935 17.8272 57.7622 18.4742 57.1152 18.546C51.7955 19.193 47.7697 23.7939 47.7697 29.1855C47.7697 31.2703 48.4167 33.355 49.5669 35.0804C49.7826 35.4398 49.8545 35.943 49.6388 36.3025C49.4231 36.7338 49.0637 36.9495 48.6324 37.0214C44.8942 37.3089 42.0186 40.472 42.0186 44.2102V45.0728C42.0186 49.0267 45.2536 52.2617 49.2075 52.2617H86.1581C90.1119 52.2617 93.3469 49.0267 93.3469 45.0728V44.2102C93.3469 40.472 90.3995 37.3089 86.7332 37.0214C86.3019 37.0214 85.8705 36.7338 85.7268 36.3025C85.5111 35.8711 85.583 35.4398 85.7986 35.0804C86.9489 33.355 87.5959 31.2703 87.5959 29.1855C87.5959 23.7939 83.5701 19.193 78.2504 18.546C77.6034 18.4742 77.172 17.8991 77.172 17.2521C77.172 17.2521 77.172 17.1802 77.172 17.1083C77.0283 11.9323 72.7869 7.7628 67.6109 7.7628Z" stroke="#004C29" stroke-width="0.539163" stroke-miterlimit="10"/>
<path d="M67.5385 71.5278C66.8915 71.5278 66.3164 71.0246 66.3164 70.3057V19.3368C66.3164 18.6899 66.8196 18.1147 67.5385 18.1147C68.1855 18.1147 68.7606 18.618 68.7606 19.3368V70.3057C68.7606 70.9527 68.1855 71.5278 67.5385 71.5278Z" fill="#004C29"/>
<path d="M67.5385 71.5278C66.8915 71.5278 66.3164 71.0246 66.3164 70.3057V19.3368C66.3164 18.6899 66.8196 18.1147 67.5385 18.1147C68.1855 18.1147 68.7606 18.618 68.7606 19.3368V70.3057C68.7606 70.9527 68.1855 71.5278 67.5385 71.5278Z" stroke="#004C29" stroke-width="0.539163" stroke-miterlimit="10"/>
<path d="M67.5391 48.3078C67.2515 48.3078 66.964 48.164 66.6764 47.9484L58.8406 40.1125C58.4093 39.6812 58.4093 38.8904 58.8406 38.4591C59.2719 38.0278 60.0627 38.0278 60.494 38.4591L68.3298 46.2949C68.7612 46.7263 68.7612 47.517 68.3298 47.9484C68.1861 48.2359 67.8985 48.3078 67.5391 48.3078Z" fill="#004C29"/>
<path d="M67.5391 48.3078C67.2515 48.3078 66.964 48.164 66.6764 47.9484L58.8406 40.1125C58.4093 39.6812 58.4093 38.8904 58.8406 38.4591C59.2719 38.0278 60.0627 38.0278 60.494 38.4591L68.3298 46.2949C68.7612 46.7263 68.7612 47.517 68.3298 47.9484C68.1861 48.2359 67.8985 48.3078 67.5391 48.3078Z" stroke="#004C29" stroke-width="0.539163" stroke-miterlimit="10"/>
<path d="M67.5387 41.3347C67.2511 41.3347 66.9636 41.1909 66.676 40.9752C66.2447 40.5439 66.2447 39.7531 66.676 39.3218L73.6492 32.2767C74.0805 31.8454 74.8713 31.8454 75.3026 32.2767C75.734 32.7081 75.734 33.4988 75.3026 33.9302L68.3295 40.9752C68.1857 41.1909 67.8981 41.3347 67.5387 41.3347Z" fill="#004C29"/>
<path d="M67.5387 41.3347C67.2511 41.3347 66.9636 41.1909 66.676 40.9752C66.2447 40.5439 66.2447 39.7531 66.676 39.3218L73.6492 32.2767C74.0805 31.8454 74.8713 31.8454 75.3026 32.2767C75.734 32.7081 75.734 33.4988 75.3026 33.9302L68.3295 40.9752C68.1857 41.1909 67.8981 41.3347 67.5387 41.3347Z" stroke="#004C29" stroke-width="0.539163" stroke-miterlimit="10"/>
<path d="M67.5389 34.2896C67.1076 34.2896 66.6763 34.0021 66.4606 33.6426C65.9574 32.9956 62.7224 29.8325 59.8469 27.1008C59.3437 26.6694 59.3437 25.8787 59.775 25.4473C60.2063 24.9441 60.9971 24.9441 61.4284 25.3755C68.6891 32.2767 68.6891 32.4924 68.6891 33.1394C68.761 33.7145 68.2578 34.2896 67.5389 34.2896Z" fill="#004C29"/>
<path d="M67.5389 34.2896C67.1076 34.2896 66.6763 34.0021 66.4606 33.6426C65.9574 32.9956 62.7224 29.8325 59.8469 27.1008C59.3437 26.6694 59.3437 25.8787 59.775 25.4473C60.2063 24.9441 60.9971 24.9441 61.4284 25.3755C68.6891 32.2767 68.6891 32.4924 68.6891 33.1394C68.761 33.7145 68.2578 34.2896 67.5389 34.2896Z" stroke="#004C29" stroke-width="0.539163" stroke-miterlimit="10"/>
</svg>
