<svg width="74" height="79" viewBox="0 0 74 79" fill="none" xmlns="http://www.w3.org/2000/svg">
<path d="M1.89014 1.01826C1.89014 0.874478 1.89014 0.730702 1.89014 0.658813H73.9223V73.4817C34.0961 73.266 1.89014 40.9163 1.89014 1.01826Z" fill="#008249"/>
<path d="M39.2001 30.2768H16.4115C13.8235 30.2768 11.7388 28.192 11.7388 25.604V21.6502C11.7388 19.0622 13.8235 16.9774 16.4115 16.9774H39.272C41.86 16.9774 43.9447 19.0622 43.9447 21.6502V25.604C43.8729 28.1201 41.7881 30.2768 39.2001 30.2768ZM16.4115 19.0622C15.0456 19.0622 13.8954 20.2124 13.8954 21.5783V25.5321C13.8954 26.898 15.0456 28.0482 16.4115 28.0482H39.272C40.6379 28.0482 41.7881 26.898 41.7881 25.5321V21.5783C41.7881 20.2124 40.6379 19.0622 39.272 19.0622H16.4115Z" fill="#004B2A"/>
<path d="M8.93524 45.2296C8.93524 47.53 7.06614 49.3991 4.76572 49.3991C2.46529 49.3991 0.596191 47.53 0.596191 45.2296C0.596191 42.9292 2.46529 41.0601 4.76572 41.0601C7.06614 41.0601 8.93524 42.9292 8.93524 45.2296Z" fill="#004C29"/>
<path d="M8.93524 45.2296C8.93524 47.53 7.06614 49.3991 4.76571 49.3991C2.46529 49.3991 0.596191 47.53 0.596191 45.2296C0.596191 42.9292 2.46529 41.0601 4.76571 41.0601C7.06614 41.0601 8.93524 42.9292 8.93524 45.2296Z" stroke="#004C29" stroke-width="0.539163" stroke-miterlimit="10"/>
<path d="M24.3195 45.2296C24.3195 47.53 22.4504 49.3991 20.15 49.3991C17.8496 49.3991 15.9805 47.53 15.9805 45.2296C15.9805 42.9292 17.8496 41.0601 20.15 41.0601C22.4504 41.0601 24.3195 42.9292 24.3195 45.2296Z" fill="#004C29"/>
<path d="M24.3195 45.2296C24.3195 47.53 22.4504 49.3991 20.15 49.3991C17.8496 49.3991 15.9805 47.53 15.9805 45.2296C15.9805 42.9292 17.8496 41.0601 20.15 41.0601C22.4504 41.0601 24.3195 42.9292 24.3195 45.2296Z" stroke="#004C29" stroke-width="0.539163" stroke-miterlimit="10"/>
<path d="M39.6315 45.2296C39.6315 47.53 37.7624 49.3991 35.462 49.3991C33.1616 49.3991 31.2925 47.53 31.2925 45.2296C31.2925 42.9292 33.1616 41.0601 35.462 41.0601C37.7624 41.0601 39.6315 42.9292 39.6315 45.2296Z" fill="#004C29"/>
<path d="M39.6315 45.2296C39.6315 47.53 37.7624 49.3991 35.462 49.3991C33.1616 49.3991 31.2925 47.53 31.2925 45.2296C31.2925 42.9292 33.1616 41.0601 35.462 41.0601C37.7624 41.0601 39.6315 42.9292 39.6315 45.2296Z" stroke="#004C29" stroke-width="0.539163" stroke-miterlimit="10"/>
<path d="M55.0158 45.2296C55.0158 47.53 53.1467 49.3991 50.8463 49.3991C48.5459 49.3991 46.6768 47.53 46.6768 45.2296C46.6768 42.9292 48.5459 41.0601 50.8463 41.0601C53.1467 41.0601 55.0158 42.9292 55.0158 45.2296Z" fill="#004C29"/>
<path d="M55.0158 45.2296C55.0158 47.53 53.1467 49.3991 50.8463 49.3991C48.5459 49.3991 46.6768 47.53 46.6768 45.2296C46.6768 42.9292 48.5459 41.0601 50.8463 41.0601C53.1467 41.0601 55.0158 42.9292 55.0158 45.2296Z" stroke="#004C29" stroke-width="0.539163" stroke-miterlimit="10"/>
<path d="M9.29461 59.8947C9.29461 62.1952 7.42552 64.0643 5.12509 64.0643C2.82466 64.0643 0.955566 62.1952 0.955566 59.8947C0.955566 57.5943 2.82466 55.7252 5.12509 55.7252C7.42552 55.7252 9.29461 57.5943 9.29461 59.8947Z" fill="#004C29"/>
<path d="M9.29461 59.8947C9.29461 62.1952 7.42552 64.0643 5.12509 64.0643C2.82466 64.0643 0.955566 62.1952 0.955566 59.8947C0.955566 57.5943 2.82466 55.7252 5.12509 55.7252C7.42552 55.7252 9.29461 57.5943 9.29461 59.8947Z" stroke="#004C29" stroke-width="0.539163" stroke-miterlimit="10"/>
<path d="M24.6789 59.8947C24.6789 62.1952 22.8098 64.0643 20.5094 64.0643C18.2089 64.0643 16.3398 62.1952 16.3398 59.8947C16.3398 57.5943 18.2089 55.7252 20.5094 55.7252C22.8098 55.7252 24.6789 57.5943 24.6789 59.8947Z" fill="#004C29"/>
<path d="M24.6789 59.8947C24.6789 62.1952 22.8098 64.0643 20.5094 64.0643C18.2089 64.0643 16.3398 62.1952 16.3398 59.8947C16.3398 57.5943 18.2089 55.7252 20.5094 55.7252C22.8098 55.7252 24.6789 57.5943 24.6789 59.8947Z" stroke="#004C29" stroke-width="0.539163" stroke-miterlimit="10"/>
<path d="M39.9909 59.8947C39.9909 62.1952 38.1218 64.0643 35.8214 64.0643C33.521 64.0643 31.6519 62.1952 31.6519 59.8947C31.6519 57.5943 33.521 55.7252 35.8214 55.7252C38.1218 55.7252 39.9909 57.5943 39.9909 59.8947Z" fill="#004C29"/>
<path d="M39.9909 59.8947C39.9909 62.1952 38.1218 64.0643 35.8214 64.0643C33.521 64.0643 31.6519 62.1952 31.6519 59.8947C31.6519 57.5943 33.521 55.7252 35.8214 55.7252C38.1218 55.7252 39.9909 57.5943 39.9909 59.8947Z" stroke="#004C29" stroke-width="0.539163" stroke-miterlimit="10"/>
<path d="M55.3752 59.8947C55.3752 62.1952 53.5061 64.0643 51.2057 64.0643C48.9052 64.0643 47.0361 62.1952 47.0361 59.8947C47.0361 57.5943 48.9052 55.7252 51.2057 55.7252C53.5061 55.7252 55.3752 57.5943 55.3752 59.8947Z" fill="#004C29"/>
<path d="M55.3752 59.8947C55.3752 62.1952 53.5061 64.0643 51.2057 64.0643C48.9052 64.0643 47.0361 62.1952 47.0361 59.8947C47.0361 57.5943 48.9052 55.7252 51.2057 55.7252C53.5061 55.7252 55.3752 57.5943 55.3752 59.8947Z" stroke="#004C29" stroke-width="0.539163" stroke-miterlimit="10"/>
<path d="M9.65397 74.56C9.65397 76.8605 7.78487 78.7295 5.48445 78.7295C3.18402 78.7295 1.31492 76.8605 1.31492 74.56C1.24304 72.2596 3.18402 70.3905 5.48445 70.3905C7.78487 70.3905 9.65397 72.2596 9.65397 74.56Z" fill="#004C29"/>
<path d="M9.65397 74.56C9.65397 76.8605 7.78487 78.7295 5.48445 78.7295C3.18402 78.7295 1.31492 76.8605 1.31492 74.56C1.24304 72.2596 3.18402 70.3905 5.48445 70.3905C7.78487 70.3905 9.65397 72.2596 9.65397 74.56Z" stroke="#004C29" stroke-width="0.539163" stroke-miterlimit="10"/>
<path d="M25.0383 74.56C25.0383 76.8605 23.1692 78.7295 20.8687 78.7295C18.5683 78.7295 16.6992 76.8605 16.6992 74.56C16.6992 72.2596 18.5683 70.3905 20.8687 70.3905C23.1692 70.3905 25.0383 72.2596 25.0383 74.56Z" fill="#004C29"/>
<path d="M25.0383 74.56C25.0383 76.8605 23.1692 78.7295 20.8687 78.7295C18.5683 78.7295 16.6992 76.8605 16.6992 74.56C16.6992 72.2596 18.5683 70.3905 20.8687 70.3905C23.1692 70.3905 25.0383 72.2596 25.0383 74.56Z" stroke="#004C29" stroke-width="0.539163" stroke-miterlimit="10"/>
<path d="M40.3508 74.56C40.3508 76.8605 38.4817 78.7295 36.1812 78.7295C33.8808 78.7295 32.0117 76.8605 32.0117 74.56C32.0117 72.2596 33.8808 70.3905 36.1812 70.3905C38.4817 70.3905 40.3508 72.2596 40.3508 74.56Z" fill="#004C29"/>
<path d="M40.3508 74.56C40.3508 76.8605 38.4817 78.7295 36.1812 78.7295C33.8808 78.7295 32.0117 76.8605 32.0117 74.56C32.0117 72.2596 33.8808 70.3905 36.1812 70.3905C38.4817 70.3905 40.3508 72.2596 40.3508 74.56Z" stroke="#004C29" stroke-width="0.539163" stroke-miterlimit="10"/>
<path d="M55.7346 74.56C55.7346 76.8605 53.8655 78.7295 51.565 78.7295C49.2646 78.7295 47.3955 76.8605 47.3955 74.56C47.3955 72.2596 49.2646 70.3905 51.565 70.3905C53.8655 70.3905 55.7346 72.2596 55.7346 74.56Z" fill="#004C29"/>
<path d="M55.7346 74.56C55.7346 76.8605 53.8655 78.7295 51.565 78.7295C49.2646 78.7295 47.3955 76.8605 47.3955 74.56C47.3955 72.2596 49.2646 70.3905 51.565 70.3905C53.8655 70.3905 55.7346 72.2596 55.7346 74.56Z" stroke="#004C29" stroke-width="0.539163" stroke-miterlimit="10"/>
</svg>
