<svg width="93" height="72" viewBox="0 0 93 72" fill="none" xmlns="http://www.w3.org/2000/svg">
<path d="M0.601629 67.5739C0.457852 67.5739 0.385964 67.5739 0.242188 67.5739V0.502075H68.0329C67.8891 37.5965 37.7679 67.5739 0.601629 67.5739Z" fill="#008249"/>
<path d="M77.1628 59.5943H32.3764C30.651 59.5943 29.2852 58.2284 29.2852 56.5031V17.6834C29.2852 15.958 30.651 14.5922 32.3764 14.5922H37.8399C39.5652 14.5922 40.9311 15.958 40.9311 17.6834V46.9419C40.9311 47.4451 41.3624 47.8765 41.8656 47.8765H67.6016C68.1049 47.8765 68.5362 47.4451 68.5362 46.9419V17.6834C68.5362 15.958 69.9021 14.5922 71.6274 14.5922H77.0909C78.8162 14.5922 80.1821 15.958 80.1821 17.6834V56.5031C80.254 58.2284 78.8162 59.5943 77.1628 59.5943ZM32.3764 16.7488C31.8731 16.7488 31.4418 17.1801 31.4418 17.6834V56.5031C31.4418 57.0063 31.8731 57.4376 32.3764 57.4376H77.1628C77.666 57.4376 78.0973 57.0063 78.0973 56.5031V17.6834C78.0973 17.1801 77.666 16.7488 77.1628 16.7488H71.6993C71.1961 16.7488 70.7647 17.1801 70.7647 17.6834V46.9419C70.7647 48.6672 69.3988 50.0331 67.6735 50.0331H41.9375C40.2122 50.0331 38.8463 48.6672 38.8463 46.9419V17.6834C38.8463 17.1801 38.415 16.7488 37.9118 16.7488H32.3764Z" fill="#004B2A"/>
<path d="M20.2272 20.4152C18.2862 20.4152 16.6328 18.8336 16.6328 16.8207C16.6328 14.8798 18.2144 13.2263 20.2272 13.2263C22.1682 13.2263 23.8216 14.8079 23.8216 16.8207C23.8216 18.8336 22.2401 20.4152 20.2272 20.4152Z" fill="#004C29"/>
<path d="M20.2272 20.4152C18.2862 20.4152 16.6328 18.8336 16.6328 16.8207C16.6328 14.8798 18.2144 13.2263 20.2272 13.2263C22.1682 13.2263 23.8216 14.8079 23.8216 16.8207C23.8216 18.8336 22.2401 20.4152 20.2272 20.4152Z" stroke="#004C29" stroke-width="0.539163" stroke-miterlimit="10"/>
<path d="M20.2272 33.5707C18.2862 33.5707 16.6328 31.9891 16.6328 29.9763C16.6328 28.0353 18.2144 26.3818 20.2272 26.3818C22.1682 26.3818 23.8216 27.9634 23.8216 29.9763C23.8216 31.9172 22.2401 33.5707 20.2272 33.5707Z" fill="#004C29"/>
<path d="M20.2272 33.5707C18.2862 33.5707 16.6328 31.9891 16.6328 29.9763C16.6328 28.0353 18.2144 26.3818 20.2272 26.3818C22.1682 26.3818 23.8216 27.9634 23.8216 29.9763C23.8216 31.9172 22.2401 33.5707 20.2272 33.5707Z" stroke="#004C29" stroke-width="0.539163" stroke-miterlimit="10"/>
<path d="M20.2272 46.6544C18.2862 46.6544 16.6328 45.0729 16.6328 43.06C16.6328 41.119 18.2144 39.4656 20.2272 39.4656C22.1682 39.4656 23.8216 41.0471 23.8216 43.06C23.8216 45.001 22.2401 46.6544 20.2272 46.6544Z" fill="#004C29"/>
<path d="M20.2272 46.6544C18.2862 46.6544 16.6328 45.0729 16.6328 43.06C16.6328 41.119 18.2144 39.4656 20.2272 39.4656C22.1682 39.4656 23.8216 41.0471 23.8216 43.06C23.8216 45.001 22.2401 46.6544 20.2272 46.6544Z" stroke="#004C29" stroke-width="0.539163" stroke-miterlimit="10"/>
<path d="M20.2272 59.738C18.2862 59.738 16.6328 58.1565 16.6328 56.1436C16.6328 54.2026 18.2144 52.5492 20.2272 52.5492C22.1682 52.5492 23.8216 54.1307 23.8216 56.1436C23.8216 58.1565 22.2401 59.738 20.2272 59.738Z" fill="#004C29"/>
<path d="M20.2272 59.738C18.2862 59.738 16.6328 58.1565 16.6328 56.1436C16.6328 54.2026 18.2144 52.5492 20.2272 52.5492C22.1682 52.5492 23.8216 54.1307 23.8216 56.1436C23.8216 58.1565 22.2401 59.738 20.2272 59.738Z" stroke="#004C29" stroke-width="0.539163" stroke-miterlimit="10"/>
<path d="M88.6652 20.4152C86.7242 20.4152 85.0708 18.8336 85.0708 16.8207C85.0708 14.8798 86.6523 13.2263 88.6652 13.2263C90.6062 13.2263 92.2596 14.8079 92.2596 16.8207C92.2596 18.8336 90.6781 20.4152 88.6652 20.4152Z" fill="#004C29"/>
<path d="M88.6652 20.4152C86.7242 20.4152 85.0708 18.8336 85.0708 16.8207C85.0708 14.8798 86.6523 13.2263 88.6652 13.2263C90.6062 13.2263 92.2596 14.8079 92.2596 16.8207C92.2596 18.8336 90.6781 20.4152 88.6652 20.4152Z" stroke="#004C29" stroke-width="0.539163" stroke-miterlimit="10"/>
<path d="M88.6652 33.5707C86.7242 33.5707 85.0708 31.9891 85.0708 29.9763C85.0708 28.0353 86.6523 26.3818 88.6652 26.3818C90.6062 26.3818 92.2596 27.9634 92.2596 29.9763C92.2596 31.9172 90.6781 33.5707 88.6652 33.5707Z" fill="#004C29"/>
<path d="M88.6652 33.5707C86.7242 33.5707 85.0708 31.9891 85.0708 29.9763C85.0708 28.0353 86.6523 26.3818 88.6652 26.3818C90.6062 26.3818 92.2596 27.9634 92.2596 29.9763C92.2596 31.9172 90.6781 33.5707 88.6652 33.5707Z" stroke="#004C29" stroke-width="0.539163" stroke-miterlimit="10"/>
<path d="M88.6652 46.6544C86.7242 46.6544 85.0708 45.0729 85.0708 43.06C85.0708 41.119 86.6523 39.4656 88.6652 39.4656C90.6062 39.4656 92.2596 41.0471 92.2596 43.06C92.2596 45.001 90.6781 46.6544 88.6652 46.6544Z" fill="#004C29"/>
<path d="M88.6652 46.6544C86.7242 46.6544 85.0708 45.0729 85.0708 43.06C85.0708 41.119 86.6523 39.4656 88.6652 39.4656C90.6062 39.4656 92.2596 41.0471 92.2596 43.06C92.2596 45.001 90.6781 46.6544 88.6652 46.6544Z" stroke="#004C29" stroke-width="0.539163" stroke-miterlimit="10"/>
<path d="M88.6652 59.738C86.7242 59.738 85.0708 58.1565 85.0708 56.1436C85.0708 54.2026 86.6523 52.5492 88.6652 52.5492C90.6062 52.5492 92.2596 54.1307 92.2596 56.1436C92.2596 58.1565 90.6781 59.738 88.6652 59.738Z" fill="#004C29"/>
<path d="M88.6652 59.738C86.7242 59.738 85.0708 58.1565 85.0708 56.1436C85.0708 54.2026 86.6523 52.5492 88.6652 52.5492C90.6062 52.5492 92.2596 54.1307 92.2596 56.1436C92.2596 58.1565 90.6781 59.738 88.6652 59.738Z" stroke="#004C29" stroke-width="0.539163" stroke-miterlimit="10"/>
<path d="M70.8369 68.0771C70.8369 66.1361 72.4185 64.4827 74.4313 64.4827C76.4442 64.4827 78.0257 66.0642 78.0257 68.0771C78.0257 70.0181 76.4442 71.6715 74.4313 71.6715C72.4185 71.6715 70.8369 70.0181 70.8369 68.0771Z" fill="#004C29"/>
<path d="M70.8369 68.0771C70.8369 66.1361 72.4185 64.4827 74.4313 64.4827C76.4442 64.4827 78.0257 66.0642 78.0257 68.0771C78.0257 70.0181 76.4442 71.6715 74.4313 71.6715C72.4185 71.6715 70.8369 70.0181 70.8369 68.0771Z" stroke="#004C29" stroke-width="0.539163" stroke-miterlimit="10"/>
<path d="M57.7529 68.0771C57.7529 66.1361 59.3345 64.4827 61.3473 64.4827C63.3602 64.4827 64.9418 66.0642 64.9418 68.0771C64.9418 70.0181 63.3602 71.6715 61.3473 71.6715C59.3345 71.6715 57.7529 70.0181 57.7529 68.0771Z" fill="#004C29"/>
<path d="M57.7529 68.0771C57.7529 66.1361 59.3345 64.4827 61.3473 64.4827C63.3602 64.4827 64.9418 66.0642 64.9418 68.0771C64.9418 70.0181 63.3602 71.6715 61.3473 71.6715C59.3345 71.6715 57.7529 70.0181 57.7529 68.0771Z" stroke="#004C29" stroke-width="0.539163" stroke-miterlimit="10"/>
<path d="M44.6694 68.0771C44.6694 66.1361 46.251 64.4827 48.2639 64.4827C50.2048 64.4827 51.8583 66.0642 51.8583 68.0771C51.8583 70.0181 50.2767 71.6715 48.2639 71.6715C46.251 71.5996 44.6694 70.0181 44.6694 68.0771Z" fill="#004C29"/>
<path d="M44.6694 68.0771C44.6694 66.1361 46.251 64.4827 48.2639 64.4827C50.2048 64.4827 51.8583 66.0642 51.8583 68.0771C51.8583 70.0181 50.2767 71.6715 48.2639 71.6715C46.251 71.5996 44.6694 70.0181 44.6694 68.0771Z" stroke="#004C29" stroke-width="0.539163" stroke-miterlimit="10"/>
<path d="M31.5859 68.0771C31.5859 66.1361 33.1675 64.4827 35.1804 64.4827C37.1213 64.4827 38.7748 66.0642 38.7748 68.0771C38.7748 70.0181 37.1932 71.6715 35.1804 71.6715C33.1675 71.5996 31.5859 70.0181 31.5859 68.0771Z" fill="#004C29"/>
<path d="M31.5859 68.0771C31.5859 66.1361 33.1675 64.4827 35.1804 64.4827C37.1213 64.4827 38.7748 66.0642 38.7748 68.0771C38.7748 70.0181 37.1932 71.6715 35.1804 71.6715C33.1675 71.5996 31.5859 70.0181 31.5859 68.0771Z" stroke="#004C29" stroke-width="0.539163" stroke-miterlimit="10"/>
</svg>
