<svg width="88" height="91" viewBox="0 0 88 91" fill="none" xmlns="http://www.w3.org/2000/svg">
<path d="M87.2794 17.972C87.4231 17.972 87.5669 17.972 87.6388 17.972V90.0042H14.8159C15.1035 50.2499 47.4532 17.972 87.2794 17.972Z" fill="#008249"/>
<path d="M30.1282 4.16957C30.1282 6.32622 28.4029 8.05154 26.2462 8.05154C24.0896 8.05154 22.3643 6.32622 22.3643 4.16957C22.3643 2.01292 24.0896 0.287598 26.2462 0.287598C28.4029 0.287598 30.1282 2.01292 30.1282 4.16957Z" fill="#004C29"/>
<path d="M30.1282 4.16957C30.1282 6.32622 28.4029 8.05154 26.2462 8.05154C24.0896 8.05154 22.3643 6.32622 22.3643 4.16957C22.3643 2.01292 24.0896 0.287598 26.2462 0.287598C28.4029 0.287598 30.1282 2.01292 30.1282 4.16957Z" stroke="#004C29" stroke-width="0.539163" stroke-miterlimit="10"/>
<path d="M43.7869 4.16957C43.7869 6.32622 42.0616 8.05154 39.9049 8.05154C37.7483 8.05154 36.0229 6.32622 36.0229 4.16957C36.0229 2.01292 37.7483 0.287598 39.9049 0.287598C41.9897 0.287598 43.7869 2.01292 43.7869 4.16957Z" fill="#004C29"/>
<path d="M43.7869 4.16957C43.7869 6.32622 42.0616 8.05154 39.9049 8.05154C37.7483 8.05154 36.0229 6.32622 36.0229 4.16957C36.0229 2.01292 37.7483 0.287598 39.9049 0.287598C41.9897 0.287598 43.7869 2.01292 43.7869 4.16957Z" stroke="#004C29" stroke-width="0.539163" stroke-miterlimit="10"/>
<path d="M44.0743 23.3637H23.3705C20.7825 23.3637 18.6978 21.2789 18.6978 18.6909V15.4559C18.6978 12.868 20.7825 10.7832 23.3705 10.7832H44.0743C46.6623 10.7832 48.7471 12.868 48.7471 15.4559V18.6909C48.7471 21.2789 46.6623 23.3637 44.0743 23.3637ZM23.3705 13.0117C22.0046 13.0117 20.8544 14.162 20.8544 15.5278V18.7628C20.8544 20.1287 22.0046 21.2789 23.3705 21.2789H44.0743C45.4402 21.2789 46.5904 20.1287 46.5904 18.7628V15.5278C46.5904 14.162 45.4402 13.0117 44.0743 13.0117H23.3705Z" fill="#004B2A"/>
<path d="M12.5877 48.9559C12.5877 51.1126 10.8624 52.8379 8.7057 52.8379C6.54905 52.8379 4.82373 51.1126 4.82373 48.9559C4.82373 46.7993 6.54905 45.074 8.7057 45.074C10.8624 45.074 12.5877 46.7993 12.5877 48.9559Z" fill="#004C29"/>
<path d="M12.5877 48.9559C12.5877 51.1126 10.8624 52.8379 8.7057 52.8379C6.54905 52.8379 4.82373 51.1126 4.82373 48.9559C4.82373 46.7993 6.54905 45.074 8.7057 45.074C10.8624 45.074 12.5877 46.7993 12.5877 48.9559Z" stroke="#004C29" stroke-width="0.539163" stroke-miterlimit="10"/>
<path d="M26.2464 48.9559C26.2464 51.1126 24.521 52.8379 22.3644 52.8379C20.2077 52.8379 18.4824 51.1126 18.4824 48.9559C18.4824 46.7993 20.2077 45.074 22.3644 45.074C24.521 45.074 26.2464 46.7993 26.2464 48.9559Z" fill="#004C29"/>
<path d="M26.2464 48.9559C26.2464 51.1126 24.521 52.8379 22.3644 52.8379C20.2077 52.8379 18.4824 51.1126 18.4824 48.9559C18.4824 46.7993 20.2077 45.074 22.3644 45.074C24.521 45.074 26.2464 46.7993 26.2464 48.9559Z" stroke="#004C29" stroke-width="0.539163" stroke-miterlimit="10"/>
<path d="M25.8868 42.8455H5.183C2.59502 42.8455 0.510254 40.7607 0.510254 38.1727V34.9378C0.510254 32.3498 2.59502 30.265 5.183 30.265H25.8868C28.4748 30.265 30.5596 32.3498 30.5596 34.9378V38.1727C30.5596 40.7607 28.4748 42.8455 25.8868 42.8455ZM5.183 32.4936C3.81712 32.4936 2.6669 33.6438 2.6669 35.0096V38.2446C2.6669 39.6105 3.81712 40.7607 5.183 40.7607H25.8868C27.2527 40.7607 28.4029 39.6105 28.4029 38.2446V35.0096C28.4029 33.6438 27.2527 32.4936 25.8868 32.4936H5.183Z" fill="#004B2A"/>
<path d="M46.3753 48.9559C46.3753 51.1126 44.6499 52.8379 42.4933 52.8379C40.3366 52.8379 38.6113 51.1126 38.6113 48.9559C38.6113 46.7993 40.3366 45.074 42.4933 45.074C44.6499 45.074 46.3753 46.7993 46.3753 48.9559Z" fill="#004C29"/>
<path d="M46.3753 48.9559C46.3753 51.1126 44.6499 52.8379 42.4933 52.8379C40.3366 52.8379 38.6113 51.1126 38.6113 48.9559C38.6113 46.7993 40.3366 45.074 42.4933 45.074C44.6499 45.074 46.3753 46.7993 46.3753 48.9559Z" stroke="#004C29" stroke-width="0.539163" stroke-miterlimit="10"/>
<path d="M59.9617 48.9559C59.9617 51.1126 58.2364 52.8379 56.0797 52.8379C53.9231 52.8379 52.1978 51.1126 52.1978 48.9559C52.1978 46.7993 53.9231 45.074 56.0797 45.074C58.2364 45.074 59.9617 46.7993 59.9617 48.9559Z" fill="#004C29"/>
<path d="M59.9617 48.9559C59.9617 51.1126 58.2364 52.8379 56.0797 52.8379C53.9231 52.8379 52.1978 51.1126 52.1978 48.9559C52.1978 46.7993 53.9231 45.074 56.0797 45.074C58.2364 45.074 59.9617 46.7993 59.9617 48.9559Z" stroke="#004C29" stroke-width="0.539163" stroke-miterlimit="10"/>
<path d="M59.6745 42.8455H38.8988C36.3108 42.8455 34.2261 40.7607 34.2261 38.1727V34.9378C34.2261 32.3498 36.3108 30.265 38.8988 30.265H59.6027C62.1906 30.265 64.2754 32.3498 64.2754 34.9378V38.1727C64.2754 40.7607 62.1906 42.8455 59.6745 42.8455ZM38.8988 32.4936C37.5329 32.4936 36.3827 33.6438 36.3827 35.0096V38.2446C36.3827 39.6105 37.5329 40.7607 38.8988 40.7607H59.6027C60.9685 40.7607 62.1187 39.6105 62.1187 38.2446V35.0096C62.1187 33.6438 60.9685 32.4936 59.6027 32.4936H38.8988Z" fill="#004B2A"/>
<path d="M12.5877 74.2606C12.5877 76.4173 10.8624 78.1426 8.7057 78.1426C6.54905 78.1426 4.82373 76.4173 4.82373 74.2606C4.82373 72.104 6.54905 70.3787 8.7057 70.3787C10.8624 70.3787 12.5877 72.104 12.5877 74.2606Z" fill="#004C29"/>
<path d="M12.5877 74.2606C12.5877 76.4173 10.8624 78.1426 8.7057 78.1426C6.54905 78.1426 4.82373 76.4173 4.82373 74.2606C4.82373 72.104 6.54905 70.3787 8.7057 70.3787C10.8624 70.3787 12.5877 72.104 12.5877 74.2606Z" stroke="#004C29" stroke-width="0.539163" stroke-miterlimit="10"/>
<path d="M26.2464 74.2606C26.2464 76.4173 24.521 78.1426 22.3644 78.1426C20.2077 78.1426 18.4824 76.4173 18.4824 74.2606C18.4824 72.104 20.2077 70.3787 22.3644 70.3787C24.521 70.3787 26.2464 72.104 26.2464 74.2606Z" fill="#004C29"/>
<path d="M26.2464 74.2606C26.2464 76.4173 24.521 78.1426 22.3644 78.1426C20.2077 78.1426 18.4824 76.4173 18.4824 74.2606C18.4824 72.104 20.2077 70.3787 22.3644 70.3787C24.521 70.3787 26.2464 72.104 26.2464 74.2606Z" stroke="#004C29" stroke-width="0.539163" stroke-miterlimit="10"/>
<path d="M25.8868 68.2221H5.183C2.59502 68.2221 0.510254 66.1373 0.510254 63.5493V60.3143C0.510254 57.7264 2.59502 55.6416 5.183 55.6416H25.8868C28.4748 55.6416 30.5596 57.7264 30.5596 60.3143V63.5493C30.5596 66.1373 28.4748 68.2221 25.8868 68.2221ZM5.183 57.7983C3.81712 57.7983 2.6669 58.9485 2.6669 60.3143V63.5493C2.6669 64.9152 3.81712 66.0654 5.183 66.0654H25.8868C27.2527 66.0654 28.4029 64.9152 28.4029 63.5493V60.3143C28.4029 58.9485 27.2527 57.7983 25.8868 57.7983H5.183Z" fill="#004B2A"/>
<path d="M46.3753 74.2606C46.3753 76.4173 44.6499 78.1426 42.4933 78.1426C40.3366 78.1426 38.6113 76.4173 38.6113 74.2606C38.6113 72.104 40.3366 70.3787 42.4933 70.3787C44.6499 70.3787 46.3753 72.104 46.3753 74.2606Z" fill="#004C29"/>
<path d="M46.3753 74.2606C46.3753 76.4173 44.6499 78.1426 42.4933 78.1426C40.3366 78.1426 38.6113 76.4173 38.6113 74.2606C38.6113 72.104 40.3366 70.3787 42.4933 70.3787C44.6499 70.3787 46.3753 72.104 46.3753 74.2606Z" stroke="#004C29" stroke-width="0.539163" stroke-miterlimit="10"/>
<path d="M59.9617 74.2606C59.9617 76.4173 58.2364 78.1426 56.0797 78.1426C53.9231 78.1426 52.1978 76.4173 52.1978 74.2606C52.1978 72.104 53.9231 70.3787 56.0797 70.3787C58.2364 70.3787 59.9617 72.104 59.9617 74.2606Z" fill="#004C29"/>
<path d="M59.9617 74.2606C59.9617 76.4173 58.2364 78.1426 56.0797 78.1426C53.9231 78.1426 52.1978 76.4173 52.1978 74.2606C52.1978 72.104 53.9231 70.3787 56.0797 70.3787C58.2364 70.3787 59.9617 72.104 59.9617 74.2606Z" stroke="#004C29" stroke-width="0.539163" stroke-miterlimit="10"/>
<path d="M59.6745 68.2221H38.8988C36.3108 68.2221 34.2261 66.1373 34.2261 63.5493V60.3143C34.2261 57.7264 36.3108 55.6416 38.8988 55.6416H59.6027C62.1906 55.6416 64.2754 57.7264 64.2754 60.3143V63.5493C64.2754 66.1373 62.1906 68.2221 59.6745 68.2221ZM38.8988 57.7983C37.5329 57.7983 36.3827 58.9485 36.3827 60.3143V63.5493C36.3827 64.9152 37.5329 66.0654 38.8988 66.0654H59.6027C60.9685 66.0654 62.1187 64.9152 62.1187 63.5493V60.3143C62.1187 58.9485 60.9685 57.7983 59.6027 57.7983H38.8988Z" fill="#004B2A"/>
</svg>
