<svg width="88" height="74" viewBox="0 0 88 74" fill="none" xmlns="http://www.w3.org/2000/svg">
<path d="M0.596746 73.031C0.45297 73.031 0.309193 73.031 0.237305 73.031V0.783203H73.2759C73.0602 40.7531 40.6386 73.031 0.596746 73.031Z" fill="#008249"/>
<path d="M29.5677 21.7026C29.5677 24.2906 27.4829 26.3754 24.8949 26.3754C22.3069 26.3754 20.2222 24.2906 20.2222 21.7026C20.2222 19.1147 22.3069 17.0299 24.8949 17.0299C27.5548 17.0299 29.5677 19.1147 29.5677 21.7026Z" fill="#004C29"/>
<path d="M29.5677 21.7026C29.5677 24.2906 27.4829 26.3754 24.8949 26.3754C22.3069 26.3754 20.2222 24.2906 20.2222 21.7026C20.2222 19.1147 22.3069 17.0299 24.8949 17.0299C27.5548 17.0299 29.5677 19.1147 29.5677 21.7026Z" stroke="#004C29" stroke-width="0.539163" stroke-miterlimit="10"/>
<path d="M38.9134 40.2499C38.9134 42.8379 36.8286 44.9226 34.2406 44.9226C31.6526 44.9226 29.5679 42.8379 29.5679 40.2499C29.5679 37.6619 31.6526 35.5771 34.2406 35.5771C36.8286 35.649 38.9134 37.7338 38.9134 40.2499Z" fill="#004C29"/>
<path d="M38.9134 40.2499C38.9134 42.8379 36.8286 44.9226 34.2406 44.9226C31.6526 44.9226 29.5679 42.8379 29.5679 40.2499C29.5679 37.6619 31.6526 35.5771 34.2406 35.5771C36.8286 35.649 38.9134 37.7338 38.9134 40.2499Z" stroke="#004C29" stroke-width="0.539163" stroke-miterlimit="10"/>
<path d="M28.0584 59.6598C28.0584 62.2478 25.9736 64.3325 23.3856 64.3325C20.7977 64.3325 18.7129 62.2478 18.7129 59.6598C18.7129 57.0718 20.7977 54.9871 23.3856 54.9871C25.9736 54.9871 28.0584 57.0718 28.0584 59.6598Z" fill="#004C29"/>
<path d="M27.4023 62.1175C28.7589 59.9221 28.079 57.0426 25.8836 55.6859C23.6882 54.3293 20.8087 55.0092 19.4521 57.2046C18.0954 59.4 18.7753 62.2795 20.9707 63.6361C23.1661 64.9928 26.0456 64.3129 27.4023 62.1175Z" stroke="#004C29" stroke-width="0.539163" stroke-miterlimit="10"/>
<path d="M52.7879 21.7026C52.7879 24.2906 50.7031 26.3754 48.1151 26.3754C45.5271 26.3754 43.4424 24.2906 43.4424 21.7026C43.4424 19.1147 45.5271 17.0299 48.1151 17.0299C50.7031 17.0299 52.7879 19.1147 52.7879 21.7026Z" fill="#004C29"/>
<path d="M52.7879 21.7026C52.7879 24.2906 50.7031 26.3754 48.1151 26.3754C45.5271 26.3754 43.4424 24.2906 43.4424 21.7026C43.4424 19.1147 45.5271 17.0299 48.1151 17.0299C50.7031 17.0299 52.7879 19.1147 52.7879 21.7026Z" stroke="#004C29" stroke-width="0.539163" stroke-miterlimit="10"/>
<path d="M62.1336 39.531C62.1336 42.119 60.0488 44.2038 57.4608 44.2038C54.8728 44.2038 52.7881 42.119 52.7881 39.531C52.7881 36.943 54.8728 34.8583 57.4608 34.8583C60.0488 34.8583 62.1336 36.943 62.1336 39.531Z" fill="#004C29"/>
<path d="M62.1336 39.531C62.1336 42.119 60.0488 44.2038 57.4608 44.2038C54.8728 44.2038 52.7881 42.119 52.7881 39.531C52.7881 36.943 54.8728 34.8583 57.4608 34.8583C60.0488 34.8583 62.1336 36.943 62.1336 39.531Z" stroke="#004C29" stroke-width="0.539163" stroke-miterlimit="10"/>
<path d="M76.0076 21.7026C76.0076 24.2906 73.9228 26.3754 71.3349 26.3754C68.7469 26.3754 66.6621 24.2906 66.6621 21.7026C66.6621 19.1147 68.7469 17.0299 71.3349 17.0299C73.9228 17.0299 76.0076 19.1147 76.0076 21.7026Z" fill="#004C29"/>
<path d="M76.0076 21.7026C76.0076 24.2906 73.9228 26.3754 71.3349 26.3754C68.7469 26.3754 66.6621 24.2906 66.6621 21.7026C66.6621 19.1147 68.7469 17.0299 71.3349 17.0299C73.9228 17.0299 76.0076 19.1147 76.0076 21.7026Z" stroke="#004C29" stroke-width="0.539163" stroke-miterlimit="10"/>
<path d="M86.8631 37.9495C86.8631 40.5375 84.7783 42.6222 82.1903 42.6222C79.6023 42.6222 77.5176 40.5375 77.5176 37.9495C77.5176 35.3615 79.6023 33.2767 82.1903 33.2767C84.7783 33.2767 86.8631 35.3615 86.8631 37.9495Z" fill="#004C29"/>
<path d="M86.8631 37.9495C86.8631 40.5375 84.7783 42.6222 82.1903 42.6222C79.6023 42.6222 77.5176 40.5375 77.5176 37.9495C77.5176 35.3615 79.6023 33.2767 82.1903 33.2767C84.7783 33.2767 86.8631 35.3615 86.8631 37.9495Z" stroke="#004C29" stroke-width="0.539163" stroke-miterlimit="10"/>
<path d="M77.5891 58.0783C77.5891 60.6662 75.5044 62.751 72.9164 62.751C70.3284 62.751 68.2437 60.6662 68.2437 58.0783C68.2437 55.4903 70.3284 53.4055 72.9164 53.4055C75.5044 53.4055 77.5891 55.4903 77.5891 58.0783Z" fill="#004C29"/>
<path d="M77.5891 58.0783C77.5891 60.6662 75.5044 62.751 72.9164 62.751C70.3284 62.751 68.2437 60.6662 68.2437 58.0783C68.2437 55.4903 70.3284 53.4055 72.9164 53.4055C75.5044 53.4055 77.5891 55.4903 77.5891 58.0783Z" stroke="#004C29" stroke-width="0.539163" stroke-miterlimit="10"/>
<path d="M51.2781 59.6598C51.2781 62.2478 49.1933 64.3325 46.6054 64.3325C44.0174 64.3325 41.9326 62.2478 41.9326 59.6598C41.9326 57.0718 44.0174 54.9871 46.6054 54.9871C49.1933 54.9871 51.2781 57.0718 51.2781 59.6598Z" fill="#004C29"/>
<path d="M48.4098 63.9828C50.7941 62.9951 51.9263 60.2616 50.9387 57.8773C49.951 55.4931 47.2176 54.3608 44.8333 55.3485C42.449 56.3361 41.3167 59.0696 42.3044 61.4539C43.292 63.8382 46.0255 64.9704 48.4098 63.9828Z" stroke="#004C29" stroke-width="0.539163" stroke-miterlimit="10"/>
</svg>
