<svg width="74" height="79" viewBox="0 0 74 79" fill="none" xmlns="http://www.w3.org/2000/svg">
<path d="M0 24.0703C0 53.8911 24.124 78.0742 53.872 78.0742V24.0703H0Z" fill="#FF972F"/>
<path d="M50.394 25.2569C50.32 25.2569 50.172 25.2569 50.098 25.1827L33.078 17.9871C32.708 17.8388 32.486 17.3195 32.634 16.9486C32.782 16.5777 33.3 16.3551 33.67 16.5035L50.69 23.6991C51.06 23.8474 51.282 24.3667 51.134 24.7376C50.986 25.1085 50.69 25.2569 50.394 25.2569Z" fill="white"/>
<path d="M33.3741 37.8678C32.9301 37.8678 32.5601 37.4969 32.5601 37.0518V25.9246C32.5601 25.4795 32.9301 25.1086 33.3741 25.1086C33.8181 25.1086 34.1881 25.4795 34.1881 25.9246V37.0518C34.1881 37.4969 33.8181 37.8678 33.3741 37.8678Z" fill="white"/>
<path d="M50.3941 38.7582C49.9501 38.7582 49.5801 38.3873 49.5801 37.9422V24.4413C49.5801 24.1445 49.8021 23.8478 50.0981 23.6994L67.1181 16.5039C67.4881 16.3555 68.0061 16.5039 68.1541 16.949C68.3021 17.3199 68.1541 17.8391 67.7101 17.9875L51.2081 24.9605V37.9422C51.2081 38.3873 50.8381 38.7582 50.3941 38.7582Z" fill="white"/>
<path d="M67.414 18.0618C67.34 18.0618 67.192 18.0618 67.118 17.9876L50.098 10.7921C49.728 10.6437 49.506 10.1244 49.654 9.75352C49.802 9.38262 50.32 9.16007 50.69 9.30843L67.71 16.504C68.08 16.6524 68.302 17.1716 68.154 17.5425C68.006 17.8393 67.71 18.0618 67.414 18.0618Z" fill="white"/>
<path d="M33.3739 18.0614C33.0779 18.0614 32.7819 17.9131 32.6339 17.5422C32.4859 17.1713 32.6339 16.652 33.0779 16.5036L50.0979 9.30808C50.5419 9.15971 50.9859 9.30808 51.1339 9.75316C51.2819 10.1241 51.1339 10.6433 50.6899 10.7917L33.6699 17.9873C33.5959 18.0614 33.5219 18.0614 33.3739 18.0614Z" fill="white"/>
<path d="M45.7322 31.1172L28.7122 23.9217L33.3742 17.2454L50.3942 24.4409L45.7322 31.1172Z" fill="white"/>
<path d="M45.7319 31.9337C45.6579 31.9337 45.5099 31.9337 45.4359 31.8595L28.4159 24.6639C28.1939 24.5897 28.0459 24.3672 27.9719 24.1447C27.8979 23.9221 27.9719 23.6996 28.1199 23.477L32.7819 16.8007C33.0039 16.504 33.3739 16.3556 33.7439 16.504L50.7639 23.6996C50.9859 23.7738 51.1339 23.9963 51.2079 24.2188C51.2819 24.4414 51.2079 24.6639 51.0599 24.8865L46.3979 31.5628C46.2499 31.7853 45.9539 31.9337 45.7319 31.9337ZM29.9699 23.5512L45.4359 30.0791L49.1359 24.7381L33.6699 18.2102L29.9699 23.5512Z" fill="white"/>
<path d="M50.394 24.4409L55.056 31.1172L72.076 23.9217L67.414 17.2454" fill="white"/>
<path d="M55.0559 31.9333C54.8339 31.9333 54.5379 31.785 54.3899 31.5624L49.7279 24.8861C49.5059 24.5152 49.5799 23.996 49.9499 23.7734C50.3199 23.5509 50.8379 23.6251 51.0599 23.996L55.3519 30.153L70.8179 23.6251L66.7479 17.7648C66.5259 17.3938 66.5999 16.8746 66.9699 16.652C67.3399 16.4295 67.8579 16.5037 68.0799 16.8746L72.7419 23.5509C72.8899 23.7734 72.8899 23.996 72.8899 24.2185C72.8159 24.4411 72.6679 24.6636 72.4459 24.7378L55.4259 31.9333C55.2779 31.9333 55.2039 31.9333 55.0559 31.9333Z" fill="white"/>
<path d="M14.948 51.072L20.128 45.8052L33.078 58.861L27.898 64.1279L14.948 51.072Z" fill="white"/>
<path d="M27.8979 64.7218C27.7499 64.7218 27.6019 64.6476 27.4539 64.5734L14.5039 51.4434C14.2819 51.2208 14.2819 50.8499 14.5039 50.6274L19.6839 45.3605C19.9059 45.138 20.2759 45.138 20.4979 45.3605L33.4479 58.4164C33.6699 58.6389 33.6699 59.0098 33.4479 59.2324L28.2679 64.4992C28.1939 64.6476 28.0459 64.7218 27.8979 64.7218ZM15.7619 51.0725L27.8979 63.3123L32.2639 58.9357L20.1279 46.6216L15.7619 51.0725Z" fill="white"/>
<path d="M31.746 58.3419C31.524 58.3419 31.302 58.2677 31.154 58.1193L20.794 47.6598C20.498 47.363 20.498 46.8438 20.794 46.5471L30.71 36.5326C30.858 36.3842 31.08 36.3101 31.302 36.3101H48.47C50.246 36.3101 51.726 37.7937 51.726 39.574V40.8351C51.726 41.4286 51.578 42.022 51.282 42.5413H57.276C57.72 42.5413 58.164 42.3929 58.46 42.022L67.044 33.3428C68.228 32.1559 70.448 32.1559 71.632 33.3428L73.038 34.8264C73.63 35.4199 74 36.2359 74 37.126C74 38.0162 73.63 38.8322 73.038 39.4257L59.57 52.9266C58.978 53.5201 58.164 53.891 57.276 53.891H35.446L32.412 57.9709C32.264 58.1935 32.042 58.3419 31.746 58.3419C31.82 58.3419 31.82 58.3419 31.746 58.3419ZM22.57 47.0663L31.672 56.2648L34.41 52.5557C34.558 52.3332 34.78 52.259 35.076 52.259H57.35C57.794 52.259 58.238 52.1106 58.534 51.7397L72.002 38.1646C72.298 37.8679 72.52 37.4228 72.52 36.9777C72.52 36.5326 72.372 36.0875 72.002 35.7908L70.522 34.3072C69.93 33.7137 68.82 33.7137 68.228 34.3072L59.57 43.0605C58.978 43.654 58.164 44.0249 57.276 44.0249H48.544C48.1 44.0249 47.73 43.654 47.73 43.2089C47.73 42.7638 48.1 42.3929 48.544 42.3929C49.432 42.3929 50.172 41.6511 50.172 40.6867V39.4257C50.172 38.5355 49.432 37.7195 48.544 37.7195H31.746L22.57 47.0663Z" fill="white"/>
<path d="M48.5441 44.0253H40.4041C39.9601 44.0253 39.5901 43.6544 39.5901 43.2093C39.5901 42.7642 39.9601 42.3933 40.4041 42.3933H48.5441C48.9881 42.3933 49.3581 42.7642 49.3581 43.2093C49.2841 43.6544 48.9881 44.0253 48.5441 44.0253Z" fill="white"/>
<path d="M51.6521 14.1303C51.5041 13.982 51.2081 13.982 50.9861 14.1303L50.0981 15.0205C49.9501 15.1688 49.9501 15.4656 50.0981 15.6881C50.2461 15.8365 50.5421 15.8365 50.7641 15.6881L51.6521 14.7979C51.8001 14.5754 51.8001 14.2787 51.6521 14.1303Z" fill="white"/>
<path d="M49.2099 16.578C49.0619 16.4296 48.7659 16.3554 48.5439 16.578L47.6559 17.4681C47.5079 17.6165 47.5079 17.9874 47.6559 18.1358C47.8039 18.2841 48.0999 18.2841 48.3219 18.1358L49.2099 17.2456C49.4319 17.023 49.4319 16.7263 49.2099 16.578Z" fill="white"/>
<path d="M51.6521 17.4681L50.7641 16.578C50.6161 16.4296 50.3201 16.3554 50.0981 16.578C49.9501 16.7263 49.9501 17.023 50.0981 17.2456L50.9861 18.1358C51.1341 18.2841 51.4301 18.2841 51.6521 18.1358C51.8001 17.9132 51.8001 17.6165 51.6521 17.4681Z" fill="white"/>
<path d="M49.2099 15.0205L48.3219 14.1303C48.1739 13.982 47.8779 13.982 47.6559 14.1303C47.5079 14.2787 47.5079 14.5754 47.6559 14.7979L48.5439 15.6881C48.6919 15.8365 48.9879 15.8365 49.2099 15.6881C49.4319 15.5398 49.4319 15.243 49.2099 15.0205Z" fill="white"/>
<path d="M45.7319 5.15424C45.5839 5.00588 45.4359 5.00588 45.3619 5.15424L44.8439 5.67351C44.6959 5.82187 44.6959 5.97023 44.8439 6.1186C44.9179 6.26696 45.1399 6.26696 45.2139 6.1186L45.7319 5.59933C45.8799 5.45096 45.8799 5.3026 45.7319 5.15424Z" fill="white"/>
<path d="M44.2519 6.63788C44.1039 6.48952 43.9559 6.48952 43.8819 6.63788L43.3639 7.15715C43.2159 7.30551 43.2159 7.45388 43.3639 7.60224C43.5119 7.7506 43.6599 7.7506 43.7339 7.60224L44.2519 7.08297C44.3999 6.93461 44.3999 6.78625 44.2519 6.63788Z" fill="white"/>
<path d="M45.7319 7.23137L45.2139 6.7121C45.0659 6.56374 44.9179 6.56374 44.8439 6.7121C44.6959 6.86046 44.6959 7.00883 44.8439 7.15719L45.3619 7.67646C45.5099 7.82482 45.6579 7.82482 45.7319 7.67646C45.8799 7.52809 45.8799 7.30555 45.7319 7.23137Z" fill="white"/>
<path d="M44.2519 5.74773L43.7339 5.22846C43.5859 5.0801 43.4379 5.0801 43.3639 5.22846C43.2159 5.37682 43.2159 5.52518 43.3639 5.67355L43.8819 6.19281C44.0299 6.34118 44.1779 6.34118 44.2519 6.19281C44.3999 6.04445 44.3999 5.82191 44.2519 5.74773Z" fill="white"/>
<path d="M57.498 3.07706C57.72 3.29961 58.09 3.29961 58.312 3.07706L59.422 1.96434C59.644 1.7418 59.644 1.3709 59.422 1.14835C59.2 0.925809 58.83 0.925809 58.608 1.14835L57.498 2.26107C57.276 2.48361 57.276 2.85452 57.498 3.07706Z" fill="white"/>
<path d="M54.5381 6.04435C54.7601 6.26689 55.1301 6.26689 55.3521 6.04435L56.4621 4.93163C56.6841 4.70909 56.6841 4.33818 56.4621 4.11564C56.2401 3.89309 55.8701 3.89309 55.6481 4.11564L54.5381 5.22835C54.3161 5.4509 54.3161 5.8218 54.5381 6.04435Z" fill="white"/>
<path d="M57.498 4.93163L58.608 6.04435C58.83 6.26689 59.2 6.26689 59.422 6.04435C59.644 5.8218 59.644 5.4509 59.422 5.22835L58.312 4.11564C58.09 3.89309 57.72 3.89309 57.498 4.11564C57.276 4.33818 57.276 4.70909 57.498 4.93163Z" fill="white"/>
<path d="M54.5381 1.96434L55.6481 3.07706C55.8701 3.29961 56.2401 3.29961 56.4621 3.07706C56.6841 2.85452 56.6841 2.48361 56.4621 2.26107L55.3521 1.14835C55.1301 0.925809 54.7601 0.925809 54.5381 1.14835C54.3161 1.3709 54.3161 1.7418 54.5381 1.96434Z" fill="white"/>
</svg>
