<svg width="56" height="49" viewBox="0 0 56 49" fill="none" xmlns="http://www.w3.org/2000/svg">
<path d="M0.5 44.9836C25.4831 44.9836 45.7429 24.8398 45.7429 0H0.5V44.9836Z" fill="#FF972F"/>
<path d="M12.1216 40.2875C12.1216 41.894 10.8165 43.1916 9.20069 43.1916C7.58487 43.1916 6.27979 41.894 6.27979 40.2875C6.27979 38.6809 7.58487 37.3833 9.20069 37.3833C10.8165 37.3833 12.1216 38.6809 12.1216 40.2875Z" fill="white"/>
<path d="M9.26277 44.613C6.83904 44.613 4.91249 46.5285 4.85034 48.9384H13.6131C13.6131 46.5903 11.6865 44.613 9.26277 44.613Z" fill="white"/>
<path d="M22.5623 40.2875C22.5623 41.894 21.2572 43.1916 19.6414 43.1916C18.0255 43.1916 16.7205 41.894 16.7205 40.2875C16.7205 38.6809 18.0255 37.3833 19.6414 37.3833C21.2572 37.3833 22.5623 38.6809 22.5623 40.2875Z" fill="white"/>
<path d="M19.6412 44.613C17.2175 44.613 15.2909 46.5285 15.2288 48.9384H23.9915C23.9915 46.5903 22.0649 44.613 19.6412 44.613Z" fill="white"/>
<path d="M32.9407 40.2875C32.9407 41.894 31.6356 43.1916 30.0198 43.1916C28.404 43.1916 27.0989 41.894 27.0989 40.2875C27.0989 38.6809 28.404 37.3833 30.0198 37.3833C31.6356 37.3833 32.9407 38.6809 32.9407 40.2875Z" fill="white"/>
<path d="M30.0196 44.613C27.5959 44.613 25.6693 46.5285 25.6072 48.9384H34.3699C34.432 46.5903 32.4433 44.613 30.0196 44.613Z" fill="white"/>
<path d="M43.3191 40.2875C43.3191 41.894 42.014 43.1916 40.3982 43.1916C38.7824 43.1916 37.4773 41.894 37.4773 40.2875C37.4773 38.6809 38.7824 37.3833 40.3982 37.3833C42.014 37.3833 43.3191 38.6809 43.3191 40.2875Z" fill="white"/>
<path d="M40.4603 44.613C38.0366 44.613 36.11 46.5285 36.0479 48.9384H44.8106C44.8106 46.5903 42.884 44.613 40.4603 44.613Z" fill="white"/>
<path d="M53.76 40.2875C53.76 41.894 52.4549 43.1916 50.8391 43.1916C49.2233 43.1916 47.9182 41.894 47.9182 40.2875C47.9182 38.6809 49.2233 37.3833 50.8391 37.3833C52.4549 37.3833 53.76 38.6809 53.76 40.2875Z" fill="white"/>
<path d="M50.8389 44.613C48.4152 44.613 46.4887 46.5285 46.4265 48.9384H55.1892C55.2514 46.5903 53.2627 44.613 50.8389 44.613Z" fill="white"/>
<path d="M16.9067 37.6307C16.9067 38.8665 15.8502 39.917 14.6073 39.917C13.3644 39.917 12.3079 38.8665 12.3079 37.6307C12.3079 36.3949 13.3644 35.3445 14.6073 35.3445C15.8502 35.3445 16.9067 36.3331 16.9067 37.6307Z" fill="white"/>
<path d="M14.6074 41.0908C12.6809 41.0908 11.1272 42.6356 11.1272 44.5511H18.0876C18.0876 42.6356 16.534 41.0908 14.6074 41.0908Z" fill="white"/>
<path d="M27.2854 37.6307C27.2854 38.8665 26.2289 39.917 24.986 39.917C23.743 39.917 22.6865 38.8665 22.6865 37.6307C22.6865 36.3949 23.743 35.3445 24.986 35.3445C26.2289 35.3445 27.2854 36.3331 27.2854 37.6307Z" fill="white"/>
<path d="M24.9861 41.0908C23.0595 41.0908 21.5059 42.6356 21.5059 44.5511H28.4663C28.4663 42.6356 26.9126 41.0908 24.9861 41.0908Z" fill="white"/>
<path d="M37.6018 37.6307C37.6018 38.8665 36.5453 39.917 35.3024 39.917C34.0594 39.917 33.0029 38.8665 33.0029 37.6307C33.0029 36.3949 34.0594 35.3445 35.3024 35.3445C36.5453 35.3445 37.6018 36.3331 37.6018 37.6307Z" fill="white"/>
<path d="M35.3022 41.0908C33.3757 41.0908 31.822 42.6356 31.822 44.5511H38.7825C38.7825 42.6356 37.2288 41.0908 35.3022 41.0908Z" fill="white"/>
<path d="M47.9802 37.6307C47.9802 38.8665 46.9237 39.917 45.6808 39.917C44.4378 39.917 43.3813 38.8665 43.3813 37.6307C43.3813 36.3949 44.4378 35.3445 45.6808 35.3445C46.9237 35.3445 47.9802 36.3331 47.9802 37.6307Z" fill="white"/>
<path d="M45.6809 41.0908C43.7544 41.0908 42.2007 42.6356 42.2007 44.5511H49.1611C49.1611 42.6356 47.6075 41.0908 45.6809 41.0908Z" fill="white"/>
<path d="M17.0931 7.66202C17.0931 9.33037 15.7258 10.6898 14.0479 10.6898C12.3699 10.6898 11.0027 9.33037 11.0027 7.66202C11.0027 5.99367 12.3699 4.63428 14.0479 4.63428C15.6637 4.63428 17.0931 5.99367 17.0931 7.66202Z" fill="white"/>
<path d="M13.9857 12.2961C11.4377 12.2961 9.38685 14.3352 9.32471 16.8687H18.5846C18.6467 14.3352 16.5337 12.2961 13.9857 12.2961Z" fill="white"/>
<path d="M21.3816 30.4629H6.65278C5.96917 30.4629 5.40985 29.9068 5.40985 29.2271V22.7391H5.22341C4.53979 22.7391 3.98047 22.183 3.98047 21.5033V19.217C3.98047 18.5373 4.53979 17.9812 5.22341 17.9812H22.811C23.4946 17.9812 24.0539 18.5373 24.0539 19.217V21.5033C24.0539 22.183 23.4946 22.7391 22.811 22.7391H22.6245V29.2889C22.6245 29.9686 22.0652 30.4629 21.3816 30.4629ZM7.21211 28.7328H20.8223V21.874C20.8223 21.3797 21.1952 21.0089 21.6923 21.0089H22.2517V19.7731H5.78273V21.0089H6.34205C6.83923 21.0089 7.21211 21.3797 7.21211 21.874V28.7328Z" fill="white"/>
<path d="M54.1949 26.5081H29.1497C28.4661 26.5081 27.9067 25.952 27.9067 25.2723V6.11716C27.9067 5.43746 28.4661 4.88135 29.1497 4.88135H42.6356C49.7203 4.88135 55.5 10.6279 55.5 17.672V25.2723C55.5 25.952 54.8785 26.5081 54.1949 26.5081ZM29.6469 24.7161H53.6977V17.6102C53.6977 11.5547 48.726 6.5497 42.6356 6.5497H29.6469V24.7161Z" fill="white"/>
</svg>
