<svg width="64" height="60" viewBox="0 0 64 60" fill="none" xmlns="http://www.w3.org/2000/svg">
<path d="M51.6304 8.97925C51.6304 36.7846 28.7341 59.3333 0.5 59.3333V8.97925H51.6304Z" fill="#FF972F"/>
<path d="M42.4298 48.3358C39.9013 48.3358 34.704 45.8457 30.2793 41.6265C26.2057 37.6839 21.2893 30.7672 21.2893 20.392V10.9852C21.2893 9.60188 22.2726 8.2877 23.6773 7.94186C29.7174 6.28184 35.3361 3.99931 40.8144 0.817594C41.7977 0.264253 43.0619 0.264253 44.0452 0.817594C49.3127 3.7918 55.3529 6.351 61.1823 7.94186C62.587 8.2877 63.5703 9.60188 63.5703 10.9852V20.3229C63.5703 30.698 58.7241 37.6148 54.5803 41.5573C50.1555 45.7766 44.9582 48.3358 42.4298 48.3358ZM42.0786 2.89262C36.4599 6.21267 30.6304 8.63354 24.3796 10.2936C24.0987 10.3627 23.888 10.6394 23.888 10.9161V20.2537C23.888 29.7988 28.383 36.0931 32.1054 39.759C36.4599 43.9782 41.0953 45.7766 42.5 45.7766C43.9047 45.7766 48.4699 43.9782 52.8947 39.759C56.6171 36.1623 61.1121 29.7988 61.1121 20.2537V10.9852C61.1121 10.7086 60.9014 10.4319 60.6204 10.3627C54.5803 8.77187 48.3294 6.1435 42.9214 2.96179C42.5702 2.75429 42.2893 2.75429 42.0786 2.89262Z" fill="white"/>
<path d="M37.8647 31.943C38.2159 32.2889 38.7075 32.4964 39.2694 32.4964C39.761 32.4964 40.2527 32.2889 40.6741 31.943L53.3864 19.4237C54.159 18.6628 54.159 17.487 53.3864 16.7262C52.6139 15.9653 51.4199 15.9653 50.6473 16.7262L39.2694 27.8621L34.353 23.0204C33.5804 22.2596 32.3864 22.2596 31.6139 23.0204C30.8413 23.7812 30.8413 24.9571 31.6139 25.7179L37.8647 31.943Z" fill="white"/>
</svg>
