<svg width="76" height="56" viewBox="0 0 76 56" fill="none" xmlns="http://www.w3.org/2000/svg">
<path d="M50.1159 1.10645C22.442 1.10645 0 23.6447 0 51.4373H50.1159V1.10645Z" fill="#FF972F"/>
<path d="M41.2357 24.0593C41.2357 19.0815 38.3444 14.7259 34.2139 12.6519C35.3842 11.3383 36.1415 9.54074 36.1415 7.60494C36.1415 3.38765 32.7683 0 28.569 0C24.3697 0 20.9965 3.38765 20.9965 7.60494C20.9965 9.54074 21.7538 11.3383 22.9241 12.6519C18.7936 14.7259 15.9023 19.0815 15.9023 24.0593C15.9023 30.7654 21.0654 36.2963 27.6741 36.7802V28.2074L21.9603 22.4691C21.6161 22.1235 21.6161 21.5012 21.9603 21.1556C22.3045 20.8099 22.9241 20.8099 23.2683 21.1556L27.6741 25.5802V7.95062C27.6741 7.39753 28.0871 6.98272 28.6379 6.98272C29.1886 6.98272 29.6016 7.39753 29.6016 7.95062V25.8568L32.4241 23.5062C32.8371 23.1605 33.3879 23.2296 33.7321 23.6444C34.0763 24.0593 34.0074 24.6123 33.5944 24.958L29.6016 28.2765V36.7802C36.0038 36.2963 41.2357 30.8346 41.2357 24.0593Z" fill="white"/>
<path d="M27.5361 36.7805V45.6299C27.5361 46.183 27.9492 46.5978 28.4999 46.5978C29.0506 46.5978 29.4637 46.183 29.4637 45.6299V36.7805C29.1195 36.7805 28.8441 36.8497 28.4999 36.8497C28.1557 36.8497 27.8803 36.8497 27.5361 36.7805Z" fill="white"/>
<path d="M68.3585 42.7263H39.239C35.0397 42.7263 31.5977 39.2695 31.5977 35.0523V34.3609C31.5977 30.9041 33.9382 27.8621 37.1737 26.9634C36.4853 25.5806 36.1411 24.0597 36.1411 22.4695C36.1411 17.4918 39.652 13.2053 44.402 12.2374C44.815 7.39793 48.8078 3.59546 53.7643 3.59546C58.652 3.59546 62.7136 7.39793 63.1266 12.2374C67.8766 13.2745 71.3875 17.4918 71.3875 22.4695C71.3875 24.0597 71.0433 25.5806 70.3549 26.9634C73.5904 27.8621 75.931 30.9041 75.931 34.3609V35.0523C75.9998 39.2695 72.5578 42.7263 68.3585 42.7263ZM53.7643 5.53126C49.7027 5.53126 46.3295 8.84978 46.3295 12.9979C46.3295 13.4819 45.9853 14.035 45.5035 14.035C41.3042 14.5881 38.1375 18.1831 38.1375 22.4695C38.1375 24.1288 38.6194 25.7189 39.5143 27.1708C39.7208 27.4473 39.7208 27.8621 39.5832 28.1387C39.4455 28.4844 39.1013 28.6918 38.7571 28.6918C35.7969 28.8992 33.5252 31.3881 33.5252 34.3609V35.0523C33.5252 38.2325 36.0723 40.7905 39.1701 40.7905H68.2897C71.3875 40.7905 73.9346 38.2325 73.9346 35.0523V34.3609C73.9346 31.3881 71.6629 28.8992 68.7027 28.6918C68.3585 28.6918 68.0143 28.4844 67.8766 28.1387C67.739 27.793 67.739 27.4473 67.9455 27.1708C68.8404 25.7881 69.3223 24.1979 69.3223 22.4695C69.3223 18.1831 66.1556 14.5881 61.9564 14.035C61.4745 13.9658 61.0614 13.551 61.0614 13.0671V12.9979C61.1991 8.84978 57.8259 5.53126 53.7643 5.53126Z" fill="white"/>
<path d="M53.7643 55.9998C53.2136 55.9998 52.8005 55.585 52.8005 55.0319V14.7257C52.8005 14.1726 53.2136 13.7578 53.7643 13.7578C54.315 13.7578 54.7281 14.1726 54.7281 14.7257V55.101C54.6592 55.585 54.2462 55.9998 53.7643 55.9998Z" fill="white"/>
<path d="M53.7645 37.6795C53.558 37.6795 53.2826 37.6104 53.0761 37.403L46.8805 31.1807C46.5363 30.8351 46.5363 30.2128 46.8805 29.8672C47.2247 29.5215 47.8442 29.5215 48.1884 29.8672L54.3841 36.0894C54.7283 36.4351 54.7283 37.0573 54.3841 37.403C54.2464 37.5412 53.971 37.6795 53.7645 37.6795Z" fill="white"/>
<path d="M53.7647 32.079C53.5582 32.079 53.2828 32.0098 53.0763 31.8024C52.7321 31.4568 52.7321 30.8345 53.0763 30.4889L58.5835 24.958C58.9277 24.6123 59.5473 24.6123 59.8915 24.958C60.2357 25.3037 60.2357 25.9259 59.8915 26.2716L54.3842 31.8024C54.2466 32.0098 53.9712 32.079 53.7647 32.079Z" fill="white"/>
<path d="M53.7646 26.548C53.4204 26.548 53.0762 26.3406 52.9386 26.0641C52.5255 25.5801 49.9784 23.0912 47.7067 20.8789C47.3625 20.5332 47.2936 19.911 47.7067 19.5653C48.0509 19.2196 48.6704 19.1505 49.0146 19.5653C54.7284 25.027 54.7284 25.1653 54.7284 25.7184C54.6596 26.1332 54.2465 26.548 53.7646 26.548Z" fill="white"/>
</svg>
