<svg width="54" height="57" viewBox="0 0 54 57" fill="none" xmlns="http://www.w3.org/2000/svg">
<path d="M0 56.3334C24.2819 56.3334 43.9732 36.6398 43.9732 12.355H0V56.3334Z" fill="#FF972F"/>
<path d="M12.3825 19.5439C7.12746 19.5439 2.83887 15.2547 2.83887 9.93867C2.83887 4.6226 7.12746 0.333496 12.3825 0.333496C17.6375 0.333496 21.9261 4.6226 21.9261 9.93867C21.9865 15.1943 17.6979 19.5439 12.3825 19.5439ZM12.3825 1.66251C7.85229 1.66251 4.16773 5.34752 4.16773 9.93867C4.16773 14.5298 7.85229 18.2148 12.4429 18.2148C16.9731 18.2148 20.7181 14.5298 20.7181 9.93867C20.6577 5.34752 16.9731 1.66251 12.3825 1.66251Z" fill="white"/>
<path d="M16.1276 7.46197C16.1276 9.51591 14.4364 11.2074 12.3827 11.2074C10.329 11.2074 8.6377 9.51591 8.6377 7.46197C8.6377 5.40803 10.329 3.71655 12.3827 3.71655C14.4364 3.71655 16.1276 5.34762 16.1276 7.46197Z" fill="white"/>
<path d="M17.7584 17.0673C17.0335 14.7717 14.9194 13.1406 12.3825 13.1406C9.84561 13.1406 7.73151 14.8321 7.00668 17.0673C6.82547 17.611 10.0268 18.6379 10.0268 18.6379L14.1342 18.7587" fill="white"/>
<path d="M44.4564 19.5439C39.2013 19.5439 34.9127 15.2547 34.9127 9.93867C34.8523 4.6226 39.1409 0.333496 44.4564 0.333496C49.7114 0.333496 54 4.6226 54 9.93867C54 15.1943 49.7114 19.5439 44.4564 19.5439ZM44.4564 1.66251C39.9262 1.66251 36.1812 5.34752 36.1812 9.93867C36.1812 14.5298 39.8658 18.2148 44.4564 18.2148C48.9866 18.2148 52.7315 14.5298 52.7315 9.93867C52.6711 5.34752 48.9866 1.66251 44.4564 1.66251Z" fill="white"/>
<path d="M48.1411 7.46197C48.1411 9.51591 46.4498 11.2074 44.3961 11.2074C42.3424 11.2074 40.6511 9.51591 40.6511 7.46197C40.6511 5.40803 42.3424 3.71655 44.3961 3.71655C46.5102 3.71655 48.1411 5.34762 48.1411 7.46197Z" fill="white"/>
<path d="M49.8323 17.0673C49.1075 14.7717 46.9934 13.1406 44.4565 13.1406C41.9196 13.1406 39.8055 14.8321 39.0807 17.0673C38.8994 17.611 42.1008 18.6379 42.1008 18.6379L46.2082 18.7587" fill="white"/>
<path d="M12.3825 52.1652C7.12746 52.1652 2.83887 47.8761 2.83887 42.56C2.83887 37.2439 7.12746 32.9548 12.3825 32.9548C17.6375 32.9548 21.9261 37.2439 21.9261 42.56C21.9865 47.8761 17.6979 52.1652 12.3825 52.1652ZM12.3825 34.2839C7.85229 34.2839 4.10732 37.9689 4.10732 42.56C4.10732 47.1512 7.79189 50.8362 12.3825 50.8362C16.9127 50.8362 20.6577 47.1512 20.6577 42.56C20.6577 37.9689 16.9731 34.2839 12.3825 34.2839Z" fill="white"/>
<path d="M16.1276 40.0833C16.1276 42.1372 14.4364 43.8287 12.3827 43.8287C10.329 43.8287 8.6377 42.1372 8.6377 40.0833C8.6377 38.0294 10.329 36.3379 12.3827 36.3379C14.4364 36.3379 16.1276 37.969 16.1276 40.0833Z" fill="white"/>
<path d="M17.7584 49.6886C17.0335 47.393 14.9194 45.762 12.3825 45.762C9.84561 45.762 7.73151 47.4534 7.00668 49.6886C6.82547 50.2323 10.0268 51.2593 10.0268 51.2593L14.1342 51.3801" fill="white"/>
<path d="M44.4565 52.1652C39.2014 52.1652 34.9128 47.8761 34.9128 42.56C34.9128 37.2439 39.2014 32.9548 44.4565 32.9548C49.7115 32.9548 54.0001 37.2439 54.0001 42.56C54.0001 47.8761 49.7115 52.1652 44.4565 52.1652ZM44.4565 34.2839C39.9263 34.2839 36.1813 37.9689 36.1813 42.56C36.1813 47.1512 39.8659 50.8362 44.4565 50.8362C48.9867 50.8362 52.7316 47.1512 52.7316 42.56C52.6712 37.9689 48.9867 34.2839 44.4565 34.2839Z" fill="white"/>
<path d="M48.1411 40.0833C48.1411 42.1372 46.4498 43.8287 44.3961 43.8287C42.3424 43.8287 40.6511 42.1372 40.6511 40.0833C40.6511 38.0294 42.3424 36.3379 44.3961 36.3379C46.5102 36.3379 48.1411 37.969 48.1411 40.0833Z" fill="white"/>
<path d="M49.8323 49.6886C49.1075 47.393 46.9934 45.762 44.4565 45.762C41.9196 45.762 39.8055 47.4534 39.0807 49.6886C38.8994 50.2323 42.1008 51.2593 42.1008 51.2593L46.2082 51.3801" fill="white"/>
<path d="M33.0403 31.1423L32.7987 31.0819C32.2551 30.9611 31.8323 30.5382 31.7115 29.9946L31.6511 29.7529C31.5906 29.4509 31.349 29.2092 30.9866 29.2092C30.6846 29.2092 30.443 29.4509 30.3222 29.7529L30.2618 29.9946C30.141 30.5382 29.7182 30.9611 29.1745 31.0819L28.9933 31.1423C28.6913 31.2028 28.4497 31.4444 28.4497 31.8069C28.4497 32.1089 28.6913 32.411 28.9933 32.4714L29.2349 32.5318C29.7786 32.6526 30.2014 33.0755 30.3222 33.6191L30.3826 33.8608C30.443 34.1628 30.6846 34.4045 31.047 34.4045C31.349 34.4045 31.6511 34.1628 31.7115 33.8608L31.7719 33.6191C31.8927 33.0755 32.3155 32.6526 32.8591 32.5318L33.1007 32.4714C33.4027 32.411 33.6443 32.1693 33.6443 31.8069C33.5839 31.5048 33.3423 31.2028 33.0403 31.1423Z" fill="white"/>
<path d="M32.9194 21.3561C33.1007 21.3561 33.2215 21.2353 33.2215 21.054V20.2083C33.2215 20.0271 33.1007 19.9062 32.9194 19.9062C32.7382 19.9062 32.6174 20.0271 32.6174 20.2083V21.054C32.6174 21.2353 32.7986 21.3561 32.9194 21.3561Z" fill="white"/>
<path d="M32.9194 23.7118C33.1007 23.7118 33.2215 23.591 33.2215 23.4098V22.564C33.2215 22.3828 33.1007 22.262 32.9194 22.262C32.7382 22.262 32.6174 22.3828 32.6174 22.564V23.4098C32.6174 23.5306 32.7986 23.7118 32.9194 23.7118Z" fill="white"/>
<path d="M33.7047 22.0812H34.5504C34.7316 22.0812 34.8524 21.9603 34.8524 21.7791C34.8524 21.5979 34.7316 21.4771 34.5504 21.4771H33.7047C33.5235 21.4771 33.4027 21.5979 33.4027 21.7791C33.3423 21.9603 33.5235 22.0812 33.7047 22.0812Z" fill="white"/>
<path d="M31.3489 22.0812H32.1945C32.3757 22.0812 32.4965 21.9603 32.4965 21.7791C32.4965 21.5979 32.3757 21.4771 32.1945 21.4771H31.3489C31.1677 21.4771 31.0469 21.5979 31.0469 21.7791C31.0469 21.9603 31.1677 22.0812 31.3489 22.0812Z" fill="white"/>
<path d="M28.6309 24.2562L27.3624 24.0146C26.2148 23.7729 25.3691 22.9272 25.1275 21.7794L24.8859 20.5108C24.8255 20.0879 24.4631 19.7859 24.0403 19.7859C23.6175 19.7859 23.2551 20.0879 23.1947 20.5108L22.953 21.7794C22.7114 22.9272 21.8658 23.7729 20.7181 24.0146L19.4497 24.2562C19.0269 24.3166 18.7249 24.6791 18.7249 25.102C18.7249 25.5248 19.0269 25.8873 19.4497 25.9477L20.7181 26.1893C21.8658 26.431 22.7114 27.2767 22.953 28.4245L23.1947 29.6931C23.2551 30.116 23.6175 30.418 24.0403 30.418C24.4631 30.418 24.8255 30.116 24.8859 29.6931L25.1275 28.4245C25.3691 27.2767 26.2148 26.431 27.3624 26.1893L28.6309 25.9477C29.0537 25.8873 29.3557 25.5248 29.3557 25.102C29.3557 24.6791 29.0537 24.3166 28.6309 24.2562Z" fill="white"/>
<path d="M23.1947 8.48875C22.8322 8.48875 22.5302 8.24711 22.4698 7.94506C22.349 7.52219 22.5906 7.09932 23.0134 6.9785C26.4564 6.01194 30.2618 6.01194 33.7651 6.91809C34.1879 7.03891 34.4295 7.46178 34.3087 7.88465C34.1879 8.30752 33.7651 8.54916 33.3423 8.42834C30.141 7.52219 26.6376 7.5826 23.4363 8.48875C23.3155 8.48875 23.2551 8.48875 23.1947 8.48875Z" fill="white"/>
<path d="M28.3893 46.2453C26.5772 46.2453 24.7651 46.0036 23.0134 45.5204C22.5906 45.3995 22.349 44.9767 22.4698 44.5538C22.5906 44.1309 23.0134 43.8893 23.4363 44.0101C26.6376 44.9163 30.0806 44.9163 33.2819 44.0101C33.7047 43.8893 34.1275 44.1309 34.2483 44.5538C34.3692 44.9767 34.1275 45.3995 33.7047 45.5204C32.0134 46.064 30.2014 46.2453 28.3893 46.2453Z" fill="white"/>
</svg>
