<svg width="60" height="68" viewBox="0 0 60 68" fill="none" xmlns="http://www.w3.org/2000/svg">
<path d="M59.5 59.5747C59.5 27.0457 33.0797 0.666504 0.5 0.666504V59.5747H59.5Z" fill="#FF972F"/>
<path d="M26.5961 67.6662C17.3571 67.6662 9.82005 60.4645 9.65796 51.6445V51.5636V36.9174C9.65796 36.0273 10.3874 35.2991 11.2788 35.2991H41.6703C46.7761 35.2991 50.9904 39.345 50.9904 44.2C50.9904 48.5696 47.6676 52.2109 43.3722 53.0201C42.5618 61.031 35.592 67.3426 27.0824 67.5853C26.9203 67.5853 26.7582 67.6662 26.5961 67.6662ZM12.9808 51.4017V51.4826C12.9808 58.4416 18.897 64.1868 26.1099 64.3486C26.272 64.3486 26.353 64.2677 26.5151 64.2677C33.8901 64.2677 39.9684 58.5225 40.0494 51.4017C40.0494 50.5116 40.7788 49.7834 41.6703 49.7834C44.9121 49.7834 47.5865 47.194 47.5865 44.1191C47.5865 40.9633 44.9121 38.4549 41.5893 38.4549H12.9808V51.4017Z" fill="white"/>
<path d="M19.5454 25.0228V32.3054C23.7597 32.3054 27.1635 29.0687 27.1635 25.0228V17.7402C23.0303 17.6593 19.5454 20.9769 19.5454 25.0228Z" fill="white"/>
<path d="M19.5454 10.3766V17.6592C23.7597 17.6592 27.1635 14.4225 27.1635 10.3766V3.09399C23.0303 3.09399 19.5454 6.33071 19.5454 10.3766Z" fill="white"/>
<path d="M29.6758 17.6593V24.9419C33.8901 24.9419 37.2939 21.7052 37.2939 17.6593V10.3767C33.0796 10.3767 29.6758 13.6134 29.6758 17.6593Z" fill="white"/>
</svg>
