<svg width="44" height="59" viewBox="0 0 44 59" fill="none" xmlns="http://www.w3.org/2000/svg">
<path d="M44 59.0001C44 34.8261 24.3026 15.2331 0 15.2331V59.0001H44Z" fill="#FF972F"/>
<path d="M22.2498 14.0739C26.1893 14.0739 29.3519 10.928 29.3519 7.00936C29.3519 3.14593 26.1338 0 22.2498 0C18.3103 0 15.1476 3.14593 15.1476 7.06455C15.1476 10.928 18.3103 14.0739 22.2498 14.0739Z" fill="white"/>
<path d="M38.6735 11.1492C37.5638 9.935 35.6773 9.87981 34.4566 10.9836L27.7983 17.1099H16.9787L10.3204 10.9836C9.09972 9.87981 7.21321 9.935 6.1035 11.1492C4.99379 12.3634 5.04928 14.24 6.26996 15.3438L13.816 22.2428V43.7676H13.8715V51.7152C18.3103 51.7152 21.8614 48.1277 21.8614 43.7676C21.8614 48.1277 25.4124 51.7152 29.8513 51.7152V43.7676V43.4364V23.3466L38.507 15.3438C39.7277 14.24 39.7832 12.3634 38.6735 11.1492Z" fill="white"/>
</svg>
