<svg width="66" height="55" viewBox="0 0 66 55" fill="none" xmlns="http://www.w3.org/2000/svg">
<path d="M0 6.63794C0 33.3793 21.7666 55 48.6885 55V6.63794H0Z" fill="#FF972F"/>
<path d="M54.0346 41.4717C49.5158 41.4717 45.8244 37.8683 45.7607 33.3798V33.3165V25.8568C45.7607 25.4775 46.079 25.0981 46.5245 25.0981H61.4811C63.9633 25.0981 65.9999 27.1211 65.9999 29.5866C65.9999 31.7993 64.3451 33.6326 62.2448 34.0119C61.863 38.1211 58.4261 41.3453 54.2892 41.4085C54.1619 41.4717 54.0983 41.4717 54.0346 41.4717ZM47.2882 33.3165C47.2882 36.9832 50.2159 39.9545 53.8437 40.0177C53.9073 40.0177 53.971 40.0177 54.0346 40.0177C57.726 40.0177 60.7174 37.0464 60.781 33.3798C60.781 33.0004 61.0992 32.6211 61.5447 32.6211C63.1995 32.6211 64.5361 31.2935 64.5361 29.6499C64.5361 28.0062 63.1995 26.6786 61.5447 26.6786H47.2882V33.3165Z" fill="white"/>
<path d="M50.916 19.408V23.6436C53.2709 23.6436 55.1802 21.7471 55.1802 19.408V15.1724C52.8254 15.1724 50.916 17.0689 50.916 19.408Z" fill="white"/>
<path d="M50.916 10.937V15.1727C53.2709 15.1727 55.1802 13.2761 55.1802 10.937V6.70142C52.8254 6.70142 50.916 8.59797 50.916 10.937Z" fill="white"/>
<path d="M56.5803 15.1724V19.408C58.9352 19.408 60.8445 17.5115 60.8445 15.1724V10.9368C58.4897 10.9368 56.5803 12.8333 56.5803 15.1724Z" fill="white"/>
<path d="M32.2046 22.7586H17.8208C16.8025 22.7586 15.8478 22.3161 15.1477 21.6207C14.4476 20.9253 14.1294 19.9138 14.193 18.9023L15.4659 3.35057C15.5932 1.45402 17.1843 0 19.0937 0H30.9317C32.841 0 34.3685 1.45402 34.5595 3.28736L35.8324 18.8391C35.896 19.8506 35.5778 20.8621 34.8777 21.5575C34.1776 22.3793 33.1593 22.7586 32.2046 22.7586ZM30.868 1.45402H19.0937C17.9481 1.45402 17.057 2.27586 16.9298 3.41379L15.6569 18.9655C15.5932 19.5345 15.7841 20.1667 16.2297 20.6092C16.6115 21.0517 17.1843 21.3046 17.8208 21.3046H32.2046C32.7774 21.3046 33.3502 21.0517 33.7957 20.6092C34.1776 20.1667 34.4322 19.5977 34.3685 18.9655L33.0956 3.41379C32.9047 2.33908 32.0137 1.51724 30.868 1.45402Z" fill="white"/>
<path d="M34.8775 31.7353H15.0839C13.6837 31.7353 12.6017 30.787 12.5381 29.5859V26.1089C12.5381 24.9077 13.6837 23.9595 15.0202 23.8962H34.8775C36.2777 23.8962 37.3597 24.9077 37.4233 26.0457V29.5227C37.4233 30.787 36.2777 31.7353 34.8775 31.7353ZM15.0839 25.4135C14.5111 25.4135 14.0656 25.7296 14.0656 26.1089V29.5859C14.0656 29.9652 14.5111 30.2813 15.0839 30.2813H34.9412C35.514 30.2813 35.9595 29.9652 35.9595 29.5859V26.1089C35.9595 25.7296 35.514 25.4135 34.9412 25.4135H15.0839Z" fill="white"/>
<path d="M36.8508 28.5117H36.0234V27.2473H36.8508C37.9964 27.2473 38.8875 26.3623 38.8875 25.2243V22.822H40.1604V25.2243C40.224 27.0577 38.6965 28.5117 36.8508 28.5117Z" fill="white"/>
<path d="M39.5873 23.4541C38.5053 23.4541 37.487 22.822 37.0415 21.7472C36.596 20.7357 36.8506 19.5346 37.6143 18.776C38.378 18.0174 39.5873 17.7645 40.6056 18.207C41.6239 18.6495 42.324 19.5978 42.324 20.7357C42.324 22.253 41.0511 23.4541 39.5873 23.4541ZM39.5873 19.2817C39.0145 19.2817 38.4417 19.5978 38.2507 20.1668C37.9962 20.6725 38.1235 21.3047 38.569 21.7472C38.9508 22.1898 39.5873 22.3162 40.1601 22.0633C40.7329 21.8737 41.0511 21.3047 41.0511 20.7357C40.9875 19.9139 40.351 19.2817 39.5873 19.2817Z" fill="white"/>
<path d="M13.9384 28.5117H13.111C11.2653 28.5117 9.80144 27.0577 9.73779 25.2243V22.822H11.0107V25.2243C11.0107 26.3623 11.9017 27.2473 13.0473 27.2473H13.8747V28.5117H13.9384Z" fill="white"/>
<path d="M10.4376 23.4541C9.35567 23.4541 8.33735 22.7587 7.89183 21.7472C7.44631 20.7357 7.70089 19.5346 8.46464 18.776C9.22838 18.0174 10.4376 17.7645 11.456 18.207C12.4743 18.6495 13.1744 19.5978 13.1744 20.7357C13.1744 21.4311 12.8561 22.1266 12.347 22.6955C11.8378 23.2013 11.1377 23.4541 10.4376 23.4541ZM10.4376 19.2817C9.86483 19.2817 9.35567 19.661 9.10109 20.1668C8.84651 20.6725 8.9738 21.3047 9.41931 21.7472C9.80118 22.1266 10.4376 22.253 11.0104 22.0633C11.5196 21.8737 11.9015 21.3047 11.9015 20.7357C11.9015 20.3564 11.7742 19.9771 11.456 19.7243C11.1377 19.4082 10.8195 19.2817 10.4376 19.2817Z" fill="white"/>
<path d="M28.195 21.3674H26.9221V24.5916H28.195V21.3674Z" fill="white"/>
<path d="M23.0395 21.3674H21.7666V24.5916H23.0395V21.3674Z" fill="white"/>
<path d="M25.649 34.9597H24.3761C22.9122 34.9597 21.7666 33.8218 21.7666 32.3677V30.408H28.2584V32.3677C28.2584 33.7585 27.0491 34.9597 25.649 34.9597ZM23.0395 31.7355V32.3677C23.0395 33.0631 23.6123 33.6321 24.3124 33.6321H25.5853C26.2854 33.6321 26.8582 33.0631 26.8582 32.3677V31.7355H23.0395Z" fill="white"/>
<path d="M35.2594 42.1664H33.9865V41.5342C33.9865 40.3962 33.0318 39.448 31.8862 39.448H18.2025C17.0569 39.448 16.1022 40.3962 16.1022 41.5342V42.1664H14.8293V41.5342C14.8293 39.7008 16.3568 38.1836 18.2025 38.1836H31.8862C33.7319 38.1836 35.2594 39.7008 35.2594 41.5342V42.1664Z" fill="white"/>
<path d="M34.6231 45.8973C33.732 45.8973 32.9046 45.3916 32.5864 44.5697C32.2682 43.7479 32.4591 42.7996 33.0319 42.1674C33.6684 41.5352 34.623 41.3456 35.4504 41.7249C36.2778 42.041 36.787 42.8628 36.787 43.7479C36.8506 44.949 35.8323 45.8973 34.6231 45.8973ZM34.6231 42.7996C34.2412 42.7996 33.923 42.9893 33.7957 43.3686C33.6684 43.6847 33.732 44.064 33.9866 44.3168C34.2412 44.5697 34.6231 44.6329 34.9413 44.5065C35.2595 44.3801 35.5141 44.064 35.5141 43.6847C35.5141 43.2421 35.1322 42.7996 34.6231 42.7996Z" fill="white"/>
<path d="M25.0125 45.8973C24.1214 45.8973 23.294 45.3916 22.9758 44.5697C22.6576 43.7479 22.8485 42.7996 23.4213 42.1674C24.0578 41.5352 25.0125 41.3456 25.8398 41.7249C26.6672 42.041 27.1764 42.8628 27.1764 43.7479C27.24 44.949 26.2854 45.8973 25.0125 45.8973ZM25.0125 42.7996C24.6306 42.7996 24.3124 42.9893 24.1851 43.3686C24.0578 43.6847 24.1214 44.064 24.376 44.3168C24.6306 44.5697 25.0125 44.6329 25.3307 44.5065C25.6489 44.3801 25.9035 44.064 25.9035 43.6847C25.9671 43.2421 25.5216 42.7996 25.0125 42.7996Z" fill="white"/>
<path d="M15.4658 45.8973C14.5748 45.8973 13.7474 45.3916 13.4292 44.5697C13.111 43.7479 13.3019 42.7996 13.8747 42.1674C14.5111 41.5352 15.4658 41.3456 16.2932 41.7249C17.1206 42.041 17.6298 42.8628 17.6298 43.7479C17.6298 44.949 16.6751 45.8973 15.4658 45.8973ZM15.4658 42.7996C15.084 42.7996 14.7657 42.9893 14.6384 43.3686C14.5111 43.6847 14.5748 44.064 14.8294 44.3168C15.084 44.5697 15.4658 44.6329 15.784 44.5065C16.1023 44.3801 16.3569 44.064 16.3569 43.6847C16.3569 43.2421 15.975 42.7996 15.4658 42.7996Z" fill="white"/>
<path d="M25.5852 34.2646H24.3123V42.1669H25.5852V34.2646Z" fill="white"/>
<path d="M12.0925 20.7362C12.0925 21.6845 11.3288 22.3799 10.4377 22.3799C9.48305 22.3799 8.78296 21.6213 8.78296 20.7362C8.78296 19.788 9.5467 19.0926 10.4377 19.0926C11.3288 19.0293 12.0925 19.788 12.0925 20.7362Z" fill="white"/>
<path d="M41.2422 20.7362C41.2422 21.6845 40.4784 22.3799 39.5874 22.3799C38.6327 22.3799 37.9326 21.6213 37.9326 20.7362C37.9326 19.788 38.6964 19.0926 39.5874 19.0926C40.4784 19.0293 41.2422 19.788 41.2422 20.7362Z" fill="white"/>
<path d="M35.7049 43.7466C35.7049 44.3787 35.1958 44.8213 34.623 44.8213C33.9865 44.8213 33.541 44.3155 33.541 43.7466C33.541 43.1144 34.0502 42.6719 34.623 42.6719C35.2594 42.6086 35.7049 43.1144 35.7049 43.7466Z" fill="white"/>
<path d="M26.1578 43.7466C26.1578 44.3787 25.6487 44.8213 25.0759 44.8213C24.4394 44.8213 23.9939 44.3155 23.9939 43.7466C23.9939 43.1144 24.5031 42.6719 25.0759 42.6719C25.6487 42.6086 26.1578 43.1144 26.1578 43.7466Z" fill="white"/>
<path d="M16.5477 43.7466C16.5477 44.3787 16.0386 44.8213 15.4658 44.8213C14.8293 44.8213 14.3838 44.3155 14.3838 43.7466C14.3838 43.1144 14.8929 42.6719 15.4658 42.6719C16.0386 42.6086 16.5477 43.1144 16.5477 43.7466Z" fill="white"/>
</svg>
