<svg width="58" height="51" viewBox="0 0 58 51" fill="none" xmlns="http://www.w3.org/2000/svg">
<path d="M46.3491 49.9993C46.3491 24.2166 25.5939 3.37231 0 3.37231V50.0634H46.3491V49.9993Z" fill="#FF972F"/>
<path d="M50.2963 28.5784C53.0976 28.5784 55.3896 26.2053 55.3896 23.3192C55.3896 20.4331 53.0976 18.0601 50.2963 18.0601C47.4949 18.0601 45.203 20.369 45.203 23.3192C45.1393 26.2053 47.4313 28.5784 50.2963 28.5784Z" fill="white"/>
<path d="M57.9999 39.097C57.9999 34.7357 54.4983 31.2083 50.2326 31.2083C49.8506 31.2083 49.4049 31.2724 49.0229 31.3365V39.097H57.9999Z" fill="white"/>
<path d="M34.316 18.7009C37.1173 18.7009 39.4093 16.392 39.4093 13.4418C39.4093 10.5557 37.1173 8.18262 34.316 8.18262C31.5146 8.18262 29.2227 10.5557 29.2227 13.4418C29.2227 16.3279 31.5146 18.7009 34.316 18.7009Z" fill="white"/>
<path d="M34.125 23.9599V27.8722L35.1437 28.0005L41.7649 28.706H41.9559C41.7013 24.6013 38.327 21.3303 34.2523 21.3303C32.979 21.3303 31.7693 21.651 30.687 22.2282L32.597 22.4206C33.4883 22.4848 34.125 23.1261 34.125 23.9599Z" fill="white"/>
<path d="M18.3993 11.4539C21.2006 11.4539 23.4926 9.14497 23.4926 6.19471C23.4926 3.30858 21.2006 0.935547 18.3993 0.935547C15.598 0.935547 13.306 3.30858 13.306 6.19471C13.2423 9.14497 15.5343 11.4539 18.3993 11.4539Z" fill="white"/>
<path d="M18.5907 15.4946C19.3547 15.4946 19.9277 16.1359 19.9277 16.8414V21.0744L20.9463 21.2027L26.1033 21.7799C25.976 17.5469 22.538 14.1477 18.3997 14.1477C17.0627 14.1477 15.7894 14.4684 14.707 15.1097L15.089 15.1739L18.5907 15.4946Z" fill="white"/>
<path d="M47.4949 44.2911H47.4313L30.5597 42.4311C29.2227 42.4311 28.1404 41.2767 28.1404 39.9298V35.8893L17.0624 34.6707C15.7891 34.6707 14.7705 33.5804 14.7705 32.2976V28.0647L4.07451 26.9102C2.86485 26.9102 1.84619 25.884 1.84619 24.6013V15.3016C1.84619 14.0189 2.86485 12.9927 4.07451 12.9927C4.13818 12.9927 4.13818 12.9927 4.20184 12.9927L18.6541 14.5319C19.8638 14.5319 20.8824 15.5581 20.8824 16.8408V20.2401L32.788 21.5228C34.0613 21.5228 35.08 22.6131 35.08 23.8958V27.0385L41.956 27.744L47.6223 28.3212C48.9593 28.3212 50.0416 29.4757 50.0416 30.8225V41.6615C49.9779 43.1366 48.8956 44.2911 47.4949 44.2911ZM4.07451 14.8526C3.81985 14.8526 3.69251 15.045 3.69251 15.3016V24.5372C3.69251 24.7937 3.88351 24.9861 4.13818 24.9861C4.20184 24.9861 4.20184 24.9861 4.26551 24.9861L15.7891 26.2047C16.2348 26.2688 16.6168 26.6537 16.6168 27.1026V32.1694C16.6168 32.4901 16.8714 32.7466 17.1898 32.7466C17.2534 32.7466 17.2534 32.7466 17.3171 32.7466L29.2864 34.0293C29.732 34.0935 30.114 34.4783 30.114 34.9272V39.8016C30.114 40.1864 30.4324 40.5071 30.7507 40.5071C30.7507 40.5071 30.8144 40.5071 30.878 40.5071L47.7496 42.3029C48.0679 42.3029 48.3863 41.9822 48.3863 41.5974V30.9508C48.3863 30.566 48.0679 30.2453 47.7496 30.2453H47.6859L34.316 28.8343C33.8703 28.7702 33.4883 28.3853 33.4883 27.9364V24.0241C33.4883 23.7034 33.2337 23.4469 32.979 23.4469C32.9153 23.4469 32.9153 23.4469 32.8517 23.4469L20.1184 22.1C19.6728 22.0359 19.2908 21.651 19.2908 21.2021V16.9691C19.2908 16.7126 19.0998 16.5202 18.8451 16.5202C18.7814 16.5202 18.7814 16.5202 18.7178 16.5202L4.07451 14.8526Z" fill="white"/>
</svg>
