<svg width="77" height="69" viewBox="0 0 77 69" fill="none" xmlns="http://www.w3.org/2000/svg">
<path d="M0 11.7659C0 43.1866 25.6746 68.667 57.3347 68.667V11.7659H0Z" fill="#FF972F"/>
<path d="M42.6858 50.0648H25.3594C25.0444 50.0648 24.8081 49.9084 24.6506 49.674C24.4931 49.4395 24.4931 49.1268 24.6506 48.8142L31.1874 37.559C31.3449 37.3245 31.5812 37.1682 31.8962 37.1682H42.6071C43.0796 37.1682 43.4734 37.559 43.4734 38.028V49.2832C43.5522 49.7521 43.1584 50.0648 42.6858 50.0648ZM26.8558 48.4234H41.8195V38.8096H32.4475L26.8558 48.4234Z" fill="white"/>
<path d="M25.4383 49.2826L18.8228 37.9493L25.5958 26.3815L23.7057 25.2872L34.4953 22.3953L37.3305 33.1033L35.4404 32.0091L29.9274 41.4665L25.4383 49.2826Z" fill="white"/>
<path d="M25.4386 50.0646C25.1236 50.0646 24.8873 49.9082 24.7298 49.6738L18.1142 38.3404C17.9567 38.1059 17.9567 37.7933 18.1142 37.4807L24.4147 26.6163L23.2334 25.9128C22.9184 25.7565 22.7609 25.4439 22.8396 25.0531C22.9184 24.7404 23.1546 24.4278 23.4697 24.3496L34.2593 21.4577C34.4956 21.3795 34.7318 21.4577 34.8894 21.5358C35.0469 21.614 35.2044 21.8485 35.2831 22.083L38.1971 32.791C38.2759 33.1036 38.1971 33.4944 37.8821 33.6508C37.6458 33.8853 37.2521 33.8853 36.937 33.7289L35.7557 33.0255L26.1474 49.6738C25.9899 49.9082 25.7536 50.0646 25.4386 50.0646ZM19.8469 37.9496L25.4386 47.5634L34.7318 31.6186C34.8106 31.4623 35.0469 31.3059 35.2831 31.2278C35.5194 31.1496 35.7557 31.2278 35.9132 31.3059L36.0707 31.3841L33.8655 23.4117L25.8324 25.522L25.9899 25.6784C26.1474 25.7565 26.3049 25.991 26.3837 26.2255C26.4624 26.46 26.3837 26.6944 26.3049 26.8508L19.8469 37.9496Z" fill="white"/>
<path d="M75.2124 38.8095H62.06C61.745 38.8095 61.5087 38.6532 61.3512 38.4187L55.9958 29.1957C55.7595 28.8049 55.917 28.2578 56.3108 28.0233L66.1554 22.3957C66.3129 22.3175 66.5491 22.2394 66.7854 22.3175C67.0217 22.3957 67.1792 22.552 67.3367 22.7083L75.9999 37.5589C76.1574 37.7934 76.1574 38.106 75.9999 38.4187C75.7637 38.6532 75.4486 38.8095 75.2124 38.8095ZM62.5326 37.0899H73.716L66.2341 24.1934L57.8859 28.9612L62.5326 37.0899Z" fill="white"/>
<path d="M75.2125 37.9495L68.5969 49.2828H55.1296V51.4713L47.2539 43.5771L55.1296 35.761V37.9495H75.2125Z" fill="white"/>
<path d="M55.1294 52.3307C54.8932 52.3307 54.6569 52.2526 54.4994 52.0963L46.6237 44.202C46.3087 43.8894 46.3087 43.3422 46.6237 43.0296L54.4994 35.1354C54.7356 34.9009 55.1294 34.8227 55.4444 34.979C55.7595 35.1354 55.9957 35.448 55.9957 35.7606V37.1675H75.1336C75.4486 37.1675 75.6849 37.3239 75.8424 37.5583C75.9999 37.7928 75.9999 38.1055 75.8424 38.4181L69.3056 49.7514C69.1481 49.9859 68.9118 50.1422 68.5968 50.1422H55.9957V51.471C55.9957 51.7836 55.7595 52.0963 55.4444 52.2526C55.3657 52.3308 55.2869 52.3307 55.1294 52.3307ZM48.4351 43.5767L54.2631 49.4388V49.2825C54.2631 49.048 54.3419 48.8135 54.4994 48.6572C54.6569 48.5009 54.8932 48.4227 55.1294 48.4227H68.1242L73.716 38.8089H55.1294C54.6569 38.8089 54.2631 38.4181 54.2631 37.9491V37.7928L48.4351 43.5767Z" fill="white"/>
<path d="M41.7408 22.8645C41.5833 22.8645 41.4258 22.8644 41.347 22.7863L31.5025 17.1587C31.1087 16.9242 30.9512 16.3771 31.1874 15.9863L39.8506 1.13571C40.0082 0.82307 40.2444 0.666748 40.5594 0.666748C40.8745 0.666748 41.1107 0.82307 41.2683 1.05755L47.8838 12.3909C48.0413 12.6254 48.0413 12.938 47.8838 13.2507L42.5284 22.4736C42.4496 22.63 42.2133 22.7863 41.9771 22.8645C41.8983 22.8645 41.8196 22.8645 41.7408 22.8645ZM33.0776 16.0645L41.4258 20.8323L46.1512 12.7817L40.5594 3.1679L33.0776 16.0645Z" fill="white"/>
<path d="M40.5596 1.52661H53.7119L60.4062 13.0944L62.3751 12.0002L59.4611 22.7082L48.6715 19.8163L50.5616 18.722L45.1274 9.26454L40.5596 1.52661Z" fill="white"/>
<path d="M59.4612 23.5679C59.3824 23.5679 59.3036 23.5679 59.2249 23.5679L48.4353 20.6759C48.1202 20.5978 47.884 20.2851 47.8052 19.9725C47.7264 19.6599 47.9627 19.269 48.199 19.1127L49.3803 18.4093L39.8508 1.91732C39.6933 1.68284 39.6933 1.3702 39.8508 1.05755C40.0083 0.82307 40.2446 0.666748 40.5596 0.666748H53.7119C54.027 0.666748 54.2632 0.82307 54.4207 1.05755L60.7213 11.9219L61.9026 11.2185C62.2176 11.0622 62.5327 11.0622 62.8477 11.2966C63.084 11.5311 63.2415 11.8438 63.1627 12.1564L60.2487 22.8644C60.17 23.0989 60.0125 23.2553 59.8549 23.4116C59.7762 23.4897 59.6187 23.5679 59.4612 23.5679ZM50.8767 19.5817L58.9099 21.692L61.0363 13.7196L60.8788 13.7978C60.6425 13.9541 60.4062 13.9541 60.17 13.8759C59.9337 13.7978 59.7762 13.6415 59.6187 13.4851L53.2394 2.38629H42.056L51.3492 18.3311C51.5855 18.7219 51.428 19.269 51.0342 19.5035L50.8767 19.5817Z" fill="white"/>
</svg>
