<svg width="56" height="52" viewBox="0 0 56 52" fill="none" xmlns="http://www.w3.org/2000/svg">
<path d="M46.4174 46.41C46.4174 20.7825 25.8555 0 0.5 0V46.41H46.4174Z" fill="#FF972F"/>
<path d="M30.0813 44.4341C31.9105 44.4341 33.3611 45.9003 33.3611 47.7491C33.3611 49.5978 31.9105 51.0641 30.0813 51.0641C28.2522 51.0641 26.8015 49.5978 26.8015 47.7491C26.8015 45.9003 28.2522 44.4341 30.0813 44.4341Z" fill="white"/>
<path d="M53.5447 23.2048C53.0401 23.2048 52.4725 23.0136 52.094 22.5673C46.3544 16.3198 38.5333 12.8773 30.1445 12.8773C21.7557 12.8773 13.9977 16.3198 8.25802 22.5673C7.50114 23.3961 6.23968 23.3961 5.48279 22.6948C4.66284 21.9298 4.66284 20.6548 5.35665 19.8898C11.8532 12.7498 20.6835 8.86108 30.1445 8.86108C39.6055 8.86108 48.4358 12.7498 54.9323 19.8261C55.6892 20.6548 55.6261 21.9298 54.8062 22.6311C54.4908 23.0136 53.9862 23.2048 53.5447 23.2048Z" fill="white"/>
<path d="M46.2913 31.4928C45.7867 31.4928 45.2822 31.3016 44.9037 30.9191C40.867 26.7753 35.6319 24.4803 30.1445 24.4803C24.7202 24.4803 19.4851 26.7753 15.3854 30.9191C14.6285 31.6841 13.367 31.6841 12.6101 30.9191C11.8533 30.1541 11.8533 28.8791 12.6101 28.1141C17.4037 23.2053 23.648 20.5278 30.1445 20.5278C36.6411 20.5278 42.8854 23.2053 47.6789 28.1141C48.4358 28.8791 48.4358 30.1541 47.6789 30.9191C47.3005 31.3016 46.7959 31.4928 46.2913 31.4928Z" fill="white"/>
<path d="M21.7558 39.7801C21.2512 39.7801 20.7466 39.5888 20.3682 39.2063C19.6113 38.4413 19.6113 37.1663 20.3682 36.4013C22.9542 33.8513 26.6125 32.1938 30.0184 32.1938H30.1446C33.4875 32.1938 37.2088 33.7876 39.7948 36.4013C40.5517 37.1663 40.5517 38.4413 39.7948 39.2063C39.0379 39.9713 37.7765 39.9713 37.0196 39.2063C35.1904 37.3576 32.4783 36.2101 30.1446 36.2101H30.0184C27.6847 36.2101 25.0356 37.4213 23.1434 39.2063C22.765 39.5888 22.2604 39.7801 21.7558 39.7801Z" fill="white"/>
</svg>
