<svg width="27" height="27" viewBox="0 0 27 27" fill="none" xmlns="http://www.w3.org/2000/svg">
<path d="M5.90625 0C6.13003 0 6.34464 0.0888949 6.50287 0.247129C6.66111 0.405362 6.75 0.619974 6.75 0.84375V1.6875H20.25V0.84375C20.25 0.619974 20.3389 0.405362 20.4971 0.247129C20.6554 0.0888949 20.87 0 21.0938 0C21.3175 0 21.5321 0.0888949 21.6904 0.247129C21.8486 0.405362 21.9375 0.619974 21.9375 0.84375V1.6875H23.625C24.5201 1.6875 25.3785 2.04308 26.0115 2.67601C26.6444 3.30895 27 4.16739 27 5.0625V23.625C27 24.5201 26.6444 25.3785 26.0115 26.0115C25.3785 26.6444 24.5201 27 23.625 27H3.375C2.47989 27 1.62145 26.6444 0.988515 26.0115C0.355579 25.3785 0 24.5201 0 23.625V5.0625C0 4.16739 0.355579 3.30895 0.988515 2.67601C1.62145 2.04308 2.47989 1.6875 3.375 1.6875H5.0625V0.84375C5.0625 0.619974 5.15139 0.405362 5.30963 0.247129C5.46786 0.0888949 5.68247 0 5.90625 0V0ZM1.6875 6.75V23.625C1.6875 24.0726 1.86529 24.5018 2.18176 24.8182C2.49822 25.1347 2.92745 25.3125 3.375 25.3125H23.625C24.0726 25.3125 24.5018 25.1347 24.8182 24.8182C25.1347 24.5018 25.3125 24.0726 25.3125 23.625V6.75H1.6875Z" fill="white"/>
</svg>
