<svg width="27" height="32" viewBox="0 0 27 32" fill="none" xmlns="http://www.w3.org/2000/svg">
<path d="M7.25 3.14282H3.08333C2.5308 3.14282 2.0009 3.36859 1.61019 3.77045C1.21949 4.17231 1 4.71736 1 5.28568V28.8571C1 29.4254 1.21949 29.9705 1.61019 30.3723C2.0009 30.7742 2.5308 31 3.08333 31H23.9167C24.4692 31 24.9991 30.7742 25.3898 30.3723C25.7805 29.9705 26 29.4254 26 28.8571V5.28568C26 4.71736 25.7805 4.17231 25.3898 3.77045C24.9991 3.36859 24.4692 3.14282 23.9167 3.14282H19.75" stroke="white" strokeWidth="2" strokeLinecap="round" strokeLinejoin="round"/>
<path fillRule="evenodd" clipRule="evenodd" d="M9.33333 1H17.6667C18.2192 1 18.7491 1.22576 19.1398 1.62763C19.5305 2.02949 19.75 2.57454 19.75 3.14286C19.75 3.71118 19.5305 4.25622 19.1398 4.65809C18.7491 5.05995 18.2192 5.28571 17.6667 5.28571H9.33333C8.7808 5.28571 8.2509 5.05995 7.86019 4.65809C7.46949 4.25622 7.25 3.71118 7.25 3.14286C7.25 2.57454 7.46949 2.02949 7.86019 1.62763C8.2509 1.22576 8.7808 1 9.33333 1Z" stroke="white" strokeWidth="2" strokeLinecap="round" strokeLinejoin="round"/>
<path d="M11.4165 11.7142H21.8332" stroke="white" strokeWidth="2" strokeLinecap="round" strokeLinejoin="round"/>
<path d="M11.4165 18.1428H21.8332" stroke="white" strokeWidth="2" strokeLinecap="round" strokeLinejoin="round"/>
<path d="M11.4165 24.5714H21.8332" stroke="white" strokeWidth="2" strokeLinecap="round" strokeLinejoin="round"/>
<path d="M5.1665 11.7142H7.24984" stroke="white" strokeWidth="2" strokeLinecap="round" strokeLinejoin="round"/>
<path d="M5.1665 18.1428H7.24984" stroke="white" strokeWidth="2" strokeLinecap="round" strokeLinejoin="round"/>
<path d="M5.1665 24.5714H7.24984" stroke="white" strokeWidth="2" strokeLinecap="round" strokeLinejoin="round"/>
</svg>
