<svg width="26" height="26" viewBox="0 0 26 26" fill="none" xmlns="http://www.w3.org/2000/svg">
<path d="M3.71436 3.72412C3.71436 2.73946 4.10568 1.79514 4.80224 1.09888C5.49881 0.402627 6.44355 0.0114746 7.42864 0.0114746C8.41373 0.0114746 9.35847 0.402627 10.055 1.09888C10.7516 1.79514 11.1429 2.73946 11.1429 3.72412C11.1429 4.70877 10.7516 5.6531 10.055 6.34935C9.35847 7.04561 8.41373 7.43676 7.42864 7.43676C6.44355 7.43676 5.49881 7.04561 4.80224 6.34935C4.10568 5.6531 3.71436 4.70877 3.71436 3.72412ZM7.42864 1.8678C6.9361 1.8678 6.46373 2.06337 6.11544 2.4115C5.76716 2.75963 5.5715 3.23179 5.5715 3.72412C5.5715 4.21644 5.76716 4.68861 6.11544 5.03673C6.46373 5.38486 6.9361 5.58044 7.42864 5.58044C7.92119 5.58044 8.39356 5.38486 8.74184 5.03673C9.09012 4.68861 9.28578 4.21644 9.28578 3.72412C9.28578 3.23179 9.09012 2.75963 8.74184 2.4115C8.39356 2.06337 7.92119 1.8678 7.42864 1.8678Z" fill="#7D7C7A"/>
<path d="M16.3039 6.66456C15.9148 6.36791 15.5882 5.99733 15.3429 5.57411C15.0975 5.1509 14.9383 4.6834 14.8742 4.19847C14.8102 3.71354 14.8427 3.22074 14.9697 2.74839C15.0968 2.27604 15.3161 1.83345 15.6148 1.44605C15.9136 1.05864 16.286 0.734071 16.7106 0.490975C17.1352 0.247878 17.6038 0.0910521 18.0892 0.0295065C18.5747 -0.032039 19.0675 0.00290949 19.5394 0.132344C20.0113 0.261779 20.453 0.483148 20.8391 0.783732C21.5992 1.3915 22.0902 2.27323 22.2066 3.23922C22.3229 4.2052 22.0552 5.17823 21.4611 5.94894C20.867 6.71965 19.994 7.22644 19.0298 7.36027C18.0657 7.49411 17.0875 7.24428 16.3058 6.66456H16.3039ZM18.5715 1.86782C18.079 1.86782 17.6066 2.0634 17.2583 2.41153C16.91 2.75965 16.7144 3.23182 16.7144 3.72414C16.7144 4.21647 16.91 4.68863 17.2583 5.03676C17.6066 5.38489 18.079 5.58047 18.5715 5.58047C19.064 5.58047 19.5364 5.38489 19.8847 5.03676C20.233 4.68863 20.4286 4.21647 20.4286 3.72414C20.4286 3.23182 20.233 2.75965 19.8847 2.41153C19.5364 2.0634 19.064 1.86782 18.5715 1.86782Z" fill="#7D7C7A"/>
<path d="M2.78571 9.29297H7.74429C7.54 9.874 7.42857 10.4996 7.42857 11.1493H2.78571C2.53944 11.1493 2.30326 11.2471 2.12912 11.4211C1.95497 11.5952 1.85714 11.8313 1.85714 12.0775C1.85714 13.5941 2.46071 14.719 3.41343 15.4838C3.85171 15.8365 4.37729 16.1205 4.97157 16.3284C4.53516 16.7921 4.19885 17.3406 3.98357 17.9397C3.36019 17.6894 2.77652 17.3499 2.25086 16.9317C0.854286 15.8087 0 14.1491 0 12.0775C0 11.339 0.293494 10.6307 0.815917 10.1085C1.33834 9.58633 2.0469 9.29297 2.78571 9.29297Z" fill="#7D7C7A"/>
<path d="M9.78304 9.29316C9.29049 10.1464 9.1572 11.1602 9.4125 12.1116C9.66779 13.0631 10.2907 13.8742 11.1443 14.3665C11.9979 14.8588 13.0122 14.992 13.964 14.7369C14.9159 14.4817 15.7274 13.859 16.2199 13.0058C16.7124 12.1526 16.8457 11.1388 16.5904 10.1873C16.3351 9.2359 15.7122 8.4248 14.8586 7.93248C14.005 7.44015 12.9907 7.30692 12.0389 7.5621C11.087 7.81727 10.2756 8.43996 9.78304 9.29316ZM12.5836 9.33957C12.8557 9.27813 13.1382 9.27856 13.4101 9.34084C13.682 9.40311 13.9364 9.52564 14.1546 9.69937C14.3728 9.8731 14.5492 10.0936 14.6707 10.3446C14.7922 10.5956 14.8558 10.8706 14.8568 11.1495C14.8566 11.4988 14.7579 11.8409 14.5719 12.1366C14.386 12.4323 14.1203 12.6696 13.8055 12.8211C13.4907 12.9727 13.1395 13.0324 12.7923 12.9934C12.445 12.9544 12.1158 12.8183 11.8425 12.6007C11.5692 12.3831 11.3628 12.0928 11.2472 11.7632C11.1315 11.4336 11.1112 11.0781 11.1886 10.7375C11.266 10.3969 11.438 10.0851 11.6847 9.83778C11.9315 9.59049 12.2431 9.4178 12.5836 9.33957Z" fill="#7D7C7A"/>
<path d="M22.5867 15.4838C22.1484 15.8365 21.6229 16.1205 21.0286 16.3284C21.4643 16.7923 21.8 17.3407 22.0147 17.9397C22.6461 17.6817 23.2311 17.3457 23.7493 16.9317C25.1459 15.8087 26.0001 14.1491 26.0001 12.0775C26.0001 11.339 25.7067 10.6307 25.1842 10.1085C24.6618 9.58633 23.9532 9.29297 23.2144 9.29297H18.2559C18.4601 9.874 18.5716 10.4996 18.5716 11.1493H23.2144C23.4607 11.1493 23.6969 11.2471 23.871 11.4211C24.0452 11.5952 24.143 11.8313 24.143 12.0775C24.143 13.5941 23.5394 14.719 22.5867 15.4838Z" fill="#7D7C7A"/>
<path d="M17.6427 16.7183C18.3815 16.7183 19.0901 17.0116 19.6125 17.5338C20.1349 18.056 20.4284 18.7643 20.4284 19.5028C20.4284 21.5744 19.576 23.234 18.1776 24.357C16.8014 25.4615 14.9554 25.9999 12.9999 25.9999C11.0443 25.9999 9.1983 25.4615 7.82216 24.357C6.42558 23.234 5.5713 21.5744 5.5713 19.5028C5.57032 19.1368 5.6417 18.7743 5.78135 18.436C5.921 18.0977 6.12616 17.7904 6.38503 17.5316C6.6439 17.2729 6.95139 17.0678 7.28981 16.9282C7.62823 16.7886 7.99091 16.7173 8.35701 16.7183H17.6427ZM17.6427 18.5746H8.35701C8.11074 18.5746 7.87456 18.6724 7.70041 18.8464C7.52627 19.0205 7.42844 19.2566 7.42844 19.5028C7.42844 21.0194 8.03201 22.1443 8.98473 22.9091C9.96158 23.6925 11.3656 24.1436 12.9999 24.1436C14.6342 24.1436 16.0382 23.6925 17.015 22.9091C17.9677 22.1443 18.5713 21.0194 18.5713 19.5028C18.5713 19.2566 18.4735 19.0205 18.2993 18.8464C18.1252 18.6724 17.889 18.5746 17.6427 18.5746Z" fill="#7D7C7A"/>
</svg>
