<svg width="26" height="29" viewBox="0 0 26 29" fill="none" xmlns="http://www.w3.org/2000/svg">
<path d="M6.76667 13.5333H5.8V15.4667H6.76667V13.5333ZM18.3667 15.4667H19.3333V13.5333H18.3667V15.4667ZM6.76667 7.73333H5.8V9.66667H6.76667V7.73333ZM10.6333 9.66667H11.6V7.73333H10.6333V9.66667ZM18.3667 0.966667L19.0511 0.282267L18.7669 0H18.3667V0.966667ZM24.1667 6.76667H25.1333V6.36647L24.8511 6.08227L24.1667 6.76667V6.76667ZM13.5333 21.2667L12.8489 21.9511L13.5333 21.2667ZM12.5667 22.2333L12.9997 23.0975L13.0771 23.0589L13.1467 23.0067L12.5667 22.2333ZM6.76667 15.4667H18.3667V13.5333H6.76667V15.4667ZM6.76667 9.66667H10.6333V7.73333H6.76667V9.66667ZM22.2333 27.0667H2.9V29H22.2333V27.0667ZM1.93333 26.1V2.9H0V26.1H1.93333ZM2.9 1.93333H18.3667V0H2.9V1.93333ZM23.2 6.76667V26.1H25.1333V6.76667H23.2ZM17.6823 1.65107L23.4823 7.45107L24.8511 6.08227L19.0511 0.282267L17.6823 1.65107V1.65107ZM2.9 27.0667C2.64362 27.0667 2.39775 26.9648 2.21646 26.7835C2.03518 26.6023 1.93333 26.3564 1.93333 26.1H0C0 26.8691 0.305535 27.6068 0.849391 28.1506C1.39325 28.6945 2.13087 29 2.9 29V27.0667ZM22.2333 29C23.0025 29 23.7401 28.6945 24.2839 28.1506C24.8278 27.6068 25.1333 26.8691 25.1333 26.1H23.2C23.2 26.3564 23.0982 26.6023 22.9169 26.7835C22.7356 26.9648 22.4897 27.0667 22.2333 27.0667V29ZM1.93333 2.9C1.93333 2.64362 2.03518 2.39775 2.21646 2.21646C2.39775 2.03518 2.64362 1.93333 2.9 1.93333V0C2.13087 0 1.39325 0.305535 0.849391 0.84939C0.305535 1.39325 0 2.13087 0 2.9H1.93333ZM8.64973 22.5388C8.86433 21.895 9.47527 21.2976 10.2544 21.0888C10.9833 20.8935 11.9209 21.0211 12.8489 21.9511L14.2177 20.5823C12.8257 19.1903 11.1843 18.8365 9.75367 19.2212C8.3752 19.5924 7.24613 20.6383 6.815 21.9279L8.65167 22.5388H8.64973ZM12.8489 21.9511C12.9033 22.0039 12.9543 22.06 13.0017 22.1193L14.529 20.9322C14.4326 20.8099 14.3286 20.6936 14.2177 20.5842L12.8489 21.9511ZM13.0017 22.1193C13.1525 22.3126 13.1177 22.3745 13.1235 22.3319C13.1273 22.3049 13.1351 22.3493 13.0191 22.4537C12.8519 22.5935 12.6624 22.7039 12.4584 22.7805C12.2133 22.8791 11.9577 22.9491 11.6967 22.9893C11.5374 23.0196 11.3745 23.0261 11.2133 23.0086C11.1805 23.0009 11.2481 23.0086 11.3487 23.0801C11.472 23.1753 11.5626 23.3064 11.608 23.4554C11.6533 23.6044 11.6512 23.7637 11.6019 23.9115C11.591 23.9435 11.576 23.974 11.5575 24.0023C11.5536 24.0062 11.5865 23.9637 11.6967 23.8728C11.9171 23.6949 12.3231 23.4359 12.9997 23.0995L12.1336 21.3691C11.4047 21.7326 10.8576 22.0651 10.4825 22.3687C10.2923 22.5171 10.1232 22.6908 9.97987 22.8849C9.79754 23.1289 9.70225 23.4271 9.7092 23.7317C9.72853 24.1493 9.95473 24.4567 10.2022 24.6365C10.4207 24.7989 10.6623 24.8685 10.8402 24.9052C11.2017 24.9767 11.6135 24.9574 11.9867 24.9013C12.7213 24.7892 13.6725 24.4721 14.3202 23.8844C14.6566 23.577 14.9756 23.1362 15.0433 22.5581C15.1129 21.9665 14.9002 21.4117 14.5271 20.9341L12.9997 22.1193H13.0017ZM13.1467 23.0067C13.456 22.7701 13.7921 22.5709 14.1481 22.4131L13.3806 20.6383C12.9166 20.8394 12.4526 21.112 11.9867 21.46L13.1467 23.0067V23.0067ZM14.1481 22.4131C15.4048 21.8699 16.5281 22.156 17.6784 22.7031C17.9684 22.8423 18.2507 22.9931 18.5368 23.1478C18.8152 23.2986 19.1091 23.4591 19.3875 23.6021C19.9211 23.8709 20.5823 24.1667 21.2667 24.1667V22.2333C21.0849 22.2333 20.7872 22.1425 20.2613 21.8776C20.0139 21.75 19.7548 21.6069 19.4571 21.4465C19.1671 21.2899 18.8461 21.1178 18.5097 20.9593C17.1603 20.3155 15.3951 19.7683 13.3806 20.6383L14.1481 22.4131V22.4131Z" fill="white"/>
</svg>
