<svg width="30" height="29" viewBox="0 0 30 29" fill="none" xmlns="http://www.w3.org/2000/svg">
<g clip-path="url(#clip0_674_3178)">
<path fill-rule="evenodd" clip-rule="evenodd" d="M6.24414 14.9442C6.24414 19.6203 9.64028 23.5087 14.082 24.2971V17.5041H11.7306V14.8917H14.082V12.8014C14.082 10.45 15.597 9.14425 17.7399 9.14425C18.4187 9.14425 19.1507 9.24849 19.8295 9.35273V11.7566H18.6279C17.4781 11.7566 17.2171 12.3311 17.2171 13.0632V14.8917H19.7252L19.3075 17.5041H17.2171V24.2971C21.6588 23.5087 25.055 19.6211 25.055 14.9442C25.055 9.74227 20.8225 5.48633 15.6495 5.48633C10.4766 5.48633 6.24414 9.74227 6.24414 14.9442Z" fill="#FF972F"/>
</g>
<circle cx="15.2578" cy="14.5" r="14.1081" stroke="#FF972F" stroke-width="0.783784"/>
<defs>
<clipPath id="clip0_674_3178">
<rect width="18.8108" height="18.8108" fill="white" transform="translate(6.24414 5.48633)"/>
</clipPath>
</defs>
</svg>
