<svg width="30" height="29" viewBox="0 0 30 29" fill="none" xmlns="http://www.w3.org/2000/svg">
<g clip-path="url(#clip0_786_3592)">
<path fill-rule="evenodd" clip-rule="evenodd" d="M6.24414 14.9444C6.24414 19.6205 9.64028 23.5088 14.082 24.2973V17.5043H11.7306V14.8919H14.082V12.8016C14.082 10.4502 15.597 9.14443 17.7399 9.14443C18.4187 9.14443 19.1507 9.24867 19.8295 9.35292V11.7568H18.6279C17.4781 11.7568 17.2171 12.3313 17.2171 13.0633V14.8919H19.7252L19.3075 17.5043H17.2171V24.2973C21.6588 23.5088 25.055 19.6213 25.055 14.9444C25.055 9.74246 20.8225 5.48651 15.6495 5.48651C10.4766 5.48651 6.24414 9.74246 6.24414 14.9444Z" fill="#4F4949"/>
</g>
<circle cx="15.2578" cy="14.5" r="14.1081" stroke="#4F4949" stroke-width="0.783784"/>
<defs>
<clipPath id="clip0_786_3592">
<rect width="18.8108" height="18.8108" fill="white" transform="translate(6.24414 5.48651)"/>
</clipPath>
</defs>
</svg>
