<svg width="71" height="71" viewBox="0 0 71 71" fill="none" xmlns="http://www.w3.org/2000/svg">
<path fill-rule="evenodd" clip-rule="evenodd" d="M35.5 0C15.8922 0 0 15.8951 0 35.5C0 55.1049 15.8922 71 35.5 71C55.1049 71 71 55.1049 71 35.5C71 15.8951 55.1049 0 35.5 0ZM35.9142 56.2616C24.4713 56.2616 15.2058 46.9724 15.2058 35.5C15.2058 24.0276 24.4713 14.7384 35.9142 14.7384C41.5054 14.7384 46.1796 16.8004 49.7651 20.1492L43.9253 26.0008V25.989C41.751 23.9122 38.9938 22.8472 35.9142 22.8472C29.0804 22.8472 23.5276 28.6337 23.5276 35.4882C23.5276 42.3367 29.0804 48.141 35.9142 48.141C42.1148 48.141 46.3334 44.585 47.2032 39.7038H35.9142V31.6068H55.3948C55.6551 32.9972 55.7942 34.4468 55.7942 35.9674C55.7942 47.8303 47.8747 56.2616 35.9142 56.2616Z" fill="#FF972F"/>
</svg>
