<svg width="32" height="32" viewBox="0 0 32 32" fill="none" xmlns="http://www.w3.org/2000/svg">
<path d="M16 0.25C7.30234 0.25 0.25 7.30234 0.25 16C0.25 24.6977 7.30234 31.75 16 31.75C24.6977 31.75 31.75 24.6977 31.75 16C31.75 7.30234 24.6977 0.25 16 0.25ZM17.125 23.5938C17.125 23.7484 16.9984 23.875 16.8438 23.875H15.1562C15.0016 23.875 14.875 23.7484 14.875 23.5938V14.0312C14.875 13.8766 15.0016 13.75 15.1562 13.75H16.8438C16.9984 13.75 17.125 13.8766 17.125 14.0312V23.5938ZM16 11.5C15.5584 11.491 15.138 11.3092 14.8288 10.9937C14.5197 10.6783 14.3466 10.2542 14.3466 9.8125C14.3466 9.37082 14.5197 8.94674 14.8288 8.63125C15.138 8.31576 15.5584 8.13401 16 8.125C16.4416 8.13401 16.8621 8.31576 17.1712 8.63125C17.4803 8.94674 17.6534 9.37082 17.6534 9.8125C17.6534 10.2542 17.4803 10.6783 17.1712 10.9937C16.8621 11.3092 16.4416 11.491 16 11.5Z" fill="#004B2A"/>
</svg>
