<svg width="29" height="29" viewBox="0 0 29 29" fill="none" xmlns="http://www.w3.org/2000/svg">
<path fill-rule="evenodd" clip-rule="evenodd" d="M11.3377 6.32218C12.257 6.27985 12.5502 6.27045 14.8921 6.27045C17.2341 6.27045 17.5272 6.28064 18.4458 6.32218C19.3644 6.36372 19.9914 6.51028 20.5401 6.72269C21.1146 6.9398 21.6358 7.27918 22.0669 7.7181C22.5058 8.14839 22.8444 8.66883 23.0607 9.24412C23.2739 9.79277 23.4197 10.4198 23.462 11.3368C23.5043 12.2578 23.5138 12.5509 23.5138 14.8921C23.5138 17.234 23.5036 17.5272 23.462 18.4465C23.4205 19.3636 23.2739 19.9906 23.0607 20.5392C22.8444 21.1146 22.5052 21.6359 22.0669 22.0668C21.6358 22.5057 21.1146 22.8443 20.5401 23.0607C19.9914 23.2739 19.3644 23.4196 18.4474 23.462C17.5272 23.5043 17.2341 23.5137 14.8921 23.5137C12.5502 23.5137 12.257 23.5035 11.3377 23.462C10.4206 23.4204 9.79362 23.2739 9.24497 23.0607C8.66961 22.8443 8.14831 22.5052 7.71737 22.0668C7.27875 21.6363 6.93932 21.1152 6.72275 20.54C6.51035 19.9914 6.36456 19.3643 6.32224 18.4473C6.27991 17.5264 6.27051 17.2332 6.27051 14.8921C6.27051 12.5501 6.2807 12.257 6.32224 11.3384C6.36378 10.4198 6.51035 9.79277 6.72275 9.24412C6.93964 8.66889 7.27933 8.14785 7.71816 7.71731C8.14849 7.27879 8.66926 6.93936 9.24418 6.72269C9.79283 6.51028 10.4199 6.3645 11.3369 6.32218H11.3377ZM18.376 7.87407C17.4669 7.83253 17.1941 7.82391 14.8921 7.82391C12.5902 7.82391 12.3174 7.83253 11.4082 7.87407C10.5672 7.91247 10.111 8.05277 9.80694 8.17112C9.40486 8.32788 9.11721 8.51364 8.81545 8.81539C8.52941 9.09368 8.30927 9.43245 8.17118 9.80688C8.05283 10.111 7.91253 10.5671 7.87413 11.4081C7.83259 12.3173 7.82397 12.5901 7.82397 14.8921C7.82397 17.194 7.83259 17.4668 7.87413 18.376C7.91253 19.217 8.05283 19.6732 8.17118 19.9773C8.30913 20.3511 8.52937 20.6905 8.81545 20.9687C9.0937 21.2548 9.43308 21.4751 9.80694 21.613C10.111 21.7314 10.5672 21.8717 11.4082 21.9101C12.3174 21.9516 12.5894 21.9602 14.8921 21.9602C17.1949 21.9602 17.4669 21.9516 18.376 21.9101C19.217 21.8717 19.6732 21.7314 19.9773 21.613C20.3794 21.4563 20.667 21.2705 20.9688 20.9687C21.2549 20.6905 21.4751 20.3511 21.6131 19.9773C21.7314 19.6732 21.8717 19.217 21.9101 18.376C21.9517 17.4668 21.9603 17.194 21.9603 14.8921C21.9603 12.5901 21.9517 12.3173 21.9101 11.4081C21.8717 10.5671 21.7314 10.111 21.6131 9.80688C21.4563 9.4048 21.2706 9.11715 20.9688 8.81539C20.6905 8.52937 20.3517 8.30923 19.9773 8.17112C19.6732 8.05277 19.217 7.91247 18.376 7.87407ZM13.7909 17.5499C14.4059 17.8059 15.0907 17.8404 15.7284 17.6476C16.366 17.4548 16.917 17.0466 17.2871 16.4927C17.6572 15.9389 17.8235 15.2737 17.7577 14.6108C17.6918 13.9479 17.3979 13.3284 16.926 12.8582C16.6253 12.5576 16.2616 12.3274 15.8611 12.1842C15.4607 12.041 15.0335 11.9884 14.6104 12.0302C14.1872 12.0719 13.7785 12.207 13.4138 12.4256C13.049 12.6442 12.7373 12.941 12.501 13.2946C12.2648 13.6482 12.1098 14.0497 12.0474 14.4704C11.985 14.891 12.0165 15.3202 12.1399 15.7272C12.2633 16.1342 12.4753 16.5087 12.7608 16.8239C13.0463 17.139 13.3981 17.387 13.7909 17.5499ZM11.7586 11.7585C12.1701 11.347 12.6586 11.0206 13.1963 10.7979C13.7339 10.5752 14.3102 10.4605 14.8921 10.4605C15.4741 10.4605 16.0503 10.5752 16.588 10.7979C17.1257 11.0206 17.6142 11.347 18.0257 11.7585C18.4372 12.17 18.7636 12.6585 18.9863 13.1962C19.209 13.7339 19.3237 14.3101 19.3237 14.8921C19.3237 15.474 19.209 16.0503 18.9863 16.5879C18.7636 17.1256 18.4372 17.6141 18.0257 18.0256C17.1946 18.8567 16.0674 19.3236 14.8921 19.3236C13.7168 19.3236 12.5896 18.8567 11.7586 18.0256C10.9275 17.1946 10.4606 16.0674 10.4606 14.8921C10.4606 13.7168 10.9275 12.5896 11.7586 11.7585ZM20.3065 11.1205C20.4085 11.0243 20.4901 10.9086 20.5466 10.7803C20.6031 10.652 20.6332 10.5137 20.6352 10.3735C20.6373 10.2333 20.6112 10.0942 20.5585 9.96427C20.5058 9.83437 20.4276 9.71636 20.3284 9.61723C20.2293 9.51811 20.1113 9.43988 19.9814 9.38718C19.8515 9.33448 19.7123 9.30837 19.5722 9.31042C19.432 9.31246 19.2937 9.34261 19.1653 9.39907C19.037 9.45554 18.9214 9.53718 18.8252 9.63915C18.6381 9.83747 18.5357 10.1009 18.5396 10.3735C18.5436 10.6461 18.6537 10.9064 18.8464 11.0992C19.0392 11.292 19.2996 11.4021 19.5722 11.406C19.8448 11.41 20.1082 11.3076 20.3065 11.1205Z" fill="#4F4949"/>
<circle cx="14.5" cy="14.5" r="14.1081" stroke="#4F4949" stroke-width="0.783784"/>
</svg>
