<svg width="29" height="29" viewBox="0 0 29 29" fill="none" xmlns="http://www.w3.org/2000/svg">
<path fill-rule="evenodd" clip-rule="evenodd" d="M11.3367 6.32224C12.2561 6.27991 12.5492 6.27051 14.8912 6.27051C17.2331 6.27051 17.5262 6.2807 18.4448 6.32224C19.3634 6.36378 19.9905 6.51035 20.5391 6.72275C21.1136 6.93986 21.6348 7.27924 22.0659 7.71816C22.5048 8.14845 22.8434 8.66889 23.0597 9.24418C23.2729 9.79283 23.4187 10.4199 23.461 11.3369C23.5034 12.2578 23.5128 12.551 23.5128 14.8921C23.5128 17.2341 23.5026 17.5272 23.461 18.4466C23.4195 19.3636 23.2729 19.9906 23.0597 20.5393C22.8434 21.1147 22.5043 21.636 22.0659 22.0669C21.6348 22.5058 21.1136 22.8444 20.5391 23.0607C19.9905 23.2739 19.3634 23.4197 18.4464 23.462C17.5262 23.5043 17.2331 23.5138 14.8912 23.5138C12.5492 23.5138 12.2561 23.5036 11.3367 23.462C10.4197 23.4205 9.79264 23.2739 9.24399 23.0607C8.66863 22.8444 8.14734 22.5052 7.7164 22.0669C7.27778 21.6363 6.93835 21.1153 6.72177 20.5401C6.50937 19.9914 6.36359 19.3644 6.32126 18.4474C6.27894 17.5264 6.26953 17.2333 6.26953 14.8921C6.26953 12.5502 6.27972 12.257 6.32126 11.3385C6.3628 10.4199 6.50937 9.79283 6.72177 9.24418C6.93867 8.66895 7.27835 8.14792 7.71718 7.71737C8.14751 7.27885 8.66828 6.93942 9.24321 6.72275C9.79186 6.51035 10.4189 6.36456 11.3359 6.32224H11.3367ZM18.3751 7.87413C17.4659 7.83259 17.1931 7.82397 14.8912 7.82397C12.5892 7.82397 12.3164 7.83259 11.4072 7.87413C10.5662 7.91253 10.1101 8.05283 9.80596 8.17118C9.40388 8.32794 9.11623 8.5137 8.81448 8.81545C8.52843 9.09374 8.30829 9.43251 8.17021 9.80694C8.05186 10.111 7.91156 10.5672 7.87315 11.4082C7.83161 12.3174 7.82299 12.5902 7.82299 14.8921C7.82299 17.1941 7.83161 17.4669 7.87315 18.376C7.91156 19.217 8.05186 19.6732 8.17021 19.9773C8.30815 20.3512 8.5284 20.6906 8.81448 20.9688C9.09272 21.2549 9.4321 21.4751 9.80596 21.6131C10.1101 21.7314 10.5662 21.8717 11.4072 21.9101C12.3164 21.9517 12.5884 21.9603 14.8912 21.9603C17.1939 21.9603 17.4659 21.9517 18.3751 21.9101C19.2161 21.8717 19.6722 21.7314 19.9763 21.6131C20.3784 21.4563 20.6661 21.2706 20.9678 20.9688C21.2539 20.6906 21.4742 20.3512 21.6121 19.9773C21.7305 19.6732 21.8707 19.217 21.9092 18.376C21.9507 17.4669 21.9593 17.1941 21.9593 14.8921C21.9593 12.5902 21.9507 12.3174 21.9092 11.4082C21.8707 10.5672 21.7305 10.111 21.6121 9.80694C21.4553 9.40486 21.2696 9.11721 20.9678 8.81545C20.6895 8.52943 20.3508 8.30929 19.9763 8.17118C19.6722 8.05283 19.2161 7.91253 18.3751 7.87413ZM13.7899 17.5499C14.4049 17.8059 15.0897 17.8405 15.7274 17.6477C16.365 17.4549 16.916 17.0467 17.2861 16.4928C17.6562 15.9389 17.8225 15.2737 17.7567 14.6108C17.6909 13.9479 17.3969 13.3285 16.9251 12.8582C16.6243 12.5576 16.2606 12.3274 15.8602 12.1843C15.4598 12.0411 15.0326 11.9885 14.6094 12.0302C14.1862 12.072 13.7775 12.207 13.4128 12.4257C13.0481 12.6443 12.7363 12.9411 12.5001 13.2947C12.2638 13.6482 12.1089 14.0498 12.0464 14.4704C11.984 14.8911 12.0156 15.3203 12.1389 15.7273C12.2623 16.1342 12.4743 16.5088 12.7598 16.8239C13.0453 17.1391 13.3971 17.3871 13.7899 17.5499ZM11.7576 11.7586C12.1691 11.3471 12.6576 11.0206 13.1953 10.7979C13.7329 10.5752 14.3092 10.4606 14.8912 10.4606C15.4731 10.4606 16.0494 10.5752 16.587 10.7979C17.1247 11.0206 17.6132 11.3471 18.0247 11.7586C18.4362 12.1701 18.7627 12.6586 18.9854 13.1963C19.2081 13.7339 19.3227 14.3102 19.3227 14.8921C19.3227 15.4741 19.2081 16.0503 18.9854 16.588C18.7627 17.1257 18.4362 17.6142 18.0247 18.0257C17.1936 18.8568 16.0665 19.3237 14.8912 19.3237C13.7158 19.3237 12.5887 18.8568 11.7576 18.0257C10.9265 17.1946 10.4596 16.0674 10.4596 14.8921C10.4596 13.7168 10.9265 12.5896 11.7576 11.7586ZM20.3055 11.1206C20.4075 11.0244 20.4891 10.9087 20.5456 10.7804C20.6021 10.6521 20.6322 10.5137 20.6343 10.3736C20.6363 10.2334 20.6102 10.0942 20.5575 9.96433C20.5048 9.83443 20.4266 9.71642 20.3274 9.6173C20.2283 9.51817 20.1103 9.43994 19.9804 9.38724C19.8505 9.33454 19.7114 9.30843 19.5712 9.31048C19.431 9.31252 19.2927 9.34267 19.1644 9.39913C19.0361 9.4556 18.9204 9.53724 18.8242 9.63921C18.6371 9.83753 18.5347 10.101 18.5386 10.3736C18.5426 10.6462 18.6527 10.9065 18.8455 11.0993C19.0382 11.2921 19.2986 11.4021 19.5712 11.4061C19.8438 11.4101 20.1072 11.3076 20.3055 11.1206Z" fill="#FF972F"/>
<circle cx="14.5" cy="14.5" r="14.1081" stroke="#FF972F" stroke-width="0.783784"/>
</svg>
