<svg width="24" height="24" viewBox="0 0 24 24" fill="none" xmlns="http://www.w3.org/2000/svg">
<path d="M12.0038 24C5.38024 24 0 18.6274 0 12.0038C0 5.37256 5.37256 0 12.0115 0C18.6274 0 24 5.38024 24 11.9962C24 18.6198 18.6274 23.9923 12.0038 24ZM11.9808 19.2338C12.6869 19.2338 13.393 19.2414 14.0991 19.2338C14.7438 19.2261 15.3962 19.2184 16.0256 19.0803C17.6604 18.7195 18.6812 17.7218 19.0649 16.0947C19.2261 15.4269 19.2261 14.7362 19.2338 14.0608C19.2414 12.6792 19.2414 11.2977 19.2338 9.91621C19.2261 9.25616 19.2261 8.60378 19.0803 7.95139C18.7349 6.4087 17.8216 5.39559 16.2865 4.95811C15.6649 4.78158 15.0278 4.75088 14.3908 4.75088C12.7867 4.74321 11.1826 4.74321 9.58618 4.75088C9.03358 4.75088 8.48097 4.78158 7.93604 4.90438C6.43172 5.24209 5.42629 6.14007 4.98113 7.62904C4.78926 8.26607 4.75855 8.92613 4.75088 9.57851C4.7432 11.1826 4.7432 12.7944 4.75088 14.3985C4.75088 14.9511 4.78158 15.5037 4.90438 16.0486C5.27279 17.6681 6.26287 18.6812 7.87464 19.0649C8.5347 19.2261 9.21778 19.2261 9.89319 19.2338C10.5839 19.2414 11.2824 19.2338 11.9808 19.2338Z" fill="#4F4949"/>
<path d="M6.00977 11.9807C6.03279 10.9752 6.04814 9.96211 6.07884 8.95668C6.08652 8.55757 6.14792 8.17382 6.28607 7.79774C6.60075 6.91511 7.23011 6.40087 8.12809 6.18597C8.5579 6.0862 8.99538 6.0555 9.43286 6.0555C10.7146 6.04014 11.9963 6.03247 13.2781 6.03247C13.9458 6.03247 14.6212 6.05549 15.2889 6.10154C15.8339 6.13224 16.3481 6.27807 16.8009 6.60042C17.4149 7.0379 17.7219 7.65191 17.8294 8.38105C17.9369 9.1025 17.9369 9.82396 17.9369 10.5454C17.9369 11.8348 17.9292 13.1242 17.9215 14.4137C17.9138 14.9279 17.8985 15.4498 17.7603 15.9487C17.4687 17.0002 16.7702 17.6219 15.7111 17.8137C15.335 17.8828 14.9512 17.9212 14.5675 17.9212C12.8483 17.9289 11.129 17.9289 9.40216 17.9212C8.93397 17.9212 8.47347 17.8905 8.02064 17.7677C6.97683 17.476 6.37049 16.7853 6.15559 15.7338C6.02512 15.0967 6.04047 14.452 6.02512 13.815C6.00977 13.2087 6.02512 12.5947 6.02512 11.9883C6.02512 11.9807 6.01744 11.9807 6.00977 11.9807ZM11.9887 8.25825C9.95476 8.25057 8.27392 9.90839 8.26624 11.9423C8.25089 14.0146 9.90104 15.7031 11.958 15.7108C14.0302 15.7261 15.7034 14.0683 15.7188 12.0037C15.7264 9.93141 14.0686 8.26592 11.9887 8.25825ZM15.8569 8.9797C16.3404 8.9797 16.7319 8.58827 16.7242 8.10474C16.7242 7.62889 16.3251 7.24513 15.8492 7.24513C15.3657 7.24513 14.9743 7.64424 14.9819 8.12009C14.9896 8.59595 15.381 8.9797 15.8569 8.9797Z" fill="#4F4949"/>
<path d="M11.9803 9.55522C13.3158 9.54754 14.4056 10.6374 14.4133 11.9729C14.421 13.316 13.3388 14.4059 11.9957 14.4059C10.6602 14.4059 9.57034 13.3314 9.56266 11.9882C9.54731 10.6528 10.6372 9.56289 11.9803 9.55522Z" fill="#4F4949"/>
</svg>
