<svg width="34" height="40" viewBox="0 0 34 40" fill="#fff" xmlns="http://www.w3.org/2000/svg">
<path d="M22.4815 24.4615C22.2369 24.3815 20.6907 23.6846 21.6569 20.7477H21.643C24.1615 18.1538 26.0861 13.98 26.0861 9.87076C26.0861 3.5523 21.8846 0.23999 17.0015 0.23999C12.1154 0.23999 7.93689 3.55076 7.93689 9.87076C7.93689 13.9969 9.85074 18.1877 12.3846 20.7754C13.3723 23.3661 11.6061 24.3277 11.2369 24.4631C6.12305 26.3123 0.123047 29.6831 0.123047 33.0108V34.2585C0.123047 38.7923 8.91382 39.8231 17.0492 39.8231C25.1969 39.8231 33.8769 38.7923 33.8769 34.2585V33.0108C33.8769 29.5831 27.8477 26.2385 22.4815 24.4615Z" fill="#fff004B2A"/>
</svg>
