<svg width="18" height="13" viewBox="0 0 18 13" fill="none" xmlns="http://www.w3.org/2000/svg">
<path d="M8.31452 12.3077C8.39097 12.4187 8.49327 12.5095 8.6126 12.5722C8.73193 12.635 8.86471 12.6677 8.99952 12.6677C9.13433 12.6677 9.26711 12.635 9.38645 12.5722C9.50577 12.5095 9.60807 12.4187 9.68452 12.3077L17.1845 1.47437C17.2713 1.34942 17.3222 1.20306 17.3317 1.05121C17.3412 0.899354 17.3089 0.747806 17.2383 0.613032C17.1677 0.478257 17.0615 0.36541 16.9312 0.286752C16.801 0.208093 16.6517 0.166631 16.4995 0.166871H1.49952C1.34772 0.167498 1.19897 0.209493 1.06925 0.28834C0.939539 0.367187 0.833772 0.479903 0.763327 0.614365C0.692882 0.748828 0.660424 0.89995 0.669444 1.05148C0.678464 1.20301 0.728621 1.34921 0.81452 1.47437L8.31452 12.3077Z" fill="#5B5B5B"/>
</svg>
