<svg width="18" height="13" viewBox="0 0 18 13" fill="none" xmlns="http://www.w3.org/2000/svg">
<path d="M8.31501 0.692295C8.39146 0.581261 8.49375 0.490475 8.61308 0.427757C8.73241 0.365039 8.8652 0.332269 9.00001 0.332269C9.13482 0.332269 9.2676 0.365039 9.38693 0.427757C9.50626 0.490475 9.60856 0.581261 9.68501 0.692295L17.185 11.5256C17.2718 11.6506 17.3227 11.7969 17.3322 11.9488C17.3417 12.1006 17.3094 12.2522 17.2387 12.387C17.1681 12.5217 17.0619 12.6346 16.9317 12.7132C16.8015 12.7919 16.6522 12.8334 16.5 12.8331H1.50001C1.34821 12.8325 1.19946 12.7905 1.06974 12.7117C0.940028 12.6328 0.834261 12.5201 0.763816 12.3856C0.693371 12.2512 0.660913 12.1 0.669933 11.9485C0.678953 11.797 0.729109 11.6508 0.815008 11.5256L8.31501 0.692295Z" fill="#5B5B5B"/>
</svg>
