<svg width="86" height="74" viewBox="0 0 86 74" fill="none" xmlns="http://www.w3.org/2000/svg">
<path d="M9.07827 73.5472C8.92118 73.5472 8.84264 71.9753 8.68555 71.9753V0.221069H82.7532C82.5961 40.7744 49.6859 73.5472 9.07827 73.5472Z" fill="#008249"/>
<path d="M85.3452 34.0941C85.3452 36.609 83.303 38.5738 80.8682 38.5738C78.3547 38.5738 76.3911 36.5304 76.3911 34.0941C76.3911 31.5792 78.4333 29.6144 80.8682 29.6144C83.303 29.6144 85.3452 31.5792 85.3452 34.0941Z" fill="#004C29"/>
<path d="M82.5064 38.2351C84.7909 37.2883 85.8757 34.6677 84.9294 32.3819C83.9831 30.0961 81.3641 29.0106 79.0797 29.9575C76.7953 30.9043 75.7105 33.5249 76.6567 35.8107C77.603 38.0965 80.222 39.182 82.5064 38.2351Z" stroke="#004C29" strokeWidth="0.539163" stroke-miterlimit="10"/>
<path d="M85.3452 46.9047C85.3452 49.4196 83.303 51.3844 80.8682 51.3844C78.3547 51.3844 76.3911 49.341 76.3911 46.9047C76.3911 44.3897 78.4333 42.4249 80.8682 42.4249C83.303 42.3463 85.3452 44.3897 85.3452 46.9047Z" fill="#004C29"/>
<path d="M82.5113 51.0449C84.7958 50.0981 85.8806 47.4775 84.9343 45.1917C83.988 42.9059 81.369 41.8205 79.0846 42.7673C76.8001 43.7141 75.7153 46.3347 76.6616 48.6205C77.6079 50.9063 80.2269 51.9918 82.5113 51.0449Z" stroke="#004C29" strokeWidth="0.539163" stroke-miterlimit="10"/>
<path d="M10.0996 34.0941C10.0996 36.609 8.05744 38.5738 5.62255 38.5738C3.10912 38.5738 1.14551 36.5304 1.14551 34.0941C1.14551 31.5792 3.18767 29.6144 5.62255 29.6144C8.05744 29.6144 10.0996 31.5792 10.0996 34.0941Z" fill="#004C29"/>
<path d="M10.0996 34.0941C10.0996 36.609 8.05744 38.5738 5.62255 38.5738C3.10912 38.5738 1.14551 36.5304 1.14551 34.0941C1.14551 31.5792 3.18767 29.6144 5.62255 29.6144C8.05744 29.6144 10.0996 31.5792 10.0996 34.0941Z" stroke="#004C29" strokeWidth="0.539163" stroke-miterlimit="10"/>
<path d="M10.0996 46.9047C10.0996 49.4196 8.05744 51.3844 5.62255 51.3844C3.10912 51.3844 1.14551 49.341 1.14551 46.9047C1.14551 44.3897 3.18767 42.4249 5.62255 42.4249C8.05744 42.3463 10.0996 44.3897 10.0996 46.9047Z" fill="#004C29"/>
<path d="M10.0996 46.9047C10.0996 49.4196 8.05744 51.3844 5.62255 51.3844C3.10912 51.3844 1.14551 49.341 1.14551 46.9047C1.14551 44.3897 3.18767 42.4249 5.62255 42.4249C8.05744 42.3463 10.0996 44.3897 10.0996 46.9047Z" stroke="#004C29" strokeWidth="0.539163" stroke-miterlimit="10"/>
<path d="M46.937 16.0181C46.937 18.533 44.8948 20.4978 42.46 20.4978C39.9465 20.4978 37.9829 18.4544 37.9829 16.0181C37.9829 13.5031 40.0251 11.5383 42.46 11.5383C44.8948 11.5383 46.937 13.5031 46.937 16.0181Z" fill="#004C29"/>
<path d="M46.937 16.0181C46.937 18.533 44.8948 20.4978 42.46 20.4978C39.9465 20.4978 37.9829 18.4544 37.9829 16.0181C37.9829 13.5031 40.0251 11.5383 42.46 11.5383C44.8948 11.5383 46.937 13.5031 46.937 16.0181Z" stroke="#004C29" strokeWidth="0.539163" stroke-miterlimit="10"/>
<path d="M28.8716 16.0181C28.8716 18.533 26.8294 20.4978 24.3945 20.4978C21.8811 20.4978 19.9175 18.4544 19.9175 16.0181C19.9175 13.5031 21.9596 11.5383 24.3945 11.5383C26.8294 11.5383 28.8716 13.5031 28.8716 16.0181Z" fill="#004C29"/>
<path d="M28.8716 16.0181C28.8716 18.533 26.8294 20.4978 24.3945 20.4978C21.8811 20.4978 19.9175 18.4544 19.9175 16.0181C19.9175 13.5031 21.9596 11.5383 24.3945 11.5383C26.8294 11.5383 28.8716 13.5031 28.8716 16.0181Z" stroke="#004C29" strokeWidth="0.539163" stroke-miterlimit="10"/>
<path d="M63.5102 16.0181C63.5102 18.533 61.4681 20.4978 59.0332 20.4978C56.5198 20.4978 54.5562 18.4544 54.5562 16.0181C54.5562 13.5031 56.5983 11.5383 59.0332 11.5383C61.4681 11.5383 63.5102 13.5031 63.5102 16.0181Z" fill="#004C29"/>
<path d="M63.5102 16.0181C63.5102 18.533 61.4681 20.4978 59.0332 20.4978C56.5198 20.4978 54.5562 18.4544 54.5562 16.0181C54.5562 13.5031 56.5983 11.5383 59.0332 11.5383C61.4681 11.5383 63.5102 13.5031 63.5102 16.0181Z" stroke="#004C29" strokeWidth="0.539163" stroke-miterlimit="10"/>
<path d="M46.937 63.4875C46.937 66.0025 44.8948 67.9673 42.46 67.9673C39.9465 67.9673 37.9829 65.9239 37.9829 63.4875C37.9829 60.9726 40.0251 59.0078 42.46 59.0078C44.8948 58.9292 46.937 60.9726 46.937 63.4875Z" fill="#004C29"/>
<path d="M46.937 63.4875C46.937 66.0025 44.8948 67.9673 42.46 67.9673C39.9465 67.9673 37.9829 65.9239 37.9829 63.4875C37.9829 60.9726 40.0251 59.0078 42.46 59.0078C44.8948 58.9292 46.937 60.9726 46.937 63.4875Z" stroke="#004C29" strokeWidth="0.539163" stroke-miterlimit="10"/>
<path d="M28.8716 63.4875C28.8716 66.0025 26.8294 67.9673 24.3945 67.9673C21.8811 67.9673 19.9175 65.9239 19.9175 63.4875C19.9175 60.9726 21.9596 59.0078 24.3945 59.0078C26.8294 58.9292 28.8716 60.9726 28.8716 63.4875Z" fill="#004C29"/>
<path d="M28.8716 63.4875C28.8716 66.0025 26.8294 67.9673 24.3945 67.9673C21.8811 67.9673 19.9175 65.9239 19.9175 63.4875C19.9175 60.9726 21.9596 59.0078 24.3945 59.0078C26.8294 58.9292 28.8716 60.9726 28.8716 63.4875Z" stroke="#004C29" strokeWidth="0.539163" stroke-miterlimit="10"/>
<path d="M63.5102 63.4875C63.5102 66.0025 61.4681 67.9673 59.0332 67.9673C56.5198 67.9673 54.5562 65.9239 54.5562 63.4875C54.5562 60.9726 56.5983 59.0078 59.0332 59.0078C61.4681 58.9292 63.5102 60.9726 63.5102 63.4875Z" fill="#004C29"/>
<path d="M63.5102 63.4875C63.5102 66.0025 61.4681 67.9673 59.0332 67.9673C56.5198 67.9673 54.5562 65.9239 54.5562 63.4875C54.5562 60.9726 56.5983 59.0078 59.0332 59.0078C61.4681 58.9292 63.5102 60.9726 63.5102 63.4875Z" stroke="#004C29" strokeWidth="0.539163" stroke-miterlimit="10"/>
<path d="M60.2899 55.5496H25.3376C19.6038 55.5496 14.8911 50.9126 14.8911 45.0969V36.609C14.9697 30.8718 19.6038 26.1562 25.3376 26.1562H60.2114C66.0237 26.1562 70.6578 30.8718 70.6578 36.609V45.1755C70.6578 50.9126 66.0237 55.5496 60.2899 55.5496ZM25.3376 28.514C20.8605 28.514 17.2475 32.1292 17.2475 36.609V45.1755C17.2475 49.6552 20.8605 53.2704 25.3376 53.2704H60.2114C64.6884 53.2704 68.3015 49.6552 68.3015 45.1755V36.609C68.3015 32.1292 64.6884 28.514 60.2114 28.514H25.3376Z" fill="#004B2A"/>
</svg>
