<svg width="80" height="68" viewBox="0 0 80 68" fill="none" xmlns="http://www.w3.org/2000/svg">
<path d="M78.8614 0.783203C79.0052 0.783203 79.0771 0.783203 79.2209 0.783203V67.855H11.4302C11.574 30.7606 41.6952 0.783203 78.8614 0.783203Z" fill="#008249"/>
<path d="M63.0459 27.31C63.0459 29.6105 61.1768 31.4077 58.9482 31.4077C56.6478 31.4077 54.8506 29.5386 54.8506 27.31C54.8506 25.0096 56.7197 23.2124 58.9482 23.2124C61.1768 23.2124 63.0459 25.0815 63.0459 27.31Z" fill="#004C29"/>
<path d="M63.0459 27.31C63.0459 29.6105 61.1768 31.4077 58.9482 31.4077C56.6478 31.4077 54.8506 29.5386 54.8506 27.31C54.8506 25.0096 56.7197 23.2124 58.9482 23.2124C61.1768 23.2124 63.0459 25.0815 63.0459 27.31Z" stroke="#004C29" strokeWidth="0.539163" stroke-miterlimit="10"/>
<path d="M63.0459 39.0278C63.0459 41.3282 61.1768 43.1254 58.9482 43.1254C56.6478 43.1254 54.8506 41.2564 54.8506 39.0278C54.8506 36.7274 56.7197 34.9302 58.9482 34.9302C61.1768 34.9302 63.0459 36.7274 63.0459 39.0278Z" fill="#004C29"/>
<path d="M63.0459 39.0278C63.0459 41.3282 61.1768 43.1254 58.9482 43.1254C56.6478 43.1254 54.8506 41.2564 54.8506 39.0278C54.8506 36.7274 56.7197 34.9302 58.9482 34.9302C61.1768 34.9302 63.0459 36.7274 63.0459 39.0278Z" stroke="#004C29" strokeWidth="0.539163" stroke-miterlimit="10"/>
<path d="M8.55465 27.31C8.55465 29.6105 6.68555 31.4077 4.45701 31.4077C2.22847 31.4077 0.359375 29.5386 0.359375 27.31C0.359375 25.0096 2.22847 23.2124 4.45701 23.2124C6.68555 23.2124 8.55465 25.0815 8.55465 27.31Z" fill="#004C29"/>
<path d="M8.55465 27.31C8.55465 29.6105 6.68555 31.4077 4.45701 31.4077C2.22847 31.4077 0.359375 29.5386 0.359375 27.31C0.359375 25.0096 2.22847 23.2124 4.45701 23.2124C6.68555 23.2124 8.55465 25.0815 8.55465 27.31Z" stroke="#004C29" strokeWidth="0.539163" stroke-miterlimit="10"/>
<path d="M8.55465 39.0278C8.55465 41.3282 6.68555 43.1254 4.45701 43.1254C2.22847 43.1254 0.359375 41.2564 0.359375 39.0278C0.359375 36.7274 2.22847 34.9302 4.45701 34.9302C6.68555 34.9302 8.55465 36.7274 8.55465 39.0278Z" fill="#004C29"/>
<path d="M8.55465 39.0278C8.55465 41.3282 6.68555 43.1254 4.45701 43.1254C2.22847 43.1254 0.359375 41.2564 0.359375 39.0278C0.359375 36.7274 2.22847 34.9302 4.45701 34.9302C6.68555 34.9302 8.55465 36.7274 8.55465 39.0278Z" stroke="#004C29" strokeWidth="0.539163" stroke-miterlimit="10"/>
<path d="M42.2705 10.7757C42.2705 13.0762 40.4014 14.8734 38.1728 14.8734C35.8724 14.8734 34.0752 13.0043 34.0752 10.7757C34.0752 8.47531 35.9443 6.6781 38.1728 6.6781C40.4014 6.6781 42.2705 8.5472 42.2705 10.7757Z" fill="#004C29"/>
<path d="M42.2705 10.7757C42.2705 13.0762 40.4014 14.8734 38.1728 14.8734C35.8724 14.8734 34.0752 13.0043 34.0752 10.7757C34.0752 8.47531 35.9443 6.6781 38.1728 6.6781C40.4014 6.6781 42.2705 8.5472 42.2705 10.7757Z" stroke="#004C29" strokeWidth="0.539163" stroke-miterlimit="10"/>
<path d="M25.7358 10.7757C25.7358 13.0762 23.8667 14.8734 21.6382 14.8734C19.4096 14.8734 17.5405 13.0043 17.5405 10.7757C17.5405 8.47531 19.4096 6.6781 21.6382 6.6781C23.8667 6.6781 25.7358 8.5472 25.7358 10.7757Z" fill="#004C29"/>
<path d="M25.7358 10.7757C25.7358 13.0762 23.8667 14.8734 21.6382 14.8734C19.4096 14.8734 17.5405 13.0043 17.5405 10.7757C17.5405 8.47531 19.4096 6.6781 21.6382 6.6781C23.8667 6.6781 25.7358 8.5472 25.7358 10.7757Z" stroke="#004C29" strokeWidth="0.539163" stroke-miterlimit="10"/>
<path d="M42.2705 54.1962C42.2705 56.4966 40.4014 58.2938 38.1728 58.2938C35.8724 58.2938 34.0752 56.4247 34.0752 54.1962C34.0752 51.8958 35.9443 50.0986 38.1728 50.0986C40.4014 50.0267 42.2705 51.8958 42.2705 54.1962Z" fill="#004C29"/>
<path d="M42.2705 54.1962C42.2705 56.4966 40.4014 58.2938 38.1728 58.2938C35.8724 58.2938 34.0752 56.4247 34.0752 54.1962C34.0752 51.8958 35.9443 50.0986 38.1728 50.0986C40.4014 50.0267 42.2705 51.8958 42.2705 54.1962Z" stroke="#004C29" strokeWidth="0.539163" stroke-miterlimit="10"/>
<path d="M25.7358 54.1963C25.7358 56.4967 23.8667 58.2939 21.6382 58.2939C19.4096 58.2939 17.5405 56.4248 17.5405 54.1963C17.5405 51.8958 19.4096 50.0986 21.6382 50.0986C23.8667 50.0986 25.7358 51.8958 25.7358 54.1963Z" fill="#004C29"/>
<path d="M25.7358 54.1963C25.7358 56.4967 23.8667 58.2939 21.6382 58.2939C19.4096 58.2939 17.5405 56.4248 17.5405 54.1963C17.5405 51.8958 19.4096 50.0986 21.6382 50.0986C23.8667 50.0986 25.7358 51.8958 25.7358 54.1963Z" stroke="#004C29" strokeWidth="0.539163" stroke-miterlimit="10"/>
<path d="M44.4269 47.0074H20.2006C16.2467 47.0074 13.0117 42.766 13.0117 37.4463V29.6105C13.0117 24.3626 16.2467 20.0493 20.2006 20.0493H44.4269C48.3808 20.0493 51.6876 24.2907 51.6876 29.6105V37.4463C51.6876 42.6941 48.3808 47.0074 44.4269 47.0074ZM20.56 22.206C17.5407 22.206 15.0965 25.5128 15.0965 29.6105V37.4463C15.0965 41.5439 17.5407 44.8508 20.56 44.8508H44.0675C47.0868 44.8508 49.531 41.5439 49.531 37.4463V29.6105C49.531 25.5128 47.0868 22.206 44.0675 22.206H20.56Z" fill="#004B2A"/>
</svg>
