<svg width="42" height="33" viewBox="0 0 42 33" fill="none" xmlns="http://www.w3.org/2000/svg">
<g clip-path="url(#clip0_106_273)">
<path d="M9.81918 32.7508C27.0631 32.7508 41.0498 18.6707 41.0498 1.31165H9.81918V32.7508Z" fill="#FF972F"/>
<path d="M5.79485 14.0895C5.79485 14.0895 8.42934 16.1147 11.447 14.0895C14.4647 12.0643 17.0992 14.0895 17.0992 14.0895C17.0992 14.0895 20.4522 16.838 22.7513 14.0895C22.7513 14.0895 25.2421 11.2445 28.4514 14.4753" stroke="white" stroke-width="1.27782" stroke-miterlimit="10" stroke-linecap="round" stroke-linejoin="round"/>
<path d="M2.2989 20.2135C2.2989 20.2135 5.31658 22.2387 8.76536 20.2135C12.2141 18.1882 15.2318 20.2135 15.2318 20.2135C15.2318 20.2135 19.1117 22.962 21.6983 20.2135C21.6983 20.2135 24.5723 17.3685 28.2126 20.5992" stroke="white" stroke-width="1.27782" stroke-miterlimit="10" stroke-linecap="round" stroke-linejoin="round"/>
<path d="M26.5833 6.23014C26.4875 6.23014 26.3917 6.32658 26.3917 6.42302C26.3917 6.51946 26.4875 6.61589 26.5833 6.61589C26.6791 6.61589 26.7749 6.51946 26.7749 6.42302C26.7749 6.32658 26.6791 6.23014 26.5833 6.23014ZM26.5833 5.26575C27.206 5.26575 27.7329 5.79616 27.7329 6.42302C27.7329 7.04987 27.206 7.58028 26.5833 7.58028C25.9606 7.58028 25.4337 7.04987 25.4337 6.42302C25.4337 5.79616 25.9606 5.26575 26.5833 5.26575Z" fill="white"/>
<path d="M13.6995 8.83372L9.62799 2.32408C6.1313 -3.17294 4.07162 2.80628 4.07162 2.80628C4.07162 2.80628 1.29343 10.7625 0.000139419 13.7039" stroke="white" stroke-width="1.27782" stroke-miterlimit="10" stroke-linecap="round" stroke-linejoin="round"/>
<path d="M10.9682 4.108C11.5909 2.17921 13.3153 0.0575562 14.5128 0.0575562C16.4288 0.0575562 19.8776 5.8439 21.2188 7.62802" stroke="white" stroke-width="1.27782" stroke-miterlimit="10" stroke-linecap="round" stroke-linejoin="round"/>
</g>
<defs>
<clipPath id="clip0_106_273">
<rect width="42" height="33" fill="white"/>
</clipPath>
</defs>
</svg>
