<svg width="35" height="34" viewBox="0 0 35 34" fill="none" xmlns="http://www.w3.org/2000/svg">
<g clip-path="url(#clip0_106_272)">
<path d="M8.16408 33.8616C22.4568 33.8616 34.0498 22.2016 34.0498 7.82611H8.16408V33.8616Z" fill="#FF972F"/>
<path d="M7.0922 12.6985C7.0922 15.4937 9.35521 17.7698 12.1344 17.7698C14.9135 17.7698 17.1765 15.4937 17.1765 12.6985C17.1765 9.90328 14.9135 7.62717 12.1344 7.62717C9.35521 7.58723 7.0922 9.86335 7.0922 12.6985Z" fill="white"/>
<path d="M9.55377 12.6979C9.55377 14.1753 10.7448 15.3334 12.1741 15.3334C13.6431 15.3334 14.7944 14.1354 14.7944 12.6979C14.7944 11.2204 13.6034 10.0624 12.1741 10.0624C10.7051 10.0224 9.55377 11.2204 9.55377 12.6979Z" fill="white"/>
<path d="M10.5862 25.3568V20.1657C7.60853 19.5667 5.26611 17.2507 4.63088 14.2558H-0.45098" fill="white"/>
<path d="M24.7585 14.2558H19.5973C18.962 17.2108 16.6593 19.5268 13.7214 20.1657V20.4053V25.3568" fill="white"/>
<path d="M13.7214 0V4.95154C16.6593 5.59045 19.0017 8.14608 19.5973 11.141L24.7585 11.101" fill="white"/>
<path d="M-0.452108 11.101H4.66945C5.26498 8.14608 7.6471 5.59045 10.6248 4.95154V0" fill="white"/>
</g>
<defs>
<clipPath id="clip0_106_272">
<rect width="35" height="34" fill="white"/>
</clipPath>
</defs>
</svg>
