<svg width="33" height="33" viewBox="0 0 33 33" fill="none" xmlns="http://www.w3.org/2000/svg">
<g clip-path="url(#clip0_106_270)">
<path d="M33.0498 0C15.0585 0 0.465466 14.593 0.465466 32.5843H33.0498V0Z" fill="#FF972F"/>
<path d="M14.8576 9.84523C17.3065 9.84523 19.3555 7.84619 19.3555 5.34739C19.3555 2.89856 17.3564 0.849548 14.8576 0.849548C12.4088 0.849548 10.3598 2.84859 10.3598 5.34739C10.4098 7.79621 12.4088 9.84523 14.8576 9.84523ZM14.8576 2.1989C16.6068 2.1989 18.0061 3.59823 18.0061 5.34739C18.0061 7.09655 16.6068 8.49587 14.8576 8.49587C13.1085 8.49587 11.7091 7.09655 11.7091 5.34739C11.7091 3.59823 13.1584 2.1989 14.8576 2.1989Z" fill="white"/>
<path d="M15.3589 4.04802C15.3589 4.4978 15.7088 4.89761 16.2085 4.89761C16.6583 4.89761 17.0581 4.54778 17.0581 4.04802C17.0581 3.59823 16.7083 3.19843 16.2085 3.19843C15.7088 3.19843 15.3589 3.59823 15.3589 4.04802Z" fill="white"/>
<path d="M14.8574 19.2404C15.2072 19.2404 15.5071 18.9405 15.5071 18.5907V9.14523C15.5071 8.7954 15.2072 8.49554 14.8574 8.49554C14.5076 8.49554 14.2077 8.7954 14.2077 9.14523V18.5907C14.2077 18.9405 14.5076 19.2404 14.8574 19.2404Z" fill="white"/>
<path d="M14.8592 22.4387C19.407 22.4387 24.2546 21.0894 24.2546 18.5906C24.2546 16.0918 19.407 14.7424 14.8592 14.7424C10.3113 14.7424 5.46367 16.0918 5.46367 18.5906C5.46367 21.0894 10.3113 22.4387 14.8592 22.4387ZM14.8592 16.0418C19.7568 16.0418 22.9053 17.5411 22.9053 18.5906C22.9053 19.6401 19.7568 21.1394 14.8592 21.1394C9.96151 21.1394 6.81302 19.6401 6.81302 18.5906C6.81302 17.5411 9.96151 16.0418 14.8592 16.0418Z" fill="white"/>
</g>
<defs>
<clipPath id="clip0_106_270">
<rect width="33" height="33" fill="white"/>
</clipPath>
</defs>
</svg>
