<svg width="40" height="33" viewBox="0 0 40 33" fill="none" xmlns="http://www.w3.org/2000/svg">
<g clip-path="url(#clip0_106_271)">
<path d="M10.3372 33.2234C26.1908 33.2234 39.0498 20.3571 39.0498 4.49457H10.3372V33.2234Z" fill="#FF972F"/>
<path d="M13.3758 0C13.3318 0 13.2877 0.0440627 13.2437 0.0440627C11.8785 0.0440627 10.6455 0.440627 9.45643 1.0575C8.31145 1.67438 7.34262 2.46751 6.54994 3.48095C5.88937 4.3622 5.36092 5.28752 5.05266 6.34502C4.87651 6.91784 4.78843 7.53471 4.70035 8.15159C4.65632 8.68034 4.61228 9.2091 4.65632 9.69378C4.70035 10.7072 4.96458 11.7207 5.36092 12.646C5.88937 13.8797 6.68205 14.9372 7.69492 15.8626C8.44357 16.5235 9.28028 17.0522 10.2051 17.4488C10.8656 17.7572 11.5702 17.9335 12.3189 18.0657C12.5391 18.1098 12.7593 18.1098 12.9795 18.1098C13.0675 18.1098 13.1556 18.1538 13.1996 18.1538H14.2565C14.3446 18.1538 14.4327 18.1098 14.4767 18.1098C14.6969 18.0657 14.9171 18.0657 15.1373 18.0657C15.8419 17.9335 16.5465 17.7572 17.2511 17.4488C18.1759 17.0522 19.0126 16.5235 19.7613 15.8626C20.7741 14.9372 21.5228 13.8797 22.0953 12.646C22.4916 11.6766 22.7118 10.7072 22.7999 9.69378C22.8439 9.16503 22.7999 8.63628 22.7558 8.15159C22.6678 7.53471 22.5797 6.91784 22.4035 6.34502C22.0953 5.28752 21.5668 4.3622 20.9063 3.48095C20.1136 2.46751 19.1447 1.63032 17.9998 1.0575C16.8107 0.440627 15.5336 0.0440627 14.2125 0.0440627C13.9923 0.0440627 13.9483 0 13.9042 0H13.3758ZM13.64 16.9641C9.28028 17.0082 5.8013 13.395 5.75726 9.29722C5.66919 4.7147 9.28028 1.41 13.1996 1.23375C18.0438 1.01344 21.4347 4.84689 21.5228 8.90066C21.6109 13.395 17.9117 17.0082 13.64 16.9641Z" fill="white"/>
<path d="M23.1072 0C22.7549 0.132188 22.6228 0.440627 22.6228 0.793128C22.6228 2.42345 22.6228 4.05376 22.6228 5.68408C22.6228 6.34502 22.843 6.91784 23.3274 7.3144C23.5476 7.53471 23.8118 7.6669 24.076 7.79909C24.2962 7.88722 24.2962 7.97534 24.2962 8.15159C24.2962 11.1919 24.2962 14.2763 24.2962 17.3166C24.2962 17.6691 24.3843 17.9776 24.7366 18.1538H25.0449C25.3531 18.0216 25.4853 17.8013 25.4853 17.4488C25.4853 14.3644 25.4853 11.3241 25.4853 8.23972V7.93128C25.9697 7.75503 26.4541 7.53471 26.7183 7.09409C26.8945 6.82971 27.0266 6.52127 27.1587 6.21283V0.352501C27.0266 0.264376 26.8945 0.132188 26.7183 0H26.4981C26.1458 0.132188 26.0137 0.440627 26.0137 0.793128C26.0137 2.37938 26.0137 4.0097 26.0137 5.59596C26.0137 6.03658 25.8376 6.30096 25.4853 6.6094V6.30096C25.4853 4.45033 25.4853 2.64376 25.4853 0.793128C25.4853 0.396564 25.3972 0.132188 25.0008 0H24.7807C24.4283 0.132188 24.2962 0.440627 24.2962 0.793128C24.2962 2.5997 24.2962 4.45033 24.2962 6.2569V6.56534C23.988 6.34502 23.8118 6.08065 23.8118 5.72815C23.8118 4.09783 23.8118 2.51157 23.8118 0.881253C23.8118 0.440627 23.6797 0.132188 23.2834 0H23.1072Z" fill="white"/>
<path d="M0.823776 18.1979C1.17608 18.0216 1.26415 17.7573 1.26415 17.3607C1.26415 15.2897 1.26415 13.2188 1.26415 11.1479V10.8835C1.61645 10.8394 1.92472 10.8394 2.23298 10.7954C2.89355 10.6632 3.51007 9.95816 3.46604 9.25316C3.46604 7.09409 3.422 4.93502 3.46604 2.77595C3.46604 1.54219 2.49721 0.396564 1.35223 0.132188C1.17608 0.0440627 0.999927 0.0440627 0.823776 0H0.559551C0.3834 0.132188 0.251288 0.264376 0.0751372 0.352501V18.1538H0.823776V18.1979ZM1.26415 1.36594C1.88068 1.54219 2.32106 2.2472 2.32106 2.73189C2.32106 4.84689 2.32106 6.9619 2.32106 9.07691C2.32106 9.34129 2.18894 9.51754 1.92472 9.5616C1.70453 9.60566 1.48434 9.60566 1.26415 9.64972V1.36594Z" fill="white"/>
<path d="M13.0672 2.86383C13.0672 3.21633 13.2434 3.43664 13.6397 3.43664C14.9168 3.4807 16.1499 3.87727 17.1627 4.67039C18.3077 5.59571 18.9683 6.74134 19.2325 8.19541C19.2325 8.50385 19.2325 8.81228 19.2325 9.12072C19.2325 9.3851 19.4527 9.64947 19.7169 9.69354C19.9371 9.7376 20.2454 9.60541 20.3775 9.3851C20.4215 9.29697 20.4656 9.16479 20.4656 9.07666C20.3775 8.50385 20.3335 7.88697 20.2014 7.31415C19.9812 6.38884 19.5408 5.55165 18.9683 4.80258C18.4398 4.09758 17.7793 3.56883 16.9866 3.1282C16.238 2.68757 15.4453 2.4232 14.5645 2.29101C14.2563 2.24695 13.904 2.24695 13.5957 2.24695C13.2874 2.29101 13.0672 2.55539 13.0672 2.86383Z" fill="white"/>
<path d="M6.85834 9.42928C6.90238 10.8393 7.34275 12.073 8.17947 13.1746C8.88408 14.0999 9.72079 14.8049 10.7777 15.2896C11.4383 15.5981 12.0988 15.8184 12.8034 15.8624C13.0677 15.8624 13.3759 15.9065 13.6402 15.9065C13.9925 15.9065 14.2126 15.6421 14.2126 15.3337C14.2126 14.9812 13.9925 14.7609 13.6402 14.7609C12.275 14.7168 11.086 14.3202 10.0291 13.439C9.01619 12.6018 8.35562 11.5002 8.09139 10.1783C8.00332 9.82585 8.00332 9.47335 8.00332 9.12085C8.00332 8.76834 7.69506 8.50397 7.38679 8.50397C7.12256 8.54803 6.77026 8.72428 6.8143 9.12085C6.85834 9.20897 6.85834 9.2971 6.85834 9.42928Z" fill="white"/>
</g>
<defs>
<clipPath id="clip0_106_271">
<rect width="40" height="33" fill="white"/>
</clipPath>
</defs>
</svg>
