<svg width="54" height="49" viewBox="0 0 54 49" fill="none" xmlns="http://www.w3.org/2000/svg">
<g clip-path="url(#clip0_7_1081)">
<path d="M-0.5 44.9836C24.4831 44.9836 44.7429 24.8398 44.7429 0H-0.5V44.9836Z" fill="#FF972F"/>
<path d="M11.1216 40.2875C11.1216 41.894 9.81651 43.1916 8.20069 43.1916C6.58487 43.1916 5.27979 41.894 5.27979 40.2875C5.27979 38.6809 6.58487 37.3833 8.20069 37.3833C9.81651 37.3833 11.1216 38.6809 11.1216 40.2875Z" fill="white"/>
<path d="M8.26277 44.613C5.83904 44.613 3.91249 46.5285 3.85034 48.9384H12.6131C12.6131 46.5903 10.6865 44.613 8.26277 44.613Z" fill="white"/>
<path d="M21.5623 40.2875C21.5623 41.894 20.2572 43.1916 18.6414 43.1916C17.0255 43.1916 15.7205 41.894 15.7205 40.2875C15.7205 38.6809 17.0255 37.3833 18.6414 37.3833C20.2572 37.3833 21.5623 38.6809 21.5623 40.2875Z" fill="white"/>
<path d="M18.6412 44.613C16.2175 44.613 14.2909 46.5285 14.2288 48.9384H22.9915C22.9915 46.5903 21.0649 44.613 18.6412 44.613Z" fill="white"/>
<path d="M31.9407 40.2875C31.9407 41.894 30.6356 43.1916 29.0198 43.1916C27.404 43.1916 26.0989 41.894 26.0989 40.2875C26.0989 38.6809 27.404 37.3833 29.0198 37.3833C30.6356 37.3833 31.9407 38.6809 31.9407 40.2875Z" fill="white"/>
<path d="M29.0196 44.613C26.5959 44.613 24.6693 46.5285 24.6072 48.9384H33.3699C33.432 46.5903 31.4433 44.613 29.0196 44.613Z" fill="white"/>
<path d="M42.3191 40.2875C42.3191 41.894 41.014 43.1916 39.3982 43.1916C37.7824 43.1916 36.4773 41.894 36.4773 40.2875C36.4773 38.6809 37.7824 37.3833 39.3982 37.3833C41.014 37.3833 42.3191 38.6809 42.3191 40.2875Z" fill="white"/>
<path d="M39.4603 44.613C37.0366 44.613 35.11 46.5285 35.0479 48.9384H43.8106C43.8106 46.5903 41.884 44.613 39.4603 44.613Z" fill="white"/>
<path d="M52.76 40.2875C52.76 41.894 51.4549 43.1916 49.8391 43.1916C48.2233 43.1916 46.9182 41.894 46.9182 40.2875C46.9182 38.6809 48.2233 37.3833 49.8391 37.3833C51.4549 37.3833 52.76 38.6809 52.76 40.2875Z" fill="white"/>
<path d="M49.8389 44.613C47.4152 44.613 45.4887 46.5285 45.4265 48.9384H54.1892C54.2514 46.5903 52.2627 44.613 49.8389 44.613Z" fill="white"/>
<path d="M15.9067 37.6307C15.9067 38.8665 14.8502 39.917 13.6073 39.917C12.3644 39.917 11.3079 38.8665 11.3079 37.6307C11.3079 36.3949 12.3644 35.3445 13.6073 35.3445C14.8502 35.3445 15.9067 36.3331 15.9067 37.6307Z" fill="white"/>
<path d="M13.6074 41.0908C11.6809 41.0908 10.1272 42.6356 10.1272 44.5511H17.0876C17.0876 42.6356 15.534 41.0908 13.6074 41.0908Z" fill="white"/>
<path d="M26.2854 37.6307C26.2854 38.8665 25.2289 39.917 23.986 39.917C22.743 39.917 21.6865 38.8665 21.6865 37.6307C21.6865 36.3949 22.743 35.3445 23.986 35.3445C25.2289 35.3445 26.2854 36.3331 26.2854 37.6307Z" fill="white"/>
<path d="M23.9861 41.0908C22.0595 41.0908 20.5059 42.6356 20.5059 44.5511H27.4663C27.4663 42.6356 25.9126 41.0908 23.9861 41.0908Z" fill="white"/>
<path d="M36.6018 37.6307C36.6018 38.8665 35.5453 39.917 34.3024 39.917C33.0594 39.917 32.0029 38.8665 32.0029 37.6307C32.0029 36.3949 33.0594 35.3445 34.3024 35.3445C35.5453 35.3445 36.6018 36.3331 36.6018 37.6307Z" fill="white"/>
<path d="M34.3022 41.0908C32.3757 41.0908 30.822 42.6356 30.822 44.5511H37.7825C37.7825 42.6356 36.2288 41.0908 34.3022 41.0908Z" fill="white"/>
<path d="M46.9802 37.6307C46.9802 38.8665 45.9237 39.917 44.6808 39.917C43.4378 39.917 42.3813 38.8665 42.3813 37.6307C42.3813 36.3949 43.4378 35.3445 44.6808 35.3445C45.9237 35.3445 46.9802 36.3331 46.9802 37.6307Z" fill="white"/>
<path d="M44.6809 41.0908C42.7544 41.0908 41.2007 42.6356 41.2007 44.5511H48.1611C48.1611 42.6356 46.6075 41.0908 44.6809 41.0908Z" fill="white"/>
<path d="M16.0931 7.66202C16.0931 9.33037 14.7258 10.6898 13.0479 10.6898C11.3699 10.6898 10.0027 9.33037 10.0027 7.66202C10.0027 5.99367 11.3699 4.63428 13.0479 4.63428C14.6637 4.63428 16.0931 5.99367 16.0931 7.66202Z" fill="white"/>
<path d="M12.9857 12.2961C10.4377 12.2961 8.38685 14.3352 8.32471 16.8687H17.5846C17.6467 14.3352 15.5337 12.2961 12.9857 12.2961Z" fill="white"/>
<path d="M20.3816 30.4629H5.65278C4.96917 30.4629 4.40985 29.9068 4.40985 29.2271V22.7391H4.22341C3.53979 22.7391 2.98047 22.183 2.98047 21.5033V19.217C2.98047 18.5373 3.53979 17.9812 4.22341 17.9812H21.811C22.4946 17.9812 23.0539 18.5373 23.0539 19.217V21.5033C23.0539 22.183 22.4946 22.7391 21.811 22.7391H21.6245V29.2889C21.6245 29.9686 21.0652 30.4629 20.3816 30.4629ZM6.21211 28.7328H19.8223V21.874C19.8223 21.3797 20.1952 21.0089 20.6923 21.0089H21.2517V19.7731H4.78273V21.0089H5.34205C5.83923 21.0089 6.21211 21.3797 6.21211 21.874V28.7328Z" fill="white"/>
<path d="M53.1949 26.5081H28.1497C27.4661 26.5081 26.9067 25.952 26.9067 25.2723V6.11716C26.9067 5.43746 27.4661 4.88135 28.1497 4.88135H41.6356C48.7203 4.88135 54.5 10.6279 54.5 17.672V25.2723C54.5 25.952 53.8785 26.5081 53.1949 26.5081ZM28.6469 24.7162H52.6977V17.6102C52.6977 11.5547 47.726 6.5497 41.6356 6.5497H28.6469V24.7162Z" fill="white"/>
</g>
<defs>
<clipPath id="clip0_7_1081">
<rect width="54" height="49" fill="white"/>
</clipPath>
</defs>
</svg>
