<svg width="44" height="59" viewBox="0 0 44 59" fill="none" xmlns="http://www.w3.org/2000/svg">
<g clip-path="url(#clip0_7_1079)">
<path d="M44 59.0002C44 34.8262 24.3026 15.2332 0 15.2332V59.0002H44Z" fill="#FF972F"/>
<path d="M22.2498 14.0739C26.1893 14.0739 29.352 10.928 29.352 7.00936C29.352 3.14593 26.1338 0 22.2498 0C18.3104 0 15.1477 3.14593 15.1477 7.06455C15.1477 10.928 18.3104 14.0739 22.2498 14.0739Z" fill="white"/>
<path d="M38.6734 11.1491C37.5637 9.93488 35.6772 9.87969 34.4565 10.9835L27.7983 17.1098H16.9786L10.3203 10.9835C9.09966 9.87969 7.21315 9.93488 6.10344 11.1491C4.99373 12.3633 5.04922 14.2398 6.2699 15.3437L13.8159 22.2426V43.7674H13.8714V51.715C18.3102 51.715 21.8613 48.1276 21.8613 43.7674C21.8613 48.1276 25.4124 51.715 29.8512 51.715V43.7674V43.4363V23.3465L38.507 15.3437C39.7276 14.2398 39.7831 12.3633 38.6734 11.1491Z" fill="white"/>
</g>
<defs>
<clipPath id="clip0_7_1079">
<rect width="44" height="59" fill="white"/>
</clipPath>
</defs>
</svg>
