<svg width="58" height="49" viewBox="0 0 58 49" fill="none" xmlns="http://www.w3.org/2000/svg">
<g clip-path="url(#clip0_7_1080)">
<path d="M46.3491 48.9993C46.3491 23.2166 25.5939 2.37231 0 2.37231V49.0634H46.3491V48.9993Z" fill="#FF972F"/>
<path d="M50.2963 27.5784C53.0976 27.5784 55.3896 25.2053 55.3896 22.3192C55.3896 19.4331 53.0976 17.0601 50.2963 17.0601C47.4949 17.0601 45.203 19.369 45.203 22.3192C45.1393 25.2053 47.4313 27.5784 50.2963 27.5784Z" fill="white"/>
<path d="M57.9999 38.097C57.9999 33.7357 54.4983 30.2083 50.2326 30.2083C49.8506 30.2083 49.4049 30.2724 49.0229 30.3365V38.097H57.9999Z" fill="white"/>
<path d="M34.316 17.7009C37.1173 17.7009 39.4093 15.392 39.4093 12.4418C39.4093 9.55565 37.1173 7.18262 34.316 7.18262C31.5146 7.18262 29.2227 9.55565 29.2227 12.4418C29.2227 15.3279 31.5146 17.7009 34.316 17.7009Z" fill="white"/>
<path d="M34.125 22.9599V26.8722L35.1437 27.0005L41.7649 27.706H41.9559C41.7013 23.6013 38.327 20.3303 34.2523 20.3303C32.979 20.3303 31.7693 20.651 30.687 21.2282L32.597 21.4206C33.4883 21.4848 34.125 22.1261 34.125 22.9599Z" fill="white"/>
<path d="M18.3993 10.4539C21.2006 10.4539 23.4926 8.14497 23.4926 5.19471C23.4926 2.30858 21.2006 -0.0644531 18.3993 -0.0644531C15.598 -0.0644531 13.306 2.30858 13.306 5.19471C13.2423 8.14497 15.5343 10.4539 18.3993 10.4539Z" fill="white"/>
<path d="M18.5907 14.4946C19.3547 14.4946 19.9277 15.1359 19.9277 15.8414V20.0744L20.9463 20.2027L26.1033 20.7799C25.976 16.5469 22.538 13.1477 18.3997 13.1477C17.0627 13.1477 15.7894 13.4684 14.707 14.1097L15.089 14.1739L18.5907 14.4946Z" fill="white"/>
<path d="M47.4949 43.2911H47.4313L30.5597 41.4311C29.2227 41.4311 28.1404 40.2767 28.1404 38.9298V34.8893L17.0624 33.6707C15.7891 33.6707 14.7705 32.5804 14.7705 31.2976V27.0647L4.07451 25.9102C2.86485 25.9102 1.84619 24.884 1.84619 23.6013V14.3016C1.84619 13.0189 2.86485 11.9927 4.07451 11.9927C4.13818 11.9927 4.13818 11.9927 4.20184 11.9927L18.6541 13.5319C19.8638 13.5319 20.8824 14.5581 20.8824 15.8408V19.2401L32.788 20.5228C34.0613 20.5228 35.08 21.6131 35.08 22.8958V26.0385L41.956 26.744L47.6223 27.3212C48.9593 27.3212 50.0416 28.4757 50.0416 29.8225V40.6615C49.9779 42.1366 48.8956 43.2911 47.4949 43.2911ZM4.07451 13.8526C3.81985 13.8526 3.69251 14.045 3.69251 14.3016V23.5372C3.69251 23.7937 3.88351 23.9861 4.13818 23.9861C4.20184 23.9861 4.20184 23.9861 4.26551 23.9861L15.7891 25.2047C16.2348 25.2688 16.6168 25.6537 16.6168 26.1026V31.1694C16.6168 31.4901 16.8714 31.7466 17.1898 31.7466C17.2534 31.7466 17.2534 31.7466 17.3171 31.7466L29.2864 33.0293C29.732 33.0935 30.114 33.4783 30.114 33.9272V38.8016C30.114 39.1864 30.4324 39.5071 30.7507 39.5071C30.7507 39.5071 30.8144 39.5071 30.878 39.5071L47.7496 41.3029C48.0679 41.3029 48.3863 40.9822 48.3863 40.5974V29.9508C48.3863 29.566 48.0679 29.2453 47.7496 29.2453H47.6859L34.316 27.8343C33.8703 27.7702 33.4883 27.3853 33.4883 26.9364V23.0241C33.4883 22.7034 33.2337 22.4469 32.979 22.4469C32.9153 22.4469 32.9153 22.4469 32.8517 22.4469L20.1184 21.1C19.6728 21.0359 19.2908 20.651 19.2908 20.2021V15.9691C19.2908 15.7126 19.0998 15.5202 18.8451 15.5202C18.7814 15.5202 18.7814 15.5202 18.7178 15.5202L4.07451 13.8526Z" fill="white"/>
</g>
<defs>
<clipPath id="clip0_7_1080">
<rect width="58" height="49" fill="white"/>
</clipPath>
</defs>
</svg>
