<svg width="76" height="68" viewBox="0 0 76 68" fill="none" xmlns="http://www.w3.org/2000/svg">
<g clip-path="url(#clip0_7_1073)">
<path d="M0 10.7659C0 42.1866 25.6746 67.667 57.3347 67.667V10.7659H0Z" fill="#FF972F"/>
<path d="M42.6858 49.0648H25.3594C25.0444 49.0648 24.8081 48.9084 24.6506 48.674C24.4931 48.4395 24.4931 48.1268 24.6506 47.8142L31.1874 36.559C31.3449 36.3245 31.5812 36.1682 31.8962 36.1682H42.6071C43.0796 36.1682 43.4734 36.559 43.4734 37.028V48.2832C43.5522 48.7521 43.1584 49.0648 42.6858 49.0648ZM26.8558 47.4234H41.8195V37.8096H32.4475L26.8558 47.4234Z" fill="white"/>
<path d="M25.4383 48.2826L18.8228 36.9493L25.5958 25.3815L23.7057 24.2872L34.4953 21.3953L37.3305 32.1033L35.4404 31.0091L29.9274 40.4665L25.4383 48.2826Z" fill="white"/>
<path d="M25.4386 49.0646C25.1236 49.0646 24.8873 48.9082 24.7298 48.6738L18.1142 37.3404C17.9567 37.1059 17.9567 36.7933 18.1142 36.4807L24.4147 25.6163L23.2334 24.9128C22.9184 24.7565 22.7609 24.4439 22.8396 24.0531C22.9184 23.7404 23.1546 23.4278 23.4697 23.3496L34.2593 20.4577C34.4956 20.3795 34.7318 20.4577 34.8894 20.5358C35.0469 20.614 35.2044 20.8485 35.2831 21.083L38.1971 31.791C38.2759 32.1036 38.1971 32.4944 37.8821 32.6508C37.6458 32.8853 37.2521 32.8853 36.937 32.7289L35.7557 32.0255L26.1474 48.6738C25.9899 48.9082 25.7536 49.0646 25.4386 49.0646ZM19.8469 36.9496L25.4386 46.5634L34.7318 30.6186C34.8106 30.4623 35.0469 30.3059 35.2831 30.2278C35.5194 30.1496 35.7557 30.2278 35.9132 30.3059L36.0707 30.3841L33.8655 22.4117L25.8324 24.522L25.9899 24.6784C26.1474 24.7565 26.3049 24.991 26.3837 25.2255C26.4624 25.46 26.3837 25.6944 26.3049 25.8508L19.8469 36.9496Z" fill="white"/>
<path d="M75.2124 37.8095H62.06C61.745 37.8095 61.5087 37.6532 61.3512 37.4187L55.9958 28.1957C55.7595 27.8049 55.917 27.2578 56.3108 27.0233L66.1554 21.3957C66.3129 21.3175 66.5491 21.2394 66.7854 21.3175C67.0217 21.3957 67.1792 21.552 67.3367 21.7083L75.9999 36.5589C76.1574 36.7934 76.1574 37.106 75.9999 37.4187C75.7637 37.6532 75.4486 37.8095 75.2124 37.8095ZM62.5326 36.0899H73.716L66.2341 23.1934L57.8859 27.9612L62.5326 36.0899Z" fill="white"/>
<path d="M75.2125 36.9495L68.5969 48.2828H55.1296V50.4713L47.2539 42.5771L55.1296 34.761V36.9495H75.2125Z" fill="white"/>
<path d="M55.1294 51.3307C54.8932 51.3307 54.6569 51.2526 54.4994 51.0963L46.6237 43.202C46.3087 42.8894 46.3087 42.3422 46.6237 42.0296L54.4994 34.1354C54.7356 33.9009 55.1294 33.8227 55.4444 33.979C55.7595 34.1354 55.9957 34.448 55.9957 34.7606V36.1675H75.1336C75.4486 36.1675 75.6849 36.3239 75.8424 36.5583C75.9999 36.7928 75.9999 37.1055 75.8424 37.4181L69.3056 48.7514C69.1481 48.9859 68.9118 49.1422 68.5968 49.1422H55.9957V50.471C55.9957 50.7836 55.7595 51.0963 55.4444 51.2526C55.3657 51.3307 55.2869 51.3307 55.1294 51.3307ZM48.4351 42.5767L54.2631 48.4388V48.2825C54.2631 48.048 54.3419 47.8135 54.4994 47.6572C54.6569 47.5009 54.8932 47.4227 55.1294 47.4227H68.1242L73.716 37.8089H55.1294C54.6569 37.8089 54.2631 37.4181 54.2631 36.9491V36.7928L48.4351 42.5767Z" fill="white"/>
<path d="M41.7408 21.8645C41.5833 21.8645 41.4258 21.8645 41.347 21.7863L31.5025 16.1587C31.1087 15.9242 30.9512 15.3771 31.1874 14.9863L39.8506 0.135714C40.0082 -0.17693 40.2444 -0.333252 40.5594 -0.333252C40.8745 -0.333252 41.1107 -0.17693 41.2683 0.0575527L47.8838 11.3909C48.0413 11.6254 48.0413 11.938 47.8838 12.2507L42.5284 21.4736C42.4496 21.63 42.2133 21.7863 41.9771 21.8645C41.8983 21.8645 41.8196 21.8645 41.7408 21.8645ZM33.0776 15.0645L41.4258 19.8323L46.1512 11.7817L40.5594 2.1679L33.0776 15.0645Z" fill="white"/>
<path d="M40.5596 0.526611H53.7119L60.4062 12.0944L62.3751 11.0002L59.4611 21.7082L48.6715 18.8163L50.5616 17.722L45.1274 8.26454L40.5596 0.526611Z" fill="white"/>
<path d="M59.4612 22.5679C59.3824 22.5679 59.3036 22.5679 59.2249 22.5679L48.4353 19.6759C48.1202 19.5978 47.884 19.2851 47.8052 18.9725C47.7264 18.6599 47.9627 18.269 48.199 18.1127L49.3803 17.4093L39.8508 0.917323C39.6933 0.68284 39.6933 0.370196 39.8508 0.0575526C40.0083 -0.17693 40.2446 -0.333252 40.5596 -0.333252H53.7119C54.027 -0.333252 54.2632 -0.17693 54.4207 0.0575526L60.7213 10.9219L61.9026 10.2185C62.2176 10.0622 62.5327 10.0622 62.8477 10.2966C63.084 10.5311 63.2415 10.8438 63.1627 11.1564L60.2487 21.8644C60.17 22.0989 60.0125 22.2553 59.8549 22.4116C59.7762 22.4897 59.6187 22.5679 59.4612 22.5679ZM50.8767 18.5817L58.9099 20.692L61.0363 12.7196L60.8788 12.7978C60.6425 12.9541 60.4062 12.9541 60.17 12.8759C59.9337 12.7978 59.7762 12.6415 59.6187 12.4851L53.2394 1.38629H42.056L51.3492 17.3311C51.5855 17.7219 51.428 18.269 51.0342 18.5035L50.8767 18.5817Z" fill="white"/>
</g>
<defs>
<clipPath id="clip0_7_1073">
<rect width="76" height="68" fill="white"/>
</clipPath>
</defs>
</svg>
