<svg width="59" height="67" viewBox="0 0 59 67" fill="none" xmlns="http://www.w3.org/2000/svg">
<g clip-path="url(#clip0_7_1076)">
<path d="M59.5 58.5747C59.5 26.0457 33.0797 -0.333496 0.5 -0.333496V58.5747H59.5Z" fill="#FF972F"/>
<path d="M26.5961 66.6662C17.3571 66.6662 9.82005 59.4645 9.65796 50.6445V50.5636V35.9174C9.65796 35.0273 10.3874 34.2991 11.2788 34.2991H41.6703C46.7761 34.2991 50.9904 38.345 50.9904 43.2C50.9904 47.5696 47.6676 51.2109 43.3722 52.0201C42.5618 60.031 35.592 66.3426 27.0824 66.5853C26.9203 66.5853 26.7582 66.6662 26.5961 66.6662ZM12.9808 50.4017V50.4826C12.9808 57.4416 18.897 63.1868 26.1099 63.3486C26.272 63.3486 26.353 63.2677 26.5151 63.2677C33.8901 63.2677 39.9684 57.5225 40.0494 50.4017C40.0494 49.5116 40.7788 48.7834 41.6703 48.7834C44.9121 48.7834 47.5865 46.194 47.5865 43.1191C47.5865 39.9633 44.9121 37.4549 41.5893 37.4549H12.9808V50.4017Z" fill="white"/>
<path d="M19.5454 24.0228V31.3054C23.7597 31.3054 27.1635 28.0687 27.1635 24.0228V16.7402C23.0303 16.6593 19.5454 19.9769 19.5454 24.0228Z" fill="white"/>
<path d="M19.5454 9.3766V16.6592C23.7597 16.6592 27.1635 13.4225 27.1635 9.3766V2.09399C23.0303 2.09399 19.5454 5.33071 19.5454 9.3766Z" fill="white"/>
<path d="M29.6758 16.6593V23.9419C33.8901 23.9419 37.2939 20.7052 37.2939 16.6593V9.37671C33.0796 9.37671 29.6758 12.6134 29.6758 16.6593Z" fill="white"/>
</g>
<defs>
<clipPath id="clip0_7_1076">
<rect width="59" height="67" fill="white"/>
</clipPath>
</defs>
</svg>
