<svg width="54" height="55" viewBox="0 0 54 55" fill="none" xmlns="http://www.w3.org/2000/svg">
<g clip-path="url(#clip0_7_1072)">
<path d="M0 55.3334C24.2819 55.3334 43.9732 35.6398 43.9732 11.355H0V55.3334Z" fill="#FF972F"/>
<path d="M12.3825 18.5439C7.12746 18.5439 2.83887 14.2547 2.83887 8.93867C2.83887 3.6226 7.12746 -0.666504 12.3825 -0.666504C17.6375 -0.666504 21.9261 3.6226 21.9261 8.93867C21.9865 14.1943 17.6979 18.5439 12.3825 18.5439ZM12.3825 0.662515C7.85229 0.662515 4.16773 4.34752 4.16773 8.93867C4.16773 13.5298 7.85229 17.2148 12.4429 17.2148C16.9731 17.2148 20.7181 13.5298 20.7181 8.93867C20.6577 4.34752 16.9731 0.662515 12.3825 0.662515Z" fill="white"/>
<path d="M16.1276 6.46197C16.1276 8.51591 14.4364 10.2074 12.3827 10.2074C10.329 10.2074 8.6377 8.51591 8.6377 6.46197C8.6377 4.40803 10.329 2.71655 12.3827 2.71655C14.4364 2.71655 16.1276 4.34762 16.1276 6.46197Z" fill="white"/>
<path d="M17.7584 16.0673C17.0335 13.7717 14.9194 12.1406 12.3825 12.1406C9.84561 12.1406 7.73151 13.8321 7.00668 16.0673C6.82547 16.611 10.0268 17.6379 10.0268 17.6379L14.1342 17.7587" fill="white"/>
<path d="M44.4564 18.5439C39.2013 18.5439 34.9127 14.2547 34.9127 8.93867C34.8523 3.6226 39.1409 -0.666504 44.4564 -0.666504C49.7114 -0.666504 54 3.6226 54 8.93867C54 14.1943 49.7114 18.5439 44.4564 18.5439ZM44.4564 0.662515C39.9262 0.662515 36.1812 4.34752 36.1812 8.93867C36.1812 13.5298 39.8658 17.2148 44.4564 17.2148C48.9866 17.2148 52.7315 13.5298 52.7315 8.93867C52.6711 4.34752 48.9866 0.662515 44.4564 0.662515Z" fill="white"/>
<path d="M48.1411 6.46197C48.1411 8.51591 46.4498 10.2074 44.3961 10.2074C42.3424 10.2074 40.6511 8.51591 40.6511 6.46197C40.6511 4.40803 42.3424 2.71655 44.3961 2.71655C46.5102 2.71655 48.1411 4.34762 48.1411 6.46197Z" fill="white"/>
<path d="M49.8323 16.0673C49.1075 13.7717 46.9934 12.1406 44.4565 12.1406C41.9196 12.1406 39.8055 13.8321 39.0807 16.0673C38.8994 16.611 42.1008 17.6379 42.1008 17.6379L46.2082 17.7587" fill="white"/>
<path d="M12.3825 51.1652C7.12746 51.1652 2.83887 46.8761 2.83887 41.56C2.83887 36.2439 7.12746 31.9548 12.3825 31.9548C17.6375 31.9548 21.9261 36.2439 21.9261 41.56C21.9865 46.8761 17.6979 51.1652 12.3825 51.1652ZM12.3825 33.2839C7.85229 33.2839 4.10732 36.9689 4.10732 41.56C4.10732 46.1512 7.79189 49.8362 12.3825 49.8362C16.9127 49.8362 20.6577 46.1512 20.6577 41.56C20.6577 36.9689 16.9731 33.2839 12.3825 33.2839Z" fill="white"/>
<path d="M16.1276 39.0833C16.1276 41.1372 14.4364 42.8287 12.3827 42.8287C10.329 42.8287 8.6377 41.1372 8.6377 39.0833C8.6377 37.0294 10.329 35.3379 12.3827 35.3379C14.4364 35.3379 16.1276 36.969 16.1276 39.0833Z" fill="white"/>
<path d="M17.7584 48.6886C17.0335 46.393 14.9194 44.762 12.3825 44.762C9.84561 44.762 7.73151 46.4534 7.00668 48.6886C6.82547 49.2323 10.0268 50.2593 10.0268 50.2593L14.1342 50.3801" fill="white"/>
<path d="M44.4565 51.1652C39.2014 51.1652 34.9128 46.8761 34.9128 41.56C34.9128 36.2439 39.2014 31.9548 44.4565 31.9548C49.7115 31.9548 54.0001 36.2439 54.0001 41.56C54.0001 46.8761 49.7115 51.1652 44.4565 51.1652ZM44.4565 33.2839C39.9263 33.2839 36.1813 36.9689 36.1813 41.56C36.1813 46.1512 39.8659 49.8362 44.4565 49.8362C48.9867 49.8362 52.7316 46.1512 52.7316 41.56C52.6712 36.9689 48.9867 33.2839 44.4565 33.2839Z" fill="white"/>
<path d="M48.1411 39.0833C48.1411 41.1372 46.4498 42.8287 44.3961 42.8287C42.3424 42.8287 40.6511 41.1372 40.6511 39.0833C40.6511 37.0294 42.3424 35.3379 44.3961 35.3379C46.5102 35.3379 48.1411 36.969 48.1411 39.0833Z" fill="white"/>
<path d="M49.8323 48.6886C49.1075 46.393 46.9934 44.762 44.4565 44.762C41.9196 44.762 39.8055 46.4534 39.0807 48.6886C38.8994 49.2323 42.1008 50.2593 42.1008 50.2593L46.2082 50.3801" fill="white"/>
<path d="M33.0403 30.1423L32.7987 30.0819C32.2551 29.9611 31.8323 29.5382 31.7115 28.9946L31.6511 28.7529C31.5906 28.4509 31.349 28.2092 30.9866 28.2092C30.6846 28.2092 30.443 28.4509 30.3222 28.7529L30.2618 28.9946C30.141 29.5382 29.7182 29.9611 29.1745 30.0819L28.9933 30.1423C28.6913 30.2028 28.4497 30.4444 28.4497 30.8069C28.4497 31.1089 28.6913 31.411 28.9933 31.4714L29.2349 31.5318C29.7786 31.6526 30.2014 32.0755 30.3222 32.6191L30.3826 32.8608C30.443 33.1628 30.6846 33.4045 31.047 33.4045C31.349 33.4045 31.6511 33.1628 31.7115 32.8608L31.7719 32.6191C31.8927 32.0755 32.3155 31.6526 32.8591 31.5318L33.1007 31.4714C33.4027 31.411 33.6443 31.1693 33.6443 30.8069C33.5839 30.5048 33.3423 30.2028 33.0403 30.1423Z" fill="white"/>
<path d="M32.9194 20.3561C33.1007 20.3561 33.2215 20.2353 33.2215 20.054V19.2083C33.2215 19.0271 33.1007 18.9062 32.9194 18.9062C32.7382 18.9062 32.6174 19.0271 32.6174 19.2083V20.054C32.6174 20.2353 32.7986 20.3561 32.9194 20.3561Z" fill="white"/>
<path d="M32.9194 22.7118C33.1007 22.7118 33.2215 22.591 33.2215 22.4098V21.564C33.2215 21.3828 33.1007 21.262 32.9194 21.262C32.7382 21.262 32.6174 21.3828 32.6174 21.564V22.4098C32.6174 22.5306 32.7986 22.7118 32.9194 22.7118Z" fill="white"/>
<path d="M33.7047 21.0812H34.5504C34.7316 21.0812 34.8524 20.9603 34.8524 20.7791C34.8524 20.5979 34.7316 20.4771 34.5504 20.4771H33.7047C33.5235 20.4771 33.4027 20.5979 33.4027 20.7791C33.3423 20.9603 33.5235 21.0812 33.7047 21.0812Z" fill="white"/>
<path d="M31.3489 21.0812H32.1945C32.3757 21.0812 32.4965 20.9603 32.4965 20.7791C32.4965 20.5979 32.3757 20.4771 32.1945 20.4771H31.3489C31.1677 20.4771 31.0469 20.5979 31.0469 20.7791C31.0469 20.9603 31.1677 21.0812 31.3489 21.0812Z" fill="white"/>
<path d="M28.6309 23.2562L27.3624 23.0146C26.2148 22.7729 25.3691 21.9272 25.1275 20.7794L24.8859 19.5108C24.8255 19.0879 24.4631 18.7859 24.0403 18.7859C23.6175 18.7859 23.2551 19.0879 23.1947 19.5108L22.953 20.7794C22.7114 21.9272 21.8658 22.7729 20.7181 23.0146L19.4497 23.2562C19.0269 23.3166 18.7249 23.6791 18.7249 24.102C18.7249 24.5248 19.0269 24.8873 19.4497 24.9477L20.7181 25.1893C21.8658 25.431 22.7114 26.2767 22.953 27.4245L23.1947 28.6931C23.2551 29.116 23.6175 29.418 24.0403 29.418C24.4631 29.418 24.8255 29.116 24.8859 28.6931L25.1275 27.4245C25.3691 26.2767 26.2148 25.431 27.3624 25.1893L28.6309 24.9477C29.0537 24.8873 29.3557 24.5248 29.3557 24.102C29.3557 23.6791 29.0537 23.3166 28.6309 23.2562Z" fill="white"/>
<path d="M23.1947 7.48875C22.8322 7.48875 22.5302 7.24711 22.4698 6.94506C22.349 6.52219 22.5906 6.09932 23.0134 5.9785C26.4564 5.01194 30.2618 5.01194 33.7651 5.91809C34.1879 6.03891 34.4295 6.46178 34.3087 6.88465C34.1879 7.30752 33.7651 7.54916 33.3423 7.42834C30.141 6.52219 26.6376 6.5826 23.4363 7.48875C23.3155 7.48875 23.2551 7.48875 23.1947 7.48875Z" fill="white"/>
<path d="M28.3893 45.2453C26.5772 45.2453 24.7651 45.0036 23.0134 44.5204C22.5906 44.3995 22.349 43.9767 22.4698 43.5538C22.5906 43.1309 23.0134 42.8893 23.4363 43.0101C26.6376 43.9163 30.0806 43.9163 33.2819 43.0101C33.7047 42.8893 34.1275 43.1309 34.2483 43.5538C34.3692 43.9767 34.1275 44.3995 33.7047 44.5204C32.0134 45.064 30.2014 45.2453 28.3893 45.2453Z" fill="white"/>
</g>
<defs>
<clipPath id="clip0_7_1072">
<rect width="54" height="55" fill="white"/>
</clipPath>
</defs>
</svg>
