<svg width="66" height="62" viewBox="0 0 66 62" fill="none" xmlns="http://www.w3.org/2000/svg">
<g clip-path="url(#clip0_7_1078)">
<path d="M0 62.0002C33.5848 62.0002 60.8203 34.8335 60.8203 1.3335H0V62.0002Z" fill="#FF972F"/>
<path d="M30.3264 52.0834C18.2125 52.0834 8.35425 42.2501 8.35425 30.0834C8.35425 18.0001 18.2125 8.16675 30.3264 8.16675C42.4403 8.16675 52.2985 18.0001 52.2985 30.0834C52.215 42.2501 42.3568 52.0834 30.3264 52.0834ZM30.3264 10.5834C19.5492 10.5834 10.8606 19.3334 10.8606 30.0834C10.8606 40.8334 19.6327 49.5834 30.3264 49.5834C41.1036 49.5834 49.7922 40.8334 49.7922 30.0834C49.7922 19.3334 41.0201 10.5834 30.3264 10.5834Z" fill="white"/>
<path d="M38.848 24.4166C38.848 29.1666 35.005 32.9999 30.3265 32.9999C25.5645 32.9999 21.7214 29.1666 21.7214 24.4166C21.7214 19.6666 25.5645 15.8333 30.243 15.8333C35.005 15.8333 38.848 19.6666 38.848 24.4166Z" fill="white"/>
<path d="M42.6076 46.4166C40.9367 41.1666 36.0911 37.3333 30.243 37.3333C24.4785 37.3333 19.5494 41.1666 17.8785 46.4166C17.5443 47.5833 24.8962 49.9999 24.8962 49.9999L34.3367 50.2499" fill="white"/>
<path d="M38.7644 3.08333L39.1821 3C40.0176 2.83333 40.6859 2.16667 40.9365 1.25L41.0201 0.833333C41.1036 0.333333 41.5214 0 42.0226 0C42.5239 0 42.9416 0.333333 43.0252 0.833333L43.1087 1.25C43.2758 2.08333 43.9441 2.83333 44.8631 3L45.2809 3.08333C45.7821 3.16667 46.1163 3.58333 46.1163 4.08333C46.1163 4.58333 45.7821 5 45.2809 5.08333L44.8631 5.16667C44.0277 5.33333 43.2758 6 43.1087 6.91667L43.0252 7.33333C42.9416 7.83333 42.5239 8.16667 42.0226 8.16667C41.5214 8.16667 41.1036 7.83333 41.0201 7.33333L40.9365 6.91667C40.7695 6.08333 40.1011 5.33333 39.1821 5.16667L38.7644 5.08333C38.2631 5 37.929 4.58333 37.929 4.08333C37.929 3.58333 38.2631 3.16667 38.7644 3.08333Z" fill="white"/>
<path d="M44.1951 22.8333C43.9444 22.8333 43.7773 22.6666 43.7773 22.4166V21.2499C43.7773 20.9999 43.9444 20.8333 44.1951 20.8333C44.4457 20.8333 44.6128 20.9999 44.6128 21.2499V22.4166C44.6128 22.6666 44.3622 22.8333 44.1951 22.8333Z" fill="white"/>
<path d="M44.1951 25.9998C43.9444 25.9998 43.7773 25.8331 43.7773 25.5831V24.4164C43.7773 24.1664 43.9444 23.9998 44.1951 23.9998C44.4457 23.9998 44.6128 24.1664 44.6128 24.4164V25.5831C44.6128 25.7498 44.3622 25.9998 44.1951 25.9998Z" fill="white"/>
<path d="M43.1923 23.8336H42.0227C41.7721 23.8336 41.605 23.6669 41.605 23.4169C41.605 23.1669 41.7721 23.0002 42.0227 23.0002H43.1923C43.443 23.0002 43.61 23.1669 43.61 23.4169C43.61 23.6669 43.443 23.8336 43.1923 23.8336Z" fill="white"/>
<path d="M46.2836 23.8336H45.114C44.8634 23.8336 44.6963 23.6669 44.6963 23.4169C44.6963 23.1669 44.8634 23.0002 45.114 23.0002H46.2836C46.5343 23.0002 46.7014 23.1669 46.7014 23.4169C46.7014 23.6669 46.5343 23.8336 46.2836 23.8336Z" fill="white"/>
<path d="M50.043 9.58341L52.048 9.16675C53.886 8.83341 55.2227 7.41675 55.6404 5.58341L56.0581 3.58341C56.2252 2.91675 56.7265 2.41675 57.4784 2.41675C58.1468 2.41675 58.7316 2.83341 58.8987 3.58341L59.3164 5.58341C59.6506 7.41675 61.0708 8.83341 62.9088 9.16675L64.9138 9.58341C65.5822 9.75008 66.0835 10.2501 66.0835 11.0001C66.0835 11.6667 65.6657 12.2501 64.9138 12.4167L62.9088 12.8334C61.0708 13.1667 59.7341 14.5834 59.3164 16.4167L58.8151 18.3334C58.648 19.0001 58.1468 19.5001 57.3949 19.5001C56.7265 19.5001 56.1417 19.0834 55.9746 18.3334L55.5569 16.3334C55.2227 14.5001 53.8025 13.0834 51.9645 12.7501L49.9594 12.3334C49.2911 12.1667 48.7898 11.6667 48.7898 10.9167C48.9569 10.2501 49.3746 9.75008 50.043 9.58341Z" fill="white"/>
</g>
<defs>
<clipPath id="clip0_7_1078">
<rect width="66" height="62" fill="white"/>
</clipPath>
</defs>
</svg>
