<svg width="92" height="29" viewBox="0 0 92 29" fill="none" xmlns="http://www.w3.org/2000/svg">
<g clip-path="url(#clip0_787_4526)">
<path d="M10.5538 10.4561C10.5538 4.68163 5.82845 0 0 0V10.4561C0 16.2306 4.72538 20.9122 10.5538 20.9122C16.3823 20.9122 21.1077 16.2306 21.1077 10.4561V0C15.2763 0 10.5538 4.68163 10.5538 10.4561Z" fill="#4F4949"/>
<path d="M79.7638 0C73.9353 0 69.21 4.68163 69.21 10.4561V20.9122C75.0384 20.9122 79.7638 16.2306 79.7638 10.4561C79.7638 16.2306 84.4892 20.9122 90.3176 20.9122V10.4561C90.3147 4.68163 85.5922 0 79.7638 0Z" fill="#4F4949"/>
<path d="M53.6788 0H43.1279V20.9122H53.6818C59.5102 20.9122 64.2356 16.2306 64.2356 10.4561C64.2326 4.68163 59.5073 0 53.6788 0Z" fill="#4F4949"/>
<path d="M26.8252 0V10.4561C26.8252 16.2306 31.5506 20.9122 37.379 20.9122V10.4561C37.379 4.68163 32.6536 0 26.8252 0Z" fill="#4F4949"/>
<path d="M71.8723 26.5679C71.8518 26.6056 71.8401 26.6114 71.7816 26.6114H71.6675C71.5768 26.6114 71.5592 26.5592 71.5124 26.4201C71.4919 26.3563 71.3398 26.2288 71.0501 26.2288C70.4708 26.2288 70.1255 26.7506 70.1255 27.3187C70.1255 27.9565 70.5293 28.4203 71.1145 28.4203C71.4948 28.4203 71.764 28.2551 71.8781 28.1855C71.9103 28.1652 72.001 28.0956 72.0274 28.0956C72.0537 28.0956 72.0537 28.1333 72.0537 28.1652C72.0537 28.2029 71.9776 28.7334 71.9454 28.771C71.8869 28.8464 71.3749 29.0001 70.9828 29.0001C70.225 29.0001 69.3765 28.5044 69.3765 27.4666C69.3765 26.8375 69.7949 25.736 71.0998 25.736C71.5299 25.736 71.8079 25.8432 71.8635 25.8693C71.9864 25.9273 71.9659 26.0403 71.9601 26.0722L71.8723 26.5679Z" fill="#4F4949"/>
<path d="M75.2457 26.2868C75.4564 26.5796 75.5471 26.942 75.5471 27.2869C75.5471 27.9566 75.1755 29.0001 73.8618 29.0001C72.7382 29.0001 72.3257 28.1914 72.3257 27.4406C72.3257 26.5622 72.8962 25.7332 73.9115 25.7332C74.5698 25.7332 75 25.9361 75.2457 26.2868ZM73.0864 27.3188C73.0864 27.9682 73.4258 28.5102 73.973 28.5102C74.4499 28.5102 74.7834 28 74.7834 27.429C74.7834 26.9884 74.5845 26.1999 73.9232 26.1999C73.3819 26.197 73.0864 26.7391 73.0864 27.3188Z" fill="#4F4949"/>
<path d="M80.7202 25.9186C80.7202 26.0142 80.7085 26.02 80.6295 26.0461C80.5066 26.078 80.4949 26.1157 80.3662 26.478C80.2052 26.9302 79.936 27.655 79.7693 28.1072L79.5001 28.8464C79.4796 28.8841 79.462 28.8841 79.2806 28.9102C79.2426 28.916 79.0056 28.9536 78.9646 28.9536C78.8886 28.9536 78.8827 28.916 78.8359 28.7739C78.6808 28.284 78.4058 27.5071 78.2712 27.0114C78.2653 26.9795 78.239 26.8723 78.2185 26.8723C78.198 26.8723 78.0137 27.4318 77.9669 27.5419C77.7299 28.171 77.6772 28.313 77.5368 28.713C77.4783 28.8841 77.4724 28.8899 77.2939 28.9102C77.1769 28.9218 76.9984 28.942 76.9457 28.942C76.8697 28.942 76.8697 28.916 76.817 28.7565C76.7643 28.5913 76.0855 26.3128 75.9421 26.0954C75.9041 26.0374 75.8514 26.0374 75.7871 26.0055C75.749 25.9852 75.7432 25.9736 75.7432 25.9157V25.8142C75.7432 25.7649 75.7549 25.7301 75.8134 25.7301C75.9216 25.7301 76.4191 25.7504 76.5215 25.7504C77.0042 25.7504 77.1564 25.7301 77.2412 25.7301C77.2851 25.7301 77.3378 25.7417 77.3378 25.8142V25.9157C77.3378 25.9997 77.3261 26.0113 77.2091 26.0432C77.1505 26.0548 76.9077 26.1128 76.9077 26.2664C76.9077 26.3186 76.9282 26.3737 76.9662 26.5331C77.0832 26.9592 77.3261 28.0289 77.37 28.1623C77.4344 28.0347 77.6538 27.3274 77.9025 26.5186C78.0108 26.1679 78.0371 26.0722 78.1015 25.8316C78.1278 25.7475 78.1395 25.7417 78.3004 25.7243C78.3648 25.7185 78.6164 25.6866 78.6398 25.6866C78.7101 25.6866 78.7189 25.7127 78.7627 25.9215C78.7744 25.9649 79.2777 27.9854 79.3655 28.1623C79.4094 28.0463 79.9243 26.3476 79.9243 26.2461C79.9243 26.107 79.8219 26.0925 79.6552 26.049C79.5791 26.0287 79.5644 25.991 79.5644 25.9417V25.8142C79.5644 25.7649 79.5762 25.7301 79.661 25.7301C79.8015 25.7301 80.015 25.7504 80.1496 25.7504C80.2579 25.7504 80.5037 25.7301 80.6236 25.7301C80.7143 25.7301 80.7143 25.7823 80.7143 25.8142V25.9186H80.7202Z" fill="#4F4949"/>
<path d="M83.7985 26.2868C84.0092 26.5796 84.0999 26.942 84.0999 27.2869C84.0999 27.9566 83.7283 29.0001 82.4145 29.0001C81.291 29.0001 80.8784 28.1914 80.8784 27.4406C80.8784 26.5622 81.449 25.7332 82.4643 25.7332C83.1226 25.7332 83.5556 25.9361 83.7985 26.2868ZM81.6392 27.3188C81.6392 27.9682 81.9786 28.5102 82.5257 28.5102C83.0026 28.5102 83.3362 28 83.3362 27.429C83.3362 26.9884 83.1372 26.1999 82.476 26.1999C81.9347 26.197 81.6392 26.7391 81.6392 27.3188Z" fill="#4F4949"/>
<path d="M84.3833 26.0114C84.3833 25.91 84.4038 25.8897 84.5062 25.8781C84.8134 25.8404 85.4571 25.7302 85.5273 25.7302C85.618 25.7302 85.618 25.8056 85.618 25.852L85.6122 26.165C85.618 26.368 85.618 26.4404 85.6707 26.4404C85.7029 26.4404 85.7526 26.3767 86.0423 26.0578C86.1974 25.8868 86.3378 25.7331 86.7884 25.7331C86.9757 25.7331 87.0196 25.7853 87.0137 25.881L86.9874 26.3274C86.9874 26.3854 86.9815 26.4926 86.9025 26.4926C86.8645 26.4926 86.724 26.4404 86.4724 26.4404C86.1008 26.4404 85.9194 26.5883 85.855 26.7071C85.7526 26.8927 85.7468 27.0521 85.7468 27.5159V27.8029C85.7468 28.2348 85.7673 28.287 85.7731 28.3624C85.7848 28.516 85.8433 28.5218 86.1769 28.5972C86.3905 28.6494 86.408 28.6493 86.408 28.7363V28.8262C86.408 28.8581 86.4022 28.9276 86.3232 28.9276C86.1944 28.9276 86.0715 28.9073 85.3459 28.9073C84.91 28.9073 84.7403 28.9276 84.6261 28.9276C84.5618 28.9276 84.5559 28.8755 84.5559 28.8436V28.7421C84.5559 28.6522 84.5764 28.6465 84.7549 28.5885C84.9363 28.5363 84.986 28.4986 84.9977 28.3595C85.0182 28.1305 85.0094 27.6464 85.0094 27.4869V27.2753C85.0094 27.026 84.9831 26.339 84.752 26.2433C84.6817 26.2172 84.6495 26.2114 84.474 26.1998C84.3979 26.194 84.3774 26.1737 84.3774 26.1158V26.0114H84.3833Z" fill="#4F4949"/>
<path d="M90.3523 26.0114C90.3523 26.1186 90.3319 26.1273 90.1212 26.1505C90.0042 26.1708 89.9866 26.1824 89.8374 26.3042C89.6443 26.452 89.2522 26.7622 89.1703 26.8375C89.1381 26.8752 89.1 26.9158 89.1 26.9593C89.1 27.0028 89.1147 27.0231 89.2288 27.1941C90.1153 28.4812 90.2236 28.5131 90.405 28.5681C90.5337 28.6 90.5454 28.6058 90.5454 28.6812V28.7711C90.5454 28.8551 90.5454 28.8551 90.405 28.8783C90.0773 28.9363 89.7554 28.974 89.6735 28.974C89.5711 28.974 89.5389 28.9537 89.3722 28.7015C89.2434 28.5044 88.626 27.4927 88.5704 27.4463C88.5587 27.4347 88.5441 27.4347 88.5324 27.4347C88.5324 27.4347 88.4563 27.4405 88.3978 27.5362C88.3773 27.5622 88.3773 27.5738 88.3773 27.6956C88.3773 28.4841 88.4037 28.4986 88.5061 28.5421C88.55 28.5623 88.7753 28.6319 88.7811 28.6377C88.8338 28.6638 88.8338 28.6957 88.8338 28.7392V28.8406C88.8338 28.8986 88.8221 28.9247 88.7577 28.9247C88.6612 28.9247 88.5792 28.9044 88.0057 28.9044C87.4644 28.9044 87.362 28.9247 87.2596 28.9247C87.1953 28.9247 87.1894 28.8725 87.1894 28.8406V28.7392C87.1894 28.6493 87.2099 28.6435 87.3884 28.5855C87.5552 28.5334 87.6195 28.5015 87.6312 28.3565C87.6371 28.2232 87.6429 27.8144 87.6429 27.484V26.0954C87.6429 25.9041 87.6429 24.8286 87.6049 24.7127C87.5727 24.6112 87.52 24.6054 87.2772 24.5648C87.1748 24.5533 87.1602 24.5069 87.1602 24.4634V24.3474C87.1602 24.2779 87.2128 24.2721 87.2684 24.2576L88.2632 24.1097C88.4183 24.0836 88.4183 24.1213 88.4183 24.3011L88.3861 25.62C88.3744 26.365 88.3744 26.4926 88.3744 26.6317V27.0144C88.3744 27.0521 88.3744 27.1042 88.4125 27.1042C88.4768 27.1042 89.2405 26.3157 89.2405 26.2056C89.2405 26.1534 89.2024 26.1418 89.0679 26.1099C88.9772 26.0838 88.9537 26.078 88.9537 26.0027V25.8693C88.9537 25.8114 88.9859 25.794 89.0444 25.794C89.1293 25.794 89.495 25.8143 89.6677 25.8143C89.7584 25.8143 90.1768 25.794 90.247 25.794C90.3172 25.794 90.3553 25.8056 90.3553 25.878V26.0114H90.3523Z" fill="#4F4949"/>
<path d="M91.9997 28.516C91.9997 28.7827 91.7802 29.0001 91.4935 29.0001C91.2038 29.0001 90.999 28.7769 90.999 28.5102C90.999 28.2116 91.2565 28.0261 91.4818 28.0261C91.8066 28.0261 91.9997 28.2464 91.9997 28.516Z" fill="#4F4949"/>
</g>
<defs>
<clipPath id="clip0_787_4526">
<rect width="92" height="29" fill="white"/>
</clipPath>
</defs>
</svg>
