<svg width="30" height="44" viewBox="0 0 30 44" fill="none" xmlns="http://www.w3.org/2000/svg">
<path d="M21.0285 37.9834C21.0285 41.3203 18.2932 43.9899 14.982 43.9899C11.6229 43.9899 8.93555 41.2726 8.93555 37.9834C8.93555 34.6464 11.6709 31.9769 14.982 31.9769C18.3412 31.9769 21.0285 34.6464 21.0285 37.9834Z" fill="#FF972F"/>
<path d="M29.7626 12.3842C28.6589 5.99632 23.6682 1.22926 17.0459 0.180506C10.9994 -0.820577 4.61699 2.42103 1.73772 7.95082C0.346067 10.6204 -0.325763 13.4329 0.154116 16.3885C0.490031 18.486 1.44979 20.3929 2.45753 22.252C4.85693 26.59 7.88017 30.4514 11.0954 34.2173C12.343 35.6475 13.6387 37.0776 14.9344 38.5077C15.2223 38.2217 15.4623 37.9833 15.6542 37.745C17.7177 35.3138 19.8771 32.9302 21.8926 30.4514C24.436 27.3051 26.7394 23.9682 28.467 20.2975C29.7147 17.771 30.2425 15.1968 29.7626 12.3842Z" fill="#4F4949"/>
<path d="M6.63293 15.1967C6.63293 13.8619 5.52921 12.7655 4.18555 12.7655V15.1967C4.18555 16.5315 5.28927 17.6279 6.63293 17.6279C7.97659 17.6279 9.08031 16.5315 9.08031 15.1967V12.7655C7.68866 12.7655 6.63293 13.8619 6.63293 15.1967Z" fill="#FF972F"/>
<path d="M22.6124 12.7655C21.2688 12.7655 20.165 13.8619 20.165 15.1967V17.6279C21.5087 17.6279 22.6124 16.5315 22.6124 15.1967C22.6124 16.5315 23.7161 17.6279 25.0598 17.6279V15.1967C25.0598 13.8619 23.9561 12.7655 22.6124 12.7655Z" fill="#FF972F"/>
<path d="M16.6144 12.7655H14.167V17.6279H16.6144C17.958 17.6279 19.0618 16.5315 19.0618 15.1967C19.0138 13.8619 17.958 12.7655 16.6144 12.7655Z" fill="#FF972F"/>
<path d="M10.376 12.7655V15.1967C10.376 16.5315 11.4797 17.6279 12.8234 17.6279V15.1967C12.8234 13.8619 11.7196 12.7655 10.376 12.7655Z" fill="#FF972F"/>
</svg>
