<svg width="100" height="65" viewBox="0 0 201 65" fill="none" xmlns="http://www.w3.org/2000/svg">
<g clip-path="url(#clip0_2:44)">
<path d="M23.0578 23.5756C23.0578 10.8319 12.7339 0.5 0 0.5V23.5756C0 36.3193 10.3239 46.6511 23.0578 46.6511C35.7917 46.6511 46.1156 36.3193 46.1156 23.5756V0.5C33.3753 0.5 23.0578 10.8319 23.0578 23.5756Z" fill="#FF972F"/>
<path d="M174.266 0.5C161.533 0.5 151.209 10.8319 151.209 23.5756V46.6511C163.943 46.6511 174.266 36.3193 174.266 23.5756C174.266 36.3193 184.59 46.6511 197.324 46.6511V23.5756C197.318 10.8319 187 0.5 174.266 0.5Z" fill="#FF972F"/>
<path d="M117.277 0.5H94.2258V46.6511H117.284C130.017 46.6511 140.341 36.3193 140.341 23.5756C140.335 10.8319 130.011 0.5 117.277 0.5Z" fill="#FF972F"/>
<path d="M58.6066 0.5V23.5756C58.6066 36.3193 68.9305 46.6511 81.6645 46.6511V23.5756C81.6645 10.8319 71.3405 0.5 58.6066 0.5Z" fill="#FF972F"/>
<path d="M157.026 59.1327C156.981 59.2159 156.956 59.2287 156.828 59.2287H156.578C156.38 59.2287 156.342 59.1135 156.24 58.8064C156.195 58.6657 155.862 58.3842 155.23 58.3842C153.964 58.3842 153.21 59.5357 153.21 60.7896C153.21 62.1971 154.092 63.2207 155.37 63.2207C156.201 63.2207 156.789 62.856 157.039 62.7025C157.109 62.6577 157.307 62.5041 157.365 62.5041C157.422 62.5041 157.422 62.5873 157.422 62.6577C157.422 62.7409 157.256 63.9116 157.186 63.9948C157.058 64.1611 155.939 64.5002 155.083 64.5002C153.427 64.5002 151.573 63.4062 151.573 61.1159C151.573 59.7277 152.487 57.2966 155.338 57.2966C156.278 57.2966 156.885 57.5333 157.007 57.5909C157.275 57.7189 157.23 57.9684 157.218 58.0387L157.026 59.1327Z" fill="#FF972F"/>
<path d="M164.396 58.512C164.857 59.1581 165.055 59.9578 165.055 60.7191C165.055 62.1969 164.243 64.5 161.373 64.5C158.918 64.5 158.017 62.7151 158.017 61.0581C158.017 59.1197 159.263 57.29 161.481 57.29C162.92 57.29 163.859 57.7379 164.396 58.512ZM159.679 60.7894C159.679 62.2225 160.42 63.4188 161.616 63.4188C162.658 63.4188 163.386 62.2928 163.386 61.0325C163.386 60.0601 162.952 58.32 161.507 58.32C160.324 58.3136 159.679 59.51 159.679 60.7894Z" fill="#FF972F"/>
<path d="M176.357 57.6995C176.357 57.9107 176.331 57.9234 176.159 57.981C175.89 58.0514 175.865 58.1346 175.583 58.9342C175.232 59.9322 174.644 61.5316 174.279 62.5296L173.691 64.161C173.646 64.2441 173.608 64.2441 173.212 64.3017C173.129 64.3145 172.611 64.3977 172.521 64.3977C172.355 64.3977 172.342 64.3145 172.24 64.001C171.901 62.9199 171.3 61.2053 171.006 60.1114C170.994 60.041 170.936 59.8043 170.891 59.8043C170.846 59.8043 170.444 61.039 170.341 61.2821C169.824 62.6704 169.709 62.9838 169.402 63.8667C169.274 64.2441 169.261 64.2569 168.871 64.3017C168.616 64.3273 168.226 64.3721 168.11 64.3721C167.944 64.3721 167.944 64.3145 167.829 63.9626C167.714 63.598 166.231 58.5696 165.918 58.0898C165.835 57.9618 165.72 57.9618 165.579 57.8915C165.496 57.8467 165.483 57.8211 165.483 57.6931V57.4692C165.483 57.3605 165.509 57.2837 165.637 57.2837C165.873 57.2837 166.96 57.3285 167.184 57.3285C168.238 57.3285 168.571 57.2837 168.756 57.2837C168.852 57.2837 168.967 57.3093 168.967 57.4692V57.6931C168.967 57.8787 168.942 57.9043 168.686 57.9746C168.558 58.0002 168.027 58.1282 168.027 58.4672C168.027 58.5824 168.072 58.7039 168.155 59.0558C168.411 59.9962 168.942 62.3569 169.037 62.6512C169.178 62.3697 169.657 60.8087 170.201 59.0238C170.437 58.2497 170.495 58.0386 170.636 57.5076C170.693 57.3221 170.719 57.3093 171.07 57.2709C171.211 57.2581 171.761 57.1877 171.812 57.1877C171.965 57.1877 171.984 57.2453 172.08 57.7059C172.106 57.8019 173.205 62.2609 173.397 62.6512C173.493 62.3953 174.618 58.6464 174.618 58.4225C174.618 58.1154 174.394 58.0834 174.03 57.9874C173.864 57.9426 173.832 57.8595 173.832 57.7507V57.4692C173.832 57.3605 173.857 57.2837 174.043 57.2837C174.35 57.2837 174.816 57.3285 175.11 57.3285C175.347 57.3285 175.884 57.2837 176.146 57.2837C176.344 57.2837 176.344 57.3989 176.344 57.4692V57.6995H176.357Z" fill="#FF972F"/>
<path d="M183.082 58.512C183.542 59.1581 183.74 59.9578 183.74 60.7191C183.74 62.1969 182.928 64.5 180.058 64.5C177.603 64.5 176.702 62.7151 176.702 61.0581C176.702 59.1197 177.949 57.29 180.167 57.29C181.605 57.29 182.551 57.7379 183.082 58.512ZM178.364 60.7894C178.364 62.2225 179.106 63.4188 180.301 63.4188C181.343 63.4188 182.072 62.2928 182.072 61.0325C182.072 60.0601 181.637 58.32 180.192 58.32C179.01 58.3136 178.364 59.51 178.364 60.7894Z" fill="#FF972F"/>
<path d="M184.36 57.9042C184.36 57.6803 184.405 57.6355 184.629 57.61C185.3 57.5268 186.706 57.2837 186.86 57.2837C187.058 57.2837 187.058 57.45 187.058 57.5524L187.045 58.2433C187.058 58.6911 187.058 58.8511 187.173 58.8511C187.243 58.8511 187.352 58.7103 187.985 58.0066C188.324 57.6292 188.631 57.2901 189.615 57.2901C190.024 57.2901 190.12 57.4052 190.107 57.6164L190.05 58.6016C190.05 58.7295 190.037 58.9662 189.864 58.9662C189.781 58.9662 189.474 58.8511 188.925 58.8511C188.113 58.8511 187.716 59.1773 187.576 59.4396C187.352 59.8491 187.339 60.2009 187.339 61.2245V61.8579C187.339 62.8111 187.384 62.9262 187.397 63.0926C187.422 63.4316 187.55 63.4444 188.279 63.6108C188.746 63.7259 188.784 63.7259 188.784 63.9178V64.1162C188.784 64.1865 188.771 64.3401 188.599 64.3401C188.317 64.3401 188.049 64.2953 186.463 64.2953C185.511 64.2953 185.14 64.3401 184.891 64.3401C184.75 64.3401 184.737 64.2249 184.737 64.1545V63.9306C184.737 63.7323 184.782 63.7195 185.172 63.5916C185.569 63.4764 185.677 63.3932 185.703 63.0862C185.747 62.5808 185.728 61.5124 185.728 61.1605V60.6935C185.728 60.1433 185.671 58.6272 185.166 58.416C185.012 58.3585 184.942 58.3457 184.558 58.3201C184.392 58.3073 184.348 58.2625 184.348 58.1345V57.9042H184.36Z" fill="#FF972F"/>
<path d="M197.401 57.9043C197.401 58.141 197.356 58.1602 196.896 58.2114C196.64 58.2562 196.602 58.2817 196.276 58.5504C195.854 58.8767 194.997 59.5612 194.818 59.7276C194.748 59.8107 194.665 59.9003 194.665 59.9963C194.665 60.0922 194.697 60.137 194.946 60.5144C196.883 63.3549 197.12 63.4253 197.516 63.5468C197.797 63.6172 197.823 63.63 197.823 63.7963V63.9947C197.823 64.1802 197.823 64.1802 197.516 64.2314C196.8 64.3593 196.097 64.4425 195.918 64.4425C195.694 64.4425 195.624 64.3977 195.26 63.8411C194.978 63.4061 193.629 61.1734 193.508 61.071C193.482 61.0454 193.45 61.0454 193.425 61.0454C193.425 61.0454 193.259 61.0582 193.131 61.2693C193.086 61.3269 193.086 61.3525 193.086 61.6212C193.086 63.3613 193.144 63.3933 193.367 63.4893C193.463 63.534 193.955 63.6876 193.968 63.7004C194.083 63.758 194.083 63.8283 194.083 63.9243V64.1482C194.083 64.2761 194.058 64.3337 193.917 64.3337C193.706 64.3337 193.527 64.2889 192.274 64.2889C191.092 64.2889 190.868 64.3337 190.644 64.3337C190.504 64.3337 190.491 64.2186 190.491 64.1482V63.9243C190.491 63.726 190.535 63.7132 190.925 63.5852C191.29 63.4701 191.43 63.3997 191.456 63.0798C191.469 62.7855 191.482 61.8835 191.482 61.1542V58.0898C191.482 57.6676 191.482 55.2941 191.398 55.0382C191.328 54.8143 191.213 54.8015 190.683 54.712C190.459 54.6864 190.427 54.584 190.427 54.4881V54.2322C190.427 54.0786 190.542 54.0658 190.663 54.0338L192.837 53.7076C193.176 53.65 193.176 53.7332 193.176 54.1298L193.105 57.0406C193.08 58.6848 193.08 58.9663 193.08 59.2733V60.1178C193.08 60.201 193.08 60.3161 193.163 60.3161C193.303 60.3161 194.972 58.576 194.972 58.3329C194.972 58.2178 194.889 58.1922 194.595 58.1218C194.397 58.0642 194.345 58.0514 194.345 57.8851V57.5908C194.345 57.4629 194.416 57.4245 194.544 57.4245C194.729 57.4245 195.528 57.4693 195.905 57.4693C196.103 57.4693 197.018 57.4245 197.171 57.4245C197.324 57.4245 197.407 57.4501 197.407 57.61V57.9043H197.401Z" fill="#FF972F"/>
<path d="M201 63.4318C201 64.0203 200.521 64.5001 199.894 64.5001C199.261 64.5001 198.814 64.0075 198.814 63.419C198.814 62.76 199.376 62.3506 199.869 62.3506C200.578 62.3506 201 62.8368 201 63.4318Z" fill="#FF972F"/>
</g>
<defs>
<clipPath id="clip0_2:44">
<rect width="201" height="64" fill="white" transform="translate(0 0.5)"/>
</clipPath>
</defs>
</svg>
